<?xml version="1.0" encoding="utf-8"?>
<!-- Generator: Adobe Illustrator 26.2.1, SVG Export Plug-In . SVG Version: 6.00 Build 0)  -->
<svg version="1.1"
	 id="svg8" xmlns:cc="http://creativecommons.org/ns#" xmlns:dc="http://purl.org/dc/elements/1.1/" xmlns:osb="http://www.openswatchbook.org/uri/2009/osb" xmlns:rdf="http://www.w3.org/1999/02/22-rdf-syntax-ns#" xmlns:svg="http://www.w3.org/2000/svg"
	 xmlns="http://www.w3.org/2000/svg" xmlns:xlink="http://www.w3.org/1999/xlink" x="0px" y="0px" viewBox="0 0 1206.6 1225.2"
	 style="enable-background:new 0 0 1206.6 1225.2;" xml:space="preserve">
<style type="text/css">
	.st0{fill:none;stroke:#000000;stroke-width:35.6712;stroke-miterlimit:11.3386;}
</style>
<g id="layer1" transform="translate(-1355.5068,-6596.9244)">
	<path id="path2583" d="M1812.5,7226.4H1751v407.2c18.8,9.8,41.5,17.6,61.5,24.8V7226.4z M1925.9,7200.3v480.3
		c8.4,0.7,21.4,4.6,29.8,4.6c11,0,20.7,0,31.7-0.7v-484.2L1925.9,7200.3z M2278.9,7540.9c22-23.5,44.7-51.6,61.5-79v-310.6h-61.5
		V7540.9z M1604.6,7252.5l141.9-165.1l134.7,50.9l288.3-208.2l145.1,138.3l73.2-58.7l-11-24.1l-60.9,51.6l-143.2-134.4l-292.8,210.8
		l-136-52.9l-151.6,172.3l-94.6,22.2v22.2L1604.6,7252.5z M1634.3,7350.4h-61.5v120.1c16.8,26.1,39.5,50.9,61.5,73.1V7350.4z
		 M2165.5,7076.3H2104v580.1c20.1-7.2,42.8-15.7,61.5-26.1V7076.3z"/>
	<ellipse id="path2617" class="st0" cx="1958.8" cy="7209.5" rx="585.4" ry="594.8"/>
</g>
</svg>
