<?xml version="1.0" encoding="utf-8"?>
<!-- Generator: Adobe Illustrator 25.0.1, SVG Export Plug-In . SVG Version: 6.00 Build 0)  -->
<svg version="1.1" id="Layer_1" xmlns="http://www.w3.org/2000/svg" xmlns:xlink="http://www.w3.org/1999/xlink" x="0px" y="0px"
	 viewBox="0 0 247.8 53.9" style="enable-background:new 0 0 247.8 53.9;" xml:space="preserve">
<style type="text/css">
	.st0{fill:#FFFFFF;}
	.st1{clip-path:url(#SVGID_2_);}
	.st2{clip-path:url(#SVGID_4_);}
	.st3{clip-path:url(#SVGID_6_);}
</style>
<g id="surface1">
	<path class="st0" d="M17.3,6.3c0-1.7-0.8-2.9-4.5-2.9c-3.7,0-4.5,1.2-4.5,2.9v4.5c0,1.4,0.5,2.7,1.8,3.8l12.4,10.6
		c1.8,1.5,2.8,3.3,2.8,5.2v6.7c0,4-4.7,6.3-12.5,6.3C4.1,43.5,0,41.5,0,37.2v-5.8h7.8l0,5.6c0,2,1.5,3.2,5,3.2
		c3.2,0,4.7-1.2,4.7-3.2v-6c0-1.5-0.6-2.6-2.2-4.1l-11.5-10c-2.1-1.8-3.3-3.3-3.3-5.4V6.4c0-4.2,4.4-6.3,12.3-6.3
		c8.7,0,12.3,2.1,12.3,6v5.4h-7.8V6.3z"/>
	<path class="st0" d="M100.3,36c0,2.4,0.9,4,5.9,4s5.9-1.7,5.9-4V7.3c0-2.4-0.9-4-5.9-4c-5,0-5.9,1.7-5.9,4V36z M92.5,7.2
		C92.5,3,95.7,0,106.2,0c10.5,0,13.7,3,13.7,7.2l0,29c0,4.2-3.2,7.2-13.7,7.2c-10.5,0-13.7-3-13.7-7.2L92.5,7.2z"/>
	<path class="st0" d="M135.8,20.5c3.5,0,6-0.5,6-2.7V6.3c0-2.2-2.5-2.7-6-2.7H132v16.8H135.8z M124.2,0.4h12.4c10,0,13,1.7,13,6.5
		l0,10.5c0,4.8-3,6.5-13,6.5H132V43h-7.8V0.4z"/>
	<path class="st0" d="M169.1,6.2c0-1.7-0.8-2.9-4.5-2.9c-3.7,0-4.5,1.2-4.5,2.9v4.5c0,1.4,0.5,2.7,1.8,3.8l12.4,10.6
		c1.8,1.5,2.8,3.3,2.8,5.2v6.7c0,4-4.7,6.3-12.5,6.3c-8.6,0-12.8-1.9-12.8-6.3v-5.8h7.8v5.6c0,2,1.5,3.2,5,3.2
		c3.2,0,4.7-1.2,4.7-3.2v-6c0-1.5-0.6-2.6-2.2-4.1l-11.5-10c-2.1-1.8-3.3-3.2-3.3-5.4V6.3c0-4.2,4.4-6.3,12.3-6.3
		c8.7,0,12.3,2.1,12.3,6v5.4h-7.8V6.2z"/>
	<path class="st0" d="M226.6,6.2c0-1.7-0.8-2.9-4.5-2.9c-3.7,0-4.5,1.2-4.5,2.9v4.5c0,1.4,0.5,2.7,1.8,3.8l12.4,10.6
		c1.8,1.5,2.8,3.3,2.8,5.2v6.7c0,4-4.7,6.3-12.5,6.3c-8.6,0-12.8-1.9-12.8-6.3v-5.9h7.8l0,5.6c0,2,1.5,3.2,5,3.2
		c3.2,0,4.7-1.2,4.7-3.2v-6c0-1.5-0.6-2.6-2.2-4.1l-11.5-10c-2.1-1.8-3.3-3.2-3.3-5.4V6.3c0-4.2,4.4-6.3,12.3-6.3
		c8.7,0,12.3,2.1,12.3,6v5.4h-7.8V6.2z"/>
	<g>
		<defs>
			<rect id="SVGID_1_" x="32" width="26" height="53.9"/>
		</defs>
		<clipPath id="SVGID_2_">
			<use xlink:href="#SVGID_1_"  style="overflow:visible;"/>
		</clipPath>
		<g class="st1">
			<path class="st0" d="M49.4,0.4h7.8L40.1,53.9h-7.8L49.4,0.4z"/>
		</g>
	</g>
	<path class="st0" d="M37.1,33.6L26.5,0.5h7.8L41,21.4L37.1,33.6z"/>
	<g>
		<defs>
			<rect id="SVGID_3_" x="184" width="25" height="53.9"/>
		</defs>
		<clipPath id="SVGID_4_">
			<use xlink:href="#SVGID_3_"  style="overflow:visible;"/>
		</clipPath>
		<g class="st2">
			<path class="st0" d="M201.2,0.4h7.8l-17.1,53.6h-7.8L201.2,0.4z"/>
		</g>
	</g>
	<path class="st0" d="M188.9,33.5L178.3,0.4h7.8l6.7,20.9L188.9,33.5z"/>
	<path class="st0" d="M87.7,43L87.7,43l0-36.1c0-4.8-3-6.5-13-6.5h-15l0,42.7h7.8l0,0V3.7h6.4c3.5,0,6,0.5,6,2.7V43H87.7z"/>
	<g>
		<defs>
			<rect id="SVGID_5_" x="237" width="10.8" height="11"/>
		</defs>
		<clipPath id="SVGID_6_">
			<use xlink:href="#SVGID_5_"  style="overflow:visible;"/>
		</clipPath>
		<g class="st3">
			<path class="st0" d="M242.7,5.3c0.7,0,1.4-0.1,1.4-0.9c0-0.7-0.6-0.8-1.2-0.8h-1.2v1.8H242.7z M241.7,8.5h-0.9V2.8h2.2
				c1.4,0,2,0.5,2,1.6c0,1-0.6,1.5-1.5,1.6l1.6,2.5h-1L242.7,6h-1V8.5z M242.8,9.8c2.2,0,4-1.8,4-4.2c0-2.4-1.8-4.1-4-4.1
				c-2.3,0-4.1,1.8-4.1,4.1C238.7,8,240.5,9.8,242.8,9.8 M237.7,5.6c0-2.8,2.3-5,5.1-5c2.7,0,5,2.1,5,5c0,2.9-2.3,5-5,5
				C240,10.6,237.7,8.5,237.7,5.6"/>
		</g>
	</g>
</g>
</svg>
