<?xml version="1.0" encoding="utf-8"?>
<!-- Generator: Adobe Illustrator 25.0.1, SVG Export Plug-In . SVG Version: 6.00 Build 0)  -->
<svg version="1.1" id="Layer_1" xmlns="http://www.w3.org/2000/svg" xmlns:xlink="http://www.w3.org/1999/xlink" x="0px" y="0px"
	 viewBox="0 0 1071.4 200.1" style="enable-background:new 0 0 1071.4 200.1;" xml:space="preserve">
<style type="text/css">
	.st0{fill:url(#SVGID_1_);}
	.st1{fill:#808285;}
	.st2{fill:#F47835;}
	.st3{fill:url(#SVGID_2_);}
	.st4{fill:url(#SVGID_3_);}
</style>
<g>
	
		<radialGradient id="SVGID_1_" cx="926.4308" cy="-37.8503" r="141.4505" gradientTransform="matrix(-0.9298 0.368 0.368 0.9298 975.9492 -165.4114)" gradientUnits="userSpaceOnUse">
		<stop  offset="1.685390e-02" style="stop-color:#FFFBDF"/>
		<stop  offset="0.1629" style="stop-color:#FFF200"/>
		<stop  offset="0.253" style="stop-color:#FFCB05"/>
		<stop  offset="0.4139" style="stop-color:#F78D1E"/>
		<stop  offset="0.5457" style="stop-color:#F15D22"/>
		<stop  offset="0.6413" style="stop-color:#EE3424"/>
		<stop  offset="0.691" style="stop-color:#ED1C24"/>
		<stop  offset="0.7491" style="stop-color:#DC1929"/>
		<stop  offset="0.8687" style="stop-color:#B60B33"/>
		<stop  offset="0.9213" style="stop-color:#A30134"/>
	</radialGradient>
	<path class="st0" d="M13.9,109.7c14.2,35.8,54.7,53.3,90.5,39.2c35.8-14.2,53.3-54.7,39.2-90.5C129.4,22.6,88.9,5.1,53.1,19.2
		C17.3,33.4-0.3,73.9,13.9,109.7z"/>
</g>
<path class="st1" d="M1058.1,65.2h-30.8v12.2h27.4c3.9,0,6.6,0.7,8,2.2c1.4,1.5,2.1,4.2,2.1,8.1v4.9c0,4-0.7,6.7-2.1,8.1
	c-1.4,1.4-4.1,2.1-8,2.1h-25.3c-3.9,0-3.4-6.1-3.4-6.1h32.3v-13h-27.3c-3.9,0-6.5-0.7-8-2.1c-1.4-1.4-2.2-4.1-2.2-8.1v-3.8
	c0-4,0.7-6.8,2.1-8.2c1.4-1.4,4.1-2.1,8-2.1h23.2c3.7,0,6.3,0.7,7.9,2C1063.5,62.6,1058.1,65.2,1058.1,65.2z"/>
<path class="st1" d="M1048.8,99.7c0,1.7-1.5,3-3.4,3h-20.8c-1.8,0-3.3-1.4-3.3-3l0,0c0-1.7,1.5-3,3.3-3h20.8
	C1047.3,96.7,1048.8,98,1048.8,99.7L1048.8,99.7z"/>
<path class="st1" d="M1063.7,62.2c0,1.6-1.5,3-3.3,3H1040c-1.8,0-3.3-1.3-3.3-3l0,0c0-1.6,1.5-2.9,3.3-2.9l20.3,0
	C1062.2,59.3,1063.7,60.6,1063.7,62.2L1063.7,62.2z"/>
<path class="st2" d="M232.2,66.2h-34v31.5h34V85h-17.6v-5.5h18.2l6.6,2.8l0,5.2v5.9c0,4-0.7,6.7-2.1,8.1c-1.4,1.4-4.1,2.1-8,2.1
	h-28.1c-3.9,0-6.6-0.7-8-2.1c-1.4-1.4-2.1-4.1-2.1-8.1V70.6c0-4,0.7-6.7,2.1-8.1c1.4-1.4,4.1-2.1,8-2.1h28.1
	C233.1,60.3,232.2,66.2,232.2,66.2z"/>
<path class="st2" d="M310.1,70.4c0-4,0.7-6.7,2.1-8.1c1.4-1.4,4.1-2.1,8-2.1h30c3.9,0,6.6,0.7,8,2.1c1.4,1.4,2.1,4.1,2.1,8.1v22.9
	c0,4-0.7,6.7-2.1,8.1c-1.4,1.4-4.1,2.2-8,2.2h-30c-3.9,0-6.6-0.7-8-2.2c-1.4-1.4-2.1-4.1-2.1-8.1V70.4z M317.3,97.5h35.9V66h-35.9
	V97.5z"/>
<path class="st2" d="M487.4,103.2c-1.5,0.9-3.5,0.4-4.4-1.1l-22.7-37.3c-0.9-1.5-0.4-3.5,1.1-4.4l0,0c1.5-0.9,3.5-0.4,4.4,1.1
	l22.8,37.3C489.4,100.3,489,102.2,487.4,103.2L487.4,103.2z"/>
<path class="st2" d="M438.4,103.2c1.5,0.9,3.5,0.4,4.4-1.1l22.8-37.3c0.9-1.5,0.4-3.5-1.1-4.4l0,0c-1.5-0.9-3.5-0.4-4.4,1.1
	l-22.8,37.3C436.4,100.3,436.9,102.2,438.4,103.2L438.4,103.2z"/>
<path class="st2" d="M481.1,90c0,1.5-1.4,2.8-3.1,2.8h-29.6c-1.7,0-3.1-1.2-3.1-2.8l0,0c0-1.5,1.4-2.8,3.1-2.8h29.6
	C479.7,87.2,481.1,88.4,481.1,90L481.1,90z"/>
<path class="st2" d="M387.3,103.4l-3.7-3.7l-2.7-3.1V67.3l4-4.8l-0.8-2.6H416c3.2,0,5.5,0.7,7,2c1.5,1.3,2.2,3.5,2.2,6.4v5.1
	c0,4.3-2.4,6.8-7.3,7.4c5,0.6,7.5,3.5,7.5,8.5v5.6c0,5.7-4,8.5-12,8.5H387.3z M417.7,74v-4.4c0-1.5-0.3-2.5-1.1-3
	c-0.7-0.5-1.8-0.8-3.4-0.8h-25.1v12.1h25.1C416.3,77.8,417.7,76.5,417.7,74z M418.1,92.3v-3.6c0-2-0.3-3.4-1.1-4.1
	c-0.7-0.7-2-1.1-3.7-1.1h-25.1v13.9h25.1c1.8,0,3-0.4,3.7-1.1C417.7,95.6,418.1,94.3,418.1,92.3z"/>
<path class="st2" d="M384.2,97.5h16.3h7l-2.8,6h-20.6"/>
<path class="st2" d="M384.5,60c2,0,3.7,1.6,3.7,3.7v36.1c0,2-1.6,3.7-3.7,3.7l0,0c-2,0-3.7-1.6-3.7-3.7V63.7
	C380.8,61.7,382.5,60,384.5,60L384.5,60z"/>
<path class="st1" d="M606.5,69.7c0-4,0.7-6.7,2.1-8.1c1.4-1.4,4.1-2.1,8-2.1h30c3.9,0,6.6,0.7,8,2.1c1.4,1.4,2.1,4.1,2.1,8.1v22.9
	c0,4-0.7,6.7-2.1,8.1c-1.4,1.4-4.1,2.2-8,2.2h-30c-3.9,0-6.6-0.7-8-2.2c-1.4-1.4-2.1-4.1-2.1-8.1V69.7z M613.7,96.8h35.9V65.3h-35.9
	V96.8z"/>
<path class="st1" d="M685.3,69.5v27.3H717V69.5h7.1v23.1c0,4-0.7,6.7-2.1,8.1c-1.4,1.4-4.1,2.2-8,2.2h-25.8c-3.9,0-6.6-0.7-8-2.2
	c-1.4-1.4-2.1-4.1-2.1-8.1V69.5H685.3z"/>
<path class="st2" d="M237.5,63.2c0,1.6-1.3,3-3,3h-20.9c-1.6,0-3-1.3-3-3l0,0c0-1.6,1.3-3,3-3h20.9
	C236.1,60.3,237.5,61.6,237.5,63.2L237.5,63.2z"/>
<path class="st2" d="M239.5,82.4c0,1.6-1.3,3-2.9,3h-23c-1.6,0-3-1.3-3-3l0,0c0-1.6,1.3-3,3-3h23C238.2,79.4,239.5,80.8,239.5,82.4
	L239.5,82.4z"/>
<g>
	<path class="st1" d="M1007.2,62.2c0,1.6-1.3,3-3,3h-33.7c-1.6,0-3-1.3-3-3l0,0c0-1.6,1.3-3,3-3h33.7
		C1005.9,59.2,1007.2,60.5,1007.2,62.2L1007.2,62.2z"/>
	<path class="st1" d="M1007,99.9c0,1.6-1.3,3-3,3h-33.7c-1.6,0-3-1.3-3-3l0,0c0-1.6,1.3-3,3-3h33.7C1005.7,96.9,1007,98.3,1007,99.9
		L1007,99.9z"/>
	<path class="st1" d="M995.7,80.2c0,1.6-1.5,3-3.3,3H972c-1.8,0-3.3-1.3-3.3-3l0,0c0-1.6,1.5-3,3.3-3h20.5
		C994.3,77.2,995.7,78.6,995.7,80.2L995.7,80.2z"/>
	<path class="st1" d="M970.6,59.2c2,0,3.7,1.6,3.7,3.7v36.3c0,2-1.6,3.6-3.7,3.6l0,0c-2,0-3.6-1.6-3.6-3.6V62.9
		C967,60.9,968.6,59.2,970.6,59.2L970.6,59.2z"/>
</g>
<path class="st2" d="M294.8,99.9c0,1.6-1.3,3-3,3h-33.7c-1.6,0-3-1.3-3-3l0,0c0-1.6,1.3-3,3-3h33.7
	C293.5,96.9,294.8,98.3,294.8,99.9L294.8,99.9z"/>
<path class="st2" d="M258.4,59.2c2,0,3.6,1.6,3.6,3.7v36.3c0,2-1.6,3.6-3.6,3.6l0,0c-2,0-3.7-1.6-3.7-3.6V62.9
	C254.8,60.9,256.4,59.2,258.4,59.2L258.4,59.2z"/>
<path class="st2" d="M540.7,99.9c0,1.6-1.3,3-3,3H504c-1.6,0-3-1.3-3-3l0,0c0-1.6,1.3-3,3-3h33.7C539.3,96.9,540.7,98.3,540.7,99.9
	L540.7,99.9z"/>
<path class="st2" d="M504.2,59.2c2,0,3.7,1.6,3.7,3.7v36.3c0,2-1.6,3.6-3.7,3.6l0,0c-2,0-3.6-1.6-3.6-3.6V62.9
	C500.6,60.9,502.2,59.2,504.2,59.2L504.2,59.2z"/>
<path class="st1" d="M594.3,62.2c0,1.6-1.3,3-3,3h-33.7c-1.6,0-3-1.3-3-3l0,0c0-1.6,1.3-3,3-3h33.7C593,59.2,594.3,60.5,594.3,62.2
	L594.3,62.2z"/>
<path class="st1" d="M580.6,82.4c0,1.6-1.3,3-3,3h-17.3c-1.6,0-3-1.3-3-3l0,0c0-1.6,1.3-3,3-3h17.3
	C579.3,79.4,580.6,80.8,580.6,82.4L580.6,82.4z"/>
<path class="st1" d="M557.7,59.2c2,0,3.7,1.6,3.7,3.7v36.3c0,2-1.6,3.6-3.7,3.6l0,0c-2,0-3.6-1.6-3.6-3.6V62.9
	C554,60.9,555.7,59.2,557.7,59.2L557.7,59.2z"/>
<path class="st1" d="M720.6,59.5c2,0,3.6,1.6,3.6,3.6l0,8.2c0,2-1.6,3.5-3.6,3.5l0,0c-2,0-3.6-1.6-3.6-3.6V63
	C717,61.1,718.6,59.5,720.6,59.5L720.6,59.5z"/>
<path class="st1" d="M681.7,59.5c2,0,3.6,1.6,3.6,3.6l0,8.3c0,2-1.6,3.6-3.6,3.6l0,0c-2,0-3.6-1.6-3.6-3.6v-8.2
	C678.1,61.1,679.7,59.5,681.7,59.5L681.7,59.5z"/>
<path class="st1" d="M819.1,59.4h14.1c7.6,0,13.2,1.1,16.7,3.4c2.8,1.8,5,4.3,6.6,7.5c1.6,3.2,2.4,6.7,2.4,10.6c0,8.5-3,14.7-9,18.6
	c-3.4,2.2-9,3.4-16.7,3.4h-16.8l-7.1-5.6V70.3l4.7-10.9H819.1z M832.3,65.3h-15.7v31.5h8.7h7c6.7,0,11.6-1.1,14.5-3.4
	c3.2-2.4,4.8-6.6,4.8-12.5c0-5.7-1.6-9.8-4.8-12.2C843.8,66.4,839,65.3,832.3,65.3z"/>
<path class="st1" d="M826.7,99.8c0,1.7-1.4,3-3,3h-11.2c-1.7,0-3-1.4-3-3l0,0c0-1.7,1.4-3,3-3h11.2
	C825.3,96.8,826.7,98.1,826.7,99.8L826.7,99.8z"/>
<path class="st1" d="M816.8,59.4l-0.1,39.8c0,2-1.6,3.6-3.7,3.6l0,0c-2,0-3.6-1.6-3.6-3.6V63.1c0-2,1.6-3.7,3.6-3.7L816.8,59.4z"/>
<path class="st1" d="M878.2,59.4h16.1h15.4c3.2,0,5.5,0.7,7,2c1.5,1.3,2.2,3.5,2.2,6.4v9.7c0,3-0.7,5.1-2.2,6.4c-1.5,1.3-3.8,2-7,2
	h-27.8v10h-7.2V82.9l7.2,0.4v-3h24.9c1.7,0,3-0.3,3.7-0.9c0.7-0.6,1.1-1.8,1.1-3.5v-6.3c0-1.7-0.4-2.8-1.1-3.5c-0.7-0.6-1.9-1-3.7-1
	h-27"/>
<path class="st1" d="M917.4,102c-1.1,1.3-3.1,1.5-4.4,0.4l-20.2-16.5c-1.3-1.1-1.5-3.1-0.4-4.4l0,0c1.1-1.3,3.1-1.5,4.4-0.4
	L917,97.6C918.4,98.7,918.5,100.7,917.4,102L917.4,102z"/>
<path class="st1" d="M878.8,59.6c2,0,3.1,1.4,3.1,3.4v36.1c0,2-1.6,3.6-3.7,3.6l0,0c-2,0-3.6-1.6-3.6-3.6V63.1c0-2,1.6-3.7,3.6-3.7
	L878.8,59.6z"/>
<path class="st1" d="M789.2,101.7c-1.2,1.3-3.1,1.4-4.4,0.2l-41.4-37.2c-1.3-1.2-1.4-3.1-0.2-4.4l0,0c1.2-1.3,3.1-1.4,4.4-0.2
	L789,97.3C790.3,98.4,790.4,100.4,789.2,101.7L789.2,101.7z"/>
<path class="st1" d="M745.4,59.2c1.8,0,3.3,1.5,3.3,3.3v37.2c0,1.8-1.5,3.3-3.3,3.3l0,0c-1.8,0-3.3-1.5-3.3-3.3V62
	C742,60.2,743.5,59.2,745.4,59.2L745.4,59.2z"/>
<path class="st1" d="M943.5,59.2c1.8,0,3.3,1.2,3.3,3v37.4c0,1.8-1.5,3.3-3.3,3.3l0,0c-1.8,0-3.3-1.5-3.3-3.3V62.3
	C940.1,60.5,941.6,59.2,943.5,59.2L943.5,59.2z"/>
<path class="st1" d="M787.3,102.8c-1.8,0-3.3-1.5-3.3-3.3V62.7c0-1.8,1.5-3.3,3.3-3.3l0,0c1.8,0,3.3,1.5,3.3,3.3v37.3
	C790.6,101.9,789.1,102.8,787.3,102.8L787.3,102.8z"/>
<radialGradient id="SVGID_2_" cx="1630.0934" cy="-483.5143" r="95.1747" gradientTransform="matrix(-0.8694 0.5025 -0.5039 -0.8719 1233.8622 -1187.5549)" gradientUnits="userSpaceOnUse">
	<stop  offset="5.056180e-02" style="stop-color:#FFFFFF"/>
	<stop  offset="0.2022" style="stop-color:#FFF797"/>
	<stop  offset="0.618" style="stop-color:#FFF200"/>
	<stop  offset="0.6475" style="stop-color:#FAD400"/>
	<stop  offset="0.742" style="stop-color:#DF8D19"/>
	<stop  offset="0.8193" style="stop-color:#CD5F1B"/>
	<stop  offset="0.8753" style="stop-color:#C33F1A"/>
	<stop  offset="0.9045" style="stop-color:#BF311A"/>
	<stop  offset="0.9093" style="stop-color:#B72B21"/>
	<stop  offset="0.9181" style="stop-color:#A91F2B"/>
	<stop  offset="0.9276" style="stop-color:#9E1431"/>
	<stop  offset="0.9378" style="stop-color:#950634"/>
	<stop  offset="0.9489" style="stop-color:#8E0036"/>
	<stop  offset="0.9613" style="stop-color:#8A0037"/>
	<stop  offset="0.9762" style="stop-color:#870038"/>
	<stop  offset="1" style="stop-color:#860038"/>
</radialGradient>
<path class="st3" d="M143.8,59.5c-0.1-0.2-0.2-0.4-0.2-0.6c0.1,0.3,0.2,0.6,0.4,1C143.9,59.7,143.9,59.6,143.8,59.5z M141.2,53.2
	c-0.5-0.9-0.9-1.9-1.4-2.8c0.1,0.2,0.3,0.8,0.7,1.5C140.8,52.6,141.1,53.1,141.2,53.2z M143,59.3c-0.1,0.2,0.1,1,0.4,1.9
	c0.3,0.8,0.6,1.3,0.7,1.1c0.1-0.2-0.1-1-0.4-1.8C143.4,59.6,143.1,59.1,143,59.3z M140.1,52.3c-0.4-0.9-0.9-1.5-1-1.4
	c-0.1,0.1,0.1,0.9,0.6,1.8c0.5,0.9,0.9,1.5,1,1.4C140.8,54,140.6,53.2,140.1,52.3z M146.9,79c-0.1,0.3-0.1,1.1,0,1.8
	c0.1,0.6,0.2,0.9,0.3,0.5c0.1-0.3,0.1-1.1,0-1.8C147.2,79,147,78.7,146.9,79z M145,70.3c-0.1,0.3-0.1,1.2,0.1,2
	c0.2,0.8,0.5,1.2,0.6,0.8c0.1-0.3,0.1-1.2-0.1-2C145.4,70.4,145.2,70,145,70.3z M142.8,62.4c-0.3-0.9-0.8-1.4-0.9-1.1
	c-0.2,0.3-0.1,1.2,0.3,2.1c0.4,0.9,0.8,1.4,0.9,1.1C143.3,64.2,143.2,63.2,142.8,62.4z M132.8,45.4c0.7,1,1.5,1.7,1.8,1.6
	c0.3-0.1,0-1-0.6-2c-0.6-1-1.4-1.7-1.8-1.6C131.9,43.5,132.1,44.4,132.8,45.4z M129,39.1c0.4,0,0.1-0.8-0.7-1.7
	c-0.8-0.9-1.7-1.7-2.2-1.7c-0.5,0-0.2,0.7,0.6,1.7C127.6,38.3,128.6,39.1,129,39.1z M146,98.6c-0.1,0.3-0.3,0.9-0.3,1.3
	c0,0.4,0,0.4,0.1,0.1c0.1-0.3,0.3-0.9,0.3-1.3C146.2,98.3,146.1,98.3,146,98.6z M146.5,91.7c0-0.5-0.1-0.7-0.3-0.3
	c-0.2,0.4-0.3,1.1-0.3,1.7c0,0.5,0.1,0.6,0.3,0.2C146.4,93,146.5,92.2,146.5,91.7z M145.9,83.6c-0.1-0.7-0.3-0.9-0.5-0.5
	c-0.2,0.4-0.3,1.3-0.2,2c0.1,0.7,0.3,0.9,0.5,0.5C145.9,85.2,146,84.3,145.9,83.6z M144,74.6c-0.2-0.8-0.6-1.2-0.9-0.8
	c-0.2,0.4-0.3,1.4,0,2.3c0.2,0.8,0.6,1.2,0.9,0.8C144.3,76.4,144.3,75.4,144,74.6z M139.7,63.9c-0.3,0.4-0.3,1.4,0.1,2.4
	c0.4,1,1,1.5,1.3,1.1c0.3-0.4,0.2-1.4-0.1-2.4C140.6,64.1,140,63.6,139.7,63.9z M122.8,37.9c0.9,1.1,2.1,1.8,2.7,1.7
	c0.6-0.1,0.4-1.1-0.5-2.1c-0.8-1-2-1.8-2.6-1.7C121.8,35.9,122,36.8,122.8,37.9z M143.9,103.9c0-0.4-0.1-0.4-0.3,0
	c-0.2,0.4-0.4,1-0.4,1.4c0,0.4,0.1,0.4,0.3,0C143.6,104.9,143.8,104.3,143.9,103.9z M144.1,96.8c0-0.5-0.2-0.6-0.5-0.2
	c-0.3,0.4-0.4,1.2-0.4,1.8c0,0.5,0.2,0.6,0.5,0.2C144,98.1,144.2,97.3,144.1,96.8z M143.3,88.4c-0.1-0.7-0.5-0.9-0.8-0.5
	c-0.3,0.5-0.5,1.4-0.3,2.2c0.1,0.7,0.5,0.9,0.8,0.4C143.3,90,143.4,89.1,143.3,88.4z M137.7,71.2c0.5-0.5,0.5-1.7,0.1-2.7
	c-0.4-1-1.1-1.5-1.6-1.1c-0.5,0.4-0.5,1.7-0.1,2.8C136.5,71.2,137.2,71.7,137.7,71.2z M127.3,50.4c0.7-0.3,0.6-1.6-0.2-2.7
	c-0.8-1.2-1.9-1.9-2.6-1.6c-0.7,0.3-0.7,1.5,0.1,2.7C125.4,50.1,126.6,50.8,127.3,50.4z M117.5,39.2c0.9,1.2,2.4,1.9,3.2,1.7
	c0.8-0.2,0.7-1.4-0.2-2.5c-0.9-1.1-2.3-1.8-3.1-1.6C116.5,37,116.6,38.1,117.5,39.2z M110.1,28.9c-1,0.1-1,1,0,2.1
	c1,1,2.6,1.8,3.6,1.6c0.9-0.2,0.8-1.1-0.2-2.1C112.5,29.5,111,28.8,110.1,28.9z M137.6,120.2c0.1-0.2,0.2-0.4,0.3-0.5c0,0,0,0,0,0
	C137.8,119.8,137.7,120,137.6,120.2z M139.3,115.4c-0.2,0.3-0.5,0.8-0.5,1c-0.1,0.2,0.1,0.2,0.3-0.2c0.2-0.3,0.4-0.8,0.5-1
	C139.7,115,139.5,115.1,139.3,115.4z M140.5,109.6c0-0.4-0.2-0.4-0.5,0c-0.3,0.4-0.5,1-0.6,1.4c0,0.4,0.2,0.3,0.5-0.1
	C140.2,110.6,140.5,110,140.5,109.6z M136.5,86.5c0.5-0.6,0.7-1.8,0.4-2.7c-0.3-0.9-1-1.3-1.5-0.7c-0.6,0.6-0.7,1.8-0.4,2.7
	C135.2,86.8,135.9,87.1,136.5,86.5z M133,72.8c-0.5-1.1-1.4-1.6-2-1.1c-0.7,0.5-0.8,1.9-0.3,3.1c0.5,1.1,1.4,1.6,2.1,1
	C133.3,75.3,133.5,73.9,133,72.8z M125.2,60.1c-0.8,0.5-0.9,1.9-0.3,3.2c0.7,1.3,1.9,1.9,2.6,1.3c0.8-0.5,0.9-2,0.2-3.2
	C127.1,60.2,126,59.6,125.2,60.1z M110.6,41.5c1,1.3,2.6,2,3.7,1.6c1-0.4,1.1-1.7,0.1-2.9c-0.9-1.2-2.5-1.9-3.6-1.6
	C109.7,39,109.6,40.3,110.6,41.5z M95.5,25.4c1.1,0.9,3,1.5,4.2,1.3c1.2-0.2,1.4-1.1,0.3-2c-1-0.9-2.8-1.4-4.1-1.2
	C94.7,23.6,94.5,24.5,95.5,25.4z M81.7,15c1.4-0.1,1.7-0.3,0.9-0.6c-0.8-0.2-2.5-0.3-3.8-0.2c-1.3,0.1-1.8,0.3-1.1,0.5
	C78.5,15,80.3,15.1,81.7,15z M147.2,72.3c-0.1-0.5-0.2-1-0.3-1.5c0,0.3,0.1,0.8,0.2,1.2C147.1,72.1,147.2,72.2,147.2,72.3z
	 M141.4,54.4c-0.1,0.1,0.2,0.9,0.6,1.8c0.4,0.9,0.7,1.4,0.8,1.3c0-0.2-0.2-0.9-0.6-1.8C141.8,54.9,141.5,54.3,141.4,54.4z
	 M120.8,28.1c-0.1-0.1-0.1-0.1-0.2-0.1c0,0,0,0,0,0.1C120.7,28.1,120.7,28.1,120.8,28.1z M147.8,81.1c0,0.3-0.1,1.1,0,1.7
	c0,0.6,0.1,0.8,0.2,0.5c0-0.3,0.1-1.1,0-1.7C147.9,81,147.9,80.8,147.8,81.1z M144.2,64.4c-0.1,0.3,0,1.2,0.3,2.1
	c0.3,0.9,0.6,1.3,0.7,1c0.1-0.3,0-1.2-0.3-2C144.6,64.6,144.3,64.2,144.2,64.4z M138,50.7c0.2-0.1-0.1-1-0.6-2
	c-0.6-1-1.2-1.7-1.4-1.6c-0.2,0.1,0,1,0.6,2C137.2,50.1,137.8,50.8,138,50.7z M121.3,29.5c0.5,0.2,0.1-0.4-0.8-1.1
	c-0.9-0.8-2.1-1.5-2.6-1.7c-0.5-0.2-0.3,0.3,0.7,1.1C119.6,28.6,120.8,29.3,121.3,29.5z M147,92.7c-0.1,0.4-0.2,1.1-0.2,1.5
	c0,0.5,0,0.6,0.2,0.2c0.1-0.4,0.2-1,0.2-1.5C147.2,92.4,147.2,92.3,147,92.7z M145.4,76.4c-0.2,0.4-0.2,1.3,0,2.1
	c0.2,0.8,0.4,1.1,0.6,0.7c0.2-0.4,0.2-1.3,0-2.1C145.8,76.4,145.6,76.1,145.4,76.4z M128.1,41.6c0.8,1.1,1.8,1.9,2.3,1.7
	c0.5-0.1,0.2-1.1-0.6-2.1c-0.8-1-1.8-1.8-2.3-1.7C127.1,39.6,127.3,40.5,128.1,41.6z M124.3,35.5c0.6,0,0.3-0.8-0.6-1.8
	c-0.9-1-2.1-1.7-2.7-1.8c-0.6,0-0.4,0.8,0.5,1.8C122.5,34.7,123.7,35.5,124.3,35.5z M144.1,105.5c-0.1,0.3,0,0.3,0.2,0
	c0.1-0.4,0.3-0.9,0.4-1.3c0.1-0.3,0-0.3-0.2,0C144.4,104.6,144.2,105.2,144.1,105.5z M145.3,90.1c-0.1-0.7-0.3-0.8-0.5-0.4
	c-0.2,0.5-0.4,1.4-0.3,2c0.1,0.7,0.3,0.8,0.5,0.3C145.2,91.6,145.3,90.7,145.3,90.1z M140.1,70.6c-0.4,0.4-0.4,1.6-0.1,2.6
	c0.3,1,0.9,1.4,1.3,1c0.4-0.5,0.4-1.6,0-2.6C141,70.6,140.4,70.2,140.1,70.6z M123.5,40.4c-0.7,0.2-0.6,1.3,0.3,2.5
	c0.9,1.2,2.1,2,2.8,1.7c0.7-0.2,0.5-1.4-0.3-2.5C125.4,41,124.2,40.2,123.5,40.4z M116.4,32.1c-0.8,0.1-0.7,1.1,0.2,2.1
	c1,1.1,2.5,1.9,3.3,1.7c0.8-0.1,0.6-1.1-0.4-2.2C118.6,32.8,117.2,32,116.4,32.1z M142.6,103.2c0-0.5-0.2-0.5-0.5-0.1
	c-0.3,0.5-0.5,1.2-0.5,1.7c0,0.5,0.2,0.5,0.5,0.1C142.3,104.5,142.6,103.7,142.6,103.2z M139.4,85.5c-0.5,0.5-0.6,1.7-0.4,2.6
	c0.2,0.9,0.8,1.1,1.2,0.6c0.4-0.5,0.6-1.7,0.4-2.5C140.4,85.3,139.8,85,139.4,85.5z M133.3,65c-0.6-1.2-1.5-1.8-2.2-1.3
	c-0.7,0.5-0.8,1.9-0.2,3.1c0.6,1.2,1.6,1.8,2.2,1.2C133.7,67.5,133.8,66.2,133.3,65z M124.9,52.5c-0.8,0.4-0.8,1.8-0.1,3.1
	c0.8,1.3,2,2,2.8,1.5c0.7-0.5,0.8-1.8,0-3.1C126.9,52.8,125.7,52.1,124.9,52.5z M103,25.8c-1.2,0.1-1.3,1.1-0.2,2.1
	c1.1,1,2.9,1.7,4.1,1.5c1.1-0.2,1.1-1.2,0.1-2.1C105.9,26.3,104.2,25.7,103,25.8z M133.8,125.1c-0.2,0.3-0.4,0.6-0.5,0.7
	c-0.1,0.1,0.1,0,0.3-0.2c0.2-0.2,0.4-0.5,0.5-0.7C134.2,124.8,134.1,124.9,133.8,125.1z M134.9,121.2c-0.3,0.3-0.5,0.8-0.6,1
	c0,0.2,0.2,0.1,0.4-0.2c0.3-0.3,0.5-0.8,0.6-1C135.4,120.8,135.2,120.9,134.9,121.2z M135.2,115.7c-0.4,0.4-0.7,1.1-0.7,1.4
	c0,0.4,0.3,0.3,0.7-0.1c0.4-0.4,0.6-1,0.7-1.4C135.9,115.3,135.6,115.3,135.2,115.7z M126.6,78c-0.5-1.2-1.6-1.6-2.5-1
	c-0.9,0.6-1.1,2.1-0.6,3.3c0.5,1.2,1.7,1.6,2.5,0.9C126.9,80.7,127.1,79.2,126.6,78z M114.1,54c-0.9-1.4-2.5-2-3.6-1.5
	c-1.2,0.6-1.4,2.2-0.5,3.6c0.9,1.4,2.6,2.1,3.7,1.4C114.8,56.9,115,55.3,114.1,54z M106.3,46.4c1.3-0.5,1.5-2.1,0.5-3.4
	c-1-1.3-2.8-2-4.1-1.5c-1.3,0.5-1.6,2-0.6,3.4C103.1,46.3,105,46.9,106.3,46.4z M81.5,19.9c-1.5,0.3-2,1.2-1.1,1.9
	c0.9,0.8,3,1.1,4.5,0.7c1.5-0.4,1.9-1.2,0.9-1.9C84.9,19.9,83,19.6,81.5,19.9z M76.2,16.7c-1.5,0.3-2.1,0.9-1.3,1.4
	c0.8,0.5,2.8,0.7,4.4,0.3c1.5-0.3,2-0.9,1.1-1.4C79.5,16.5,77.6,16.4,76.2,16.7z M128.9,130.5c-0.3,0.2-0.5,0.5-0.5,0.6
	c0,0.1,0.1,0,0.4-0.3c0.2-0.2,0.5-0.5,0.5-0.6C129.3,130.1,129.1,130.3,128.9,130.5z M130.1,121.8c0-0.3-0.4-0.3-0.9,0.1
	c-0.5,0.4-0.8,1-0.7,1.4c0,0.3,0.4,0.3,0.9-0.2C129.8,122.8,130.1,122.2,130.1,121.8z M122.6,99c0.9-0.7,1.2-2,0.8-3
	c-0.4-1-1.4-1.3-2.3-0.6c-0.9,0.7-1.3,2.1-0.9,3.1C120.7,99.4,121.7,99.6,122.6,99z M117.7,87.5c1-0.7,1.4-2.3,0.8-3.5
	c-0.6-1.2-1.9-1.6-2.9-0.9c-1.1,0.7-1.4,2.3-0.8,3.6C115.3,87.9,116.6,88.3,117.7,87.5z M108.7,70.1c-1.2,0.7-1.6,2.5-0.8,3.9
	c0.8,1.4,2.4,1.9,3.6,1.2c1.2-0.7,1.5-2.5,0.8-3.9C111.5,69.9,109.9,69.4,108.7,70.1z M96.7,50.7c1.5-0.7,1.8-2.4,0.8-3.8
	c-1-1.4-3-2-4.4-1.3c-1.5,0.7-1.9,2.4-0.9,3.8C93.2,50.8,95.2,51.4,96.7,50.7z M72.8,22.2c-1.6,0.5-2.3,1.6-1.5,2.4
	c0.9,0.8,2.9,1.1,4.6,0.5c1.7-0.6,2.2-1.6,1.3-2.4C76.4,21.9,74.4,21.7,72.8,22.2z M68.1,18.6c-1.6,0.5-2.3,1.3-1.6,1.8
	c0.7,0.6,2.7,0.6,4.4,0.1c1.6-0.5,2.3-1.3,1.5-1.9C71.5,18.2,69.6,18.2,68.1,18.6z M122.9,132.7c-0.4,0.3-0.7,0.7-0.7,0.9
	c0,0.2,0.4,0.1,0.7-0.2c0.4-0.3,0.7-0.7,0.7-0.9C123.7,132.3,123.3,132.4,122.9,132.7z M122,128.1c-0.5,0.4-0.9,1-0.8,1.3
	c0.1,0.3,0.6,0.2,1.1-0.2c0.5-0.4,0.9-1,0.8-1.3C123,127.6,122.5,127.7,122,128.1z M118.5,113.1c-0.3-0.7-1.2-0.9-2.1-0.3
	c-0.8,0.6-1.3,1.7-1,2.4c0.3,0.7,1.2,0.8,2.1,0.2C118.4,115,118.8,113.9,118.5,113.1z M114.3,102.7c-0.5-1-1.7-1.3-2.7-0.6
	c-1,0.7-1.5,2.1-1,3.1c0.5,1,1.7,1.2,2.7,0.5C114.3,105.1,114.8,103.7,114.3,102.7z M105.4,89.7c-1.2,0.8-1.6,2.4-1,3.7
	c0.7,1.2,2.1,1.6,3.3,0.9c1.2-0.8,1.6-2.4,1-3.6C108.1,89.4,106.6,89,105.4,89.7z M90.3,63c-1.5,0.8-2,2.8-1.1,4.3
	c0.9,1.5,2.9,2.1,4.4,1.3c1.5-0.8,2-2.8,1-4.3C93.7,62.8,91.8,62.2,90.3,63z M86,56.1c1.6-0.8,2.1-2.7,1.1-4.2c-1-1.5-3.1-2-4.7-1.2
	c-1.6,0.8-2.2,2.7-1.2,4.2C82.2,56.4,84.3,57,86,56.1z M79.9,41.1c-1-1.3-3.1-1.8-4.8-1c-1.7,0.8-2.3,2.5-1.4,3.9
	c1,1.4,3.1,1.9,4.9,1C80.3,44.2,80.9,42.4,79.9,41.1z M68.8,31.7c-1.7,0.7-2.4,2.3-1.6,3.4c0.9,1.2,3,1.5,4.8,0.7
	c1.7-0.8,2.4-2.3,1.5-3.5C72.5,31.3,70.4,31,68.8,31.7z M58.3,20.6c1.7-0.7,2.5-1.5,2-1.8c-0.5-0.3-2.2-0.1-3.7,0.6
	c-1.6,0.6-2.5,1.4-2.1,1.8C55,21.5,56.7,21.3,58.3,20.6z M116.6,141.5c-0.2,0.1-0.3,0.2-0.4,0.3c0.2-0.2,0.5-0.3,0.7-0.5
	C116.9,141.3,116.8,141.4,116.6,141.5z M116.5,140.4c-0.3,0.2-0.6,0.4-0.5,0.5c0,0.1,0.3,0,0.6-0.2c0.3-0.2,0.5-0.4,0.5-0.5
	C117,140,116.8,140.1,116.5,140.4z M115.6,137.9c-0.4,0.3-0.7,0.6-0.7,0.8c0.1,0.2,0.5,0.1,0.9-0.2c0.4-0.3,0.7-0.6,0.7-0.8
	C116.4,137.5,116,137.6,115.6,137.9z M113.8,133.8c-0.6,0.4-0.9,0.9-0.8,1.2c0.1,0.3,0.7,0.2,1.3-0.2c0.6-0.4,0.9-0.9,0.8-1.2
	C114.9,133.4,114.4,133.4,113.8,133.8z M110.9,127.7c-0.7,0.5-1.2,1.2-0.9,1.7c0.2,0.5,1,0.5,1.7,0c0.7-0.5,1.1-1.2,0.9-1.7
	C112.4,127.3,111.6,127.3,110.9,127.7z M105.7,121.8c0.4,0.7,1.4,0.8,2.3,0.2c0.9-0.6,1.3-1.6,1-2.3c-0.4-0.7-1.4-0.8-2.3-0.3
	C105.7,120,105.3,121.1,105.7,121.8z M104,109.6c-0.5-1-1.8-1.3-3-0.6c-1.1,0.7-1.6,2-1,3c0.5,1,1.9,1.2,3,0.5
	C104,111.9,104.5,110.5,104,109.6z M94.2,96.6c-1.3,0.8-1.8,2.4-1.1,3.7c0.7,1.2,2.3,1.6,3.6,0.9c1.3-0.8,1.8-2.4,1.1-3.6
	C97.1,96.3,95.5,95.9,94.2,96.6z M89.6,88.4c1.4-0.8,1.9-2.7,1.1-4.2c-0.8-1.5-2.7-2-4.1-1.1c-1.5,0.8-2,2.7-1.1,4.2
	C86.3,88.8,88.2,89.3,89.6,88.4z M82,75.2c1.6-0.9,2.1-2.9,1.2-4.5c-0.9-1.6-3-2.1-4.5-1.2c-1.6,0.9-2.1,2.9-1.2,4.5
	C78.3,75.6,80.4,76.1,82,75.2z M74.4,62.4c1.7-0.9,2.3-3,1.3-4.6c-1-1.5-3.1-2-4.7-1.1c-1.7,0.9-2.3,3-1.4,4.5
	C70.6,62.8,72.7,63.3,74.4,62.4z M67.4,50.8c1.8-1,2.4-2.9,1.5-4.3c-0.9-1.4-3-1.8-4.7-0.9c-1.7,0.9-2.4,2.8-1.6,4.3
	C63.5,51.3,65.6,51.8,67.4,50.8z M58.5,36.7c-1.7,0.9-2.5,2.6-1.8,3.8c0.8,1.3,2.8,1.5,4.6,0.5c1.8-0.9,2.5-2.7,1.7-3.9
	C62.2,36,60.2,35.8,58.5,36.7z M54.1,30.1c-1.7,0.9-2.6,2.4-2,3.3c0.6,1,2.5,1,4.3,0.1c1.8-0.9,2.6-2.4,1.9-3.4
	C57.7,29.2,55.8,29.2,54.1,30.1z M51,25.6c-1.6,0.8-2.6,2.1-2.2,2.7c0.5,0.7,2.2,0.6,3.9-0.3c1.7-0.9,2.6-2.1,2.1-2.8
	C54.3,24.6,52.6,24.8,51,25.6z M50.1,24.4c1.6-0.8,2.6-1.9,2.2-2.3c-0.4-0.4-1.9,0-3.5,0.8c-1.5,0.8-2.6,1.8-2.3,2.2
	C46.9,25.6,48.4,25.3,50.1,24.4z M106.4,138.8c-0.2-0.3-0.8-0.2-1.4,0.1c-0.6,0.3-0.9,0.8-0.8,1c0.2,0.2,0.8,0.2,1.4-0.1
	C106.3,139.5,106.6,139,106.4,138.8z M103.1,133.4c-0.3-0.4-1.2-0.5-1.9-0.1c-0.8,0.4-1.2,1.1-0.9,1.5c0.3,0.4,1.2,0.5,1.9,0.1
	C103,134.5,103.4,133.8,103.1,133.4z M82.5,103.4c-1.3,0.7-1.8,2.3-1,3.6c0.7,1.2,2.4,1.6,3.7,0.9c1.3-0.7,1.8-2.3,1.1-3.5
	C85.5,103.1,83.8,102.7,82.5,103.4z M62.7,69.1c1.7-1,2.3-3.1,1.4-4.7c-0.9-1.6-3-2.1-4.6-1.1c-1.6,1-2.3,3.1-1.4,4.7
	C59,69.6,61,70.1,62.7,69.1z M56.2,57.3c1.7-1.1,2.4-3.1,1.6-4.6c-0.8-1.5-2.8-1.8-4.5-0.8c-1.7,1-2.4,3-1.6,4.5
	C52.5,57.9,54.5,58.3,56.2,57.3z M44.9,35.4c-1.6,1-2.5,2.7-2.1,3.7c0.5,1.1,2.2,1.1,3.9,0c1.7-1.1,2.6-2.8,2-3.8
	C48.2,34.4,46.5,34.4,44.9,35.4z M100.6,146.1c-0.1-0.1-0.6,0-1.1,0.1c-0.5,0.2-0.7,0.4-0.6,0.5c0.1,0.1,0.6,0,1.1-0.1
	C100.4,146.4,100.7,146.2,100.6,146.1z M97.5,143c-0.2-0.2-0.9-0.2-1.5,0c-0.6,0.2-0.9,0.6-0.7,0.9c0.2,0.2,0.9,0.2,1.5,0
	C97.4,143.7,97.7,143.3,97.5,143z M87.3,133.1c0.9-0.4,1.3-1.3,0.8-1.9c-0.5-0.6-1.7-0.8-2.6-0.4c-0.9,0.4-1.3,1.3-0.8,1.9
	C85.2,133.3,86.3,133.5,87.3,133.1z M73.7,113.9c1.3-0.6,1.7-2.1,0.9-3.3c-0.8-1.2-2.4-1.6-3.7-1c-1.3,0.7-1.6,2.1-0.9,3.3
	C70.8,114.1,72.5,114.6,73.7,113.9z M55.4,83.2c-1.5,0.9-1.9,2.9-1.1,4.4c0.9,1.6,2.8,2.1,4.2,1.3c1.5-0.9,2-2.9,1.1-4.5
	C58.8,82.8,56.8,82.3,55.4,83.2z M48.6,70.2c-1.5,1-2.1,3.1-1.3,4.7c0.8,1.6,2.7,2.1,4.2,1.1c1.6-1,2.1-3.1,1.3-4.7
	C52,69.7,50.1,69.2,48.6,70.2z M39,48.9c-1.5,1.1-2.3,3-1.8,4.4c0.5,1.4,2.2,1.6,3.7,0.5c1.6-1.1,2.4-3.1,1.8-4.5
	C42.2,48,40.5,47.8,39,48.9z M34.9,35.9c-1.4,1.1-2.4,2.6-2.2,3.5c0.2,0.9,1.5,0.7,2.9-0.4c1.5-1.1,2.5-2.8,2.2-3.6
	C37.6,34.6,36.3,34.8,34.9,35.9z M94.6,150.3c-0.3,0.1-0.5,0.2-0.4,0.2c0.1,0,0.5,0,0.8-0.1c0.3-0.1,0.5-0.2,0.4-0.2
	C95.3,150.1,94.9,150.2,94.6,150.3z M87,146.3c-0.6,0.2-0.8,0.5-0.6,0.7c0.3,0.2,1,0.2,1.6,0c0.6-0.2,0.8-0.5,0.6-0.7
	C88.3,146.1,87.6,146.1,87,146.3z M71.1,126.8c-0.7-0.9-2-1.2-3.1-0.8c-1,0.4-1.3,1.5-0.6,2.3c0.7,0.8,2,1.2,3,0.8
	C71.4,128.7,71.7,127.7,71.1,126.8z M63,119.1c1.2-0.5,1.5-1.9,0.7-3c-0.8-1.1-2.3-1.6-3.5-1.1c-1.1,0.5-1.4,1.9-0.7,3
	C60.3,119.2,61.8,119.7,63,119.1z M55.3,107.6c1.3-0.7,1.6-2.3,0.8-3.7c-0.8-1.4-2.5-1.9-3.8-1.2c-1.2,0.7-1.5,2.3-0.7,3.7
	C52.4,107.7,54.1,108.3,55.3,107.6z M41.5,82.7c1.4-0.9,1.9-3,1.1-4.6c-0.8-1.6-2.4-2.1-3.8-1.1c-1.3,0.9-1.8,3-1.1,4.5
	C38.5,83,40.2,83.6,41.5,82.7z M28.8,47.7c-1.2,1.1-2,3-1.8,4.1c0.2,1.2,1.4,1.2,2.8,0.1c1.3-1.2,2.2-3.1,1.9-4.2
	C31.3,46.5,30,46.6,28.8,47.7z M28.1,40c1.2-1.2,2.2-2.7,2.3-3.3c0-0.6-0.9-0.2-2,0.9c-1.1,1.1-2.1,2.5-2.2,3.2
	C26,41.5,26.9,41.2,28.1,40z M87.5,151.9c-0.3,0-0.5,0.1-0.3,0.1c0.1,0,0.5,0,0.8-0.1c0.3-0.1,0.5-0.1,0.3-0.1
	C88.2,151.8,87.8,151.8,87.5,151.9z M83.5,150.8c-0.4,0.1-0.6,0.2-0.4,0.3c0.2,0.1,0.7,0.1,1.1,0c0.4-0.1,0.6-0.2,0.4-0.3
	C84.5,150.8,84,150.8,83.5,150.8z M80.2,148.5c-0.3-0.2-1-0.3-1.6-0.1c-0.5,0.1-0.7,0.3-0.4,0.5c0.3,0.2,1,0.2,1.5,0.1
	C80.3,149,80.5,148.7,80.2,148.5z M72.7,144.2c-0.7,0.1-0.9,0.5-0.4,0.9c0.4,0.3,1.3,0.5,2,0.3c0.7-0.1,0.9-0.5,0.4-0.9
	C74.3,144.2,73.4,144,72.7,144.2z M67.9,140c0.8-0.2,1-0.8,0.4-1.4c-0.6-0.6-1.7-0.8-2.5-0.6c-0.8,0.2-1,0.8-0.4,1.4
	C66.1,139.9,67.2,140.2,67.9,140z M60.9,132.6c0.9-0.3,1.1-1.2,0.4-2c-0.7-0.8-2-1.2-2.9-0.9c-0.9,0.3-1.1,1.2-0.4,2
	C58.7,132.5,60,132.8,60.9,132.6z M53.4,123.3c1-0.4,1.2-1.6,0.4-2.6c-0.8-1.1-2.2-1.6-3.2-1.2c-1,0.4-1.1,1.6-0.4,2.7
	C51,123.1,52.4,123.7,53.4,123.3z M46,112.5c1.1-0.5,1.3-2,0.5-3.3c-0.8-1.3-2.3-1.9-3.4-1.3c-1,0.6-1.2,2-0.4,3.3
	C43.4,112.4,44.9,113,46,112.5z M39,100.7c1.1-0.7,1.4-2.4,0.6-3.9c-0.8-1.5-2.3-2.1-3.4-1.3c-1.1,0.7-1.3,2.4-0.5,3.9
	C36.4,100.7,37.9,101.4,39,100.7z M33,88.7c1.1-0.8,1.5-2.8,0.8-4.3c-0.7-1.5-2.1-2.1-3.2-1.2c-1.1,0.9-1.4,2.8-0.8,4.2
	C30.5,89,31.9,89.6,33,88.7z M29.3,72.8c-0.5-1.5-1.8-1.9-2.9-0.9c-1,1-1.5,2.9-1,4.4c0.5,1.5,1.8,1.9,2.9,1
	C29.4,76.4,29.9,74.3,29.3,72.8z M22.5,66.5c0.3,1.4,1.4,1.7,2.5,0.6c1.1-1.1,1.7-3.1,1.3-4.5c-0.4-1.3-1.5-1.5-2.6-0.5
	C22.7,63.2,22.1,65.1,22.5,66.5z M22.5,54.1c-1,1.1-1.7,2.9-1.6,4.1c0.1,1.2,1.1,1.3,2.1,0.2c1.1-1.2,1.8-3.1,1.6-4.3
	C24.5,53,23.5,53,22.5,54.1z M22.3,47.8c-1,1.1-1.8,2.8-1.8,3.8c0,1,0.7,0.9,1.8-0.2c1-1.2,1.9-3,1.9-3.9
	C24.1,46.5,23.3,46.7,22.3,47.8z M22.5,45.9c1-1.2,1.9-2.8,2.1-3.5c0.1-0.7-0.6-0.3-1.5,0.8c-0.9,1.1-1.8,2.6-2,3.4
	C20.9,47.4,21.6,47.1,22.5,45.9z M71,149.5c-0.5,0-0.6,0.2-0.3,0.4c0.3,0.2,1,0.3,1.5,0.2c0.5,0,0.6-0.2,0.3-0.4
	C72.1,149.6,71.5,149.5,71,149.5z M52.7,134.9c0.8-0.2,0.8-0.9,0.2-1.7c-0.7-0.7-1.8-1.2-2.6-1c-0.7,0.2-0.8,1-0.1,1.7
	C50.8,134.6,51.9,135.1,52.7,134.9z M45.4,126.3c0.8-0.3,0.9-1.3,0.2-2.3c-0.7-1-2-1.5-2.8-1.2c-0.8,0.3-0.8,1.3-0.1,2.3
	C43.3,126,44.6,126.6,45.4,126.3z M35.5,111.9c-0.8,0.4-0.9,1.7-0.1,2.9c0.7,1.2,2,1.8,2.8,1.4c0.9-0.4,0.9-1.7,0.2-2.9
	C37.6,112.1,36.3,111.5,35.5,111.9z M24,88.8c-0.8,0.7-1,2.5-0.4,3.9c0.6,1.4,1.7,2,2.6,1.3c0.9-0.7,1.1-2.5,0.5-4
	C26.1,88.6,24.9,88,24,88.8z M17.5,60.3c-0.7,1.1-1.3,2.8-1.2,4c0.1,1.2,0.8,1.4,1.5,0.3c0.8-1.1,1.4-3,1.3-4.2
	C19,59.2,18.3,59.2,17.5,60.3z M18.1,51.8c0.8-1.2,1.6-2.8,1.8-3.6c0.2-0.8-0.3-0.5-1,0.7c-0.7,1.1-1.5,2.6-1.7,3.4
	C17,53.1,17.4,52.9,18.1,51.8z M64.2,149.7c-0.4,0-0.5,0.1-0.1,0.3c0.3,0.2,1,0.3,1.4,0.3c0.4,0,0.5-0.1,0.1-0.3
	C65.3,149.9,64.7,149.7,64.2,149.7z M50.9,140.8c-0.6,0-0.5,0.5,0,0.9c0.6,0.5,1.5,0.8,2,0.8c0.6,0,0.6-0.4,0-0.9
	C52.4,141.1,51.5,140.8,50.9,140.8z M38.9,128.3c0.6-0.2,0.6-1-0.1-1.9c-0.7-0.9-1.8-1.5-2.4-1.3c-0.6,0.2-0.5,1.1,0.1,2
	C37.2,127.9,38.3,128.4,38.9,128.3z M23.8,104.3c-0.6,0.5-0.6,1.8,0.1,3.1c0.6,1.2,1.6,1.9,2.3,1.5c0.6-0.4,0.6-1.8,0-3.1
	C25.4,104.5,24.4,103.9,23.8,104.3z M19.1,97.1c0.5,1.3,1.4,2,2,1.4c0.6-0.6,0.7-2.2,0.1-3.6c-0.5-1.4-1.5-2-2.1-1.3
	C18.6,94.2,18.6,95.7,19.1,97.1z M13.7,77.9c0.2,1.3,0.8,1.7,1.4,0.9c0.6-0.9,0.9-2.7,0.7-4c-0.2-1.3-0.8-1.6-1.4-0.7
	C13.7,74.9,13.5,76.6,13.7,77.9z M52.2,146.1c0.5,0.3,1.1,0.5,1.5,0.6c0.4,0.1,0.4-0.1-0.1-0.4c-0.5-0.3-1.2-0.5-1.6-0.6
	C51.7,145.7,51.8,145.9,52.2,146.1z M33.6,127.7c-0.7-0.8-1.6-1.4-2-1.3c-0.4,0.1-0.3,0.8,0.4,1.6c0.6,0.8,1.5,1.4,2,1.3
	C34.4,129.2,34.3,128.5,33.6,127.7z M16,100.5c0.5,1.2,1.2,1.9,1.6,1.4c0.4-0.5,0.4-1.9-0.1-3.2c-0.5-1.3-1.2-1.9-1.6-1.4
	C15.5,97.9,15.6,99.3,16,100.5z M13.1,87.8c-0.3,0.6-0.4,2.2-0.1,3.4c0.3,1.3,0.9,1.8,1.3,1.2c0.4-0.6,0.4-2.2,0.1-3.5
	C14,87.7,13.5,87.2,13.1,87.8z M53.7,147.9c-0.3-0.1-0.2-0.1,0.1,0.1c0.3,0.1,0.9,0.3,1.1,0.4c0.3,0.1,0.2,0.1-0.1-0.1
	C54.5,148.2,54,148,53.7,147.9z M28.7,128.3c0.6,0.7,1.3,1.3,1.7,1.3c0.3,0,0.1-0.6-0.5-1.4c-0.6-0.8-1.4-1.4-1.7-1.3
	C27.9,127,28.1,127.6,28.7,128.3z M13.9,100.5c-0.2,0.4,0,1.6,0.4,2.7c0.4,1.1,0.9,1.8,1.2,1.5c0.2-0.3,0.1-1.6-0.4-2.8
	C14.6,100.7,14.1,100.1,13.9,100.5z M11.4,91.6c-0.2,0.5-0.1,1.9,0.2,3c0.3,1.2,0.7,1.8,0.9,1.3c0.2-0.5,0.1-1.9-0.2-3.1
	C12,91.6,11.6,91.1,11.4,91.6z M27.3,128.2c-0.6-0.7-1.2-1.3-1.4-1.3c-0.2,0,0.1,0.5,0.6,1.2c0.5,0.7,1.2,1.2,1.4,1.3
	C28.1,129.4,27.9,128.9,27.3,128.2z M16.3,111.3c-0.1,0.2,0.2,1.1,0.7,2c0.5,0.9,1,1.6,1.1,1.5c0.1-0.1-0.2-1-0.6-2
	C16.9,111.7,16.4,111.1,16.3,111.3z M14.3,106.7c0.1-0.3-0.2-1.3-0.6-2.4c-0.4-1.1-0.8-1.7-0.8-1.4c-0.1,0.3,0.2,1.4,0.6,2.4
	C13.9,106.3,14.3,107,14.3,106.7z M137.6,115.6c-0.3,0.4-0.6,1-0.6,1.3c0,0.3,0.2,0.3,0.5-0.2c0.3-0.4,0.6-1,0.6-1.3
	C138.2,115.1,138,115.2,137.6,115.6z M130.2,80c-0.7,0.6-1,2.1-0.5,3.2c0.4,1.1,1.4,1.5,2.1,0.8c0.7-0.6,0.9-2,0.5-3.1
	C131.9,79.8,131,79.4,130.2,80z M127.1,72.8c0.8-0.6,1-2.2,0.4-3.4c-0.6-1.3-1.8-1.8-2.7-1.2c-0.9,0.6-1.1,2.2-0.5,3.5
	C125,72.9,126.2,73.4,127.1,72.8z M118.2,56.1c-1,0.6-1.2,2.2-0.4,3.6c0.8,1.4,2.3,2.1,3.3,1.5c1-0.6,1.1-2.2,0.3-3.5
	C120.6,56.3,119.2,55.6,118.2,56.1z M88.6,21.3c-1.4,0.3-1.8,1.1-0.8,2c1.1,0.9,3.1,1.4,4.6,1.1c1.4-0.3,1.7-1.2,0.6-2
	C92,21.5,90,21.1,88.6,21.3z M76.3,16c0.9,0.4,2.8,0.5,4.3,0.3c1.5-0.2,1.9-0.6,1-1c-0.9-0.3-2.7-0.4-4.1-0.3
	C76,15.3,75.5,15.7,76.3,16z M130.9,129.1c-0.2,0.2-0.4,0.5-0.5,0.6c0,0,0,0,0,0c0.2-0.3,0.5-0.5,0.7-0.8c0,0,0,0,0-0.1
	C131.2,128.8,131.1,128.9,130.9,129.1z M132,126.1c-0.3,0.3-0.6,0.7-0.6,0.9c0,0.2,0.2,0.1,0.5-0.3c0.3-0.3,0.6-0.7,0.6-0.9
	C132.5,125.7,132.3,125.8,132,126.1z M125.3,86.8c-0.5-1.2-1.6-1.5-2.5-0.9c-0.9,0.7-1.3,2.2-0.8,3.4c0.5,1.2,1.6,1.5,2.6,0.8
	C125.4,89.5,125.8,88,125.3,86.8z M119.3,78.4c1.1-0.7,1.4-2.4,0.7-3.7c-0.7-1.4-2.1-1.9-3.2-1.2c-1.1,0.7-1.4,2.4-0.7,3.8
	C116.7,78.6,118.2,79.1,119.3,78.4z M105.5,54.1c1.4-0.7,1.6-2.4,0.7-3.9c-1-1.4-2.9-2.1-4.2-1.5c-1.4,0.6-1.7,2.4-0.8,3.9
	C102.2,54.1,104.1,54.8,105.5,54.1z M73.1,20.9c0.9,0.7,3,0.9,4.6,0.4c1.6-0.4,2.2-1.3,1.2-2c-0.9-0.6-2.9-0.8-4.5-0.4
	C72.9,19.4,72.3,20.2,73.1,20.9z M125.2,134.7c0,0.1,0.1-0.1,0.4-0.3c0.3-0.2,0.5-0.5,0.5-0.5c0-0.1-0.1,0.1-0.4,0.3
	C125.5,134.4,125.2,134.6,125.2,134.7z M126.3,131.6c-0.4,0.3-0.6,0.7-0.7,0.8c0,0.2,0.3,0,0.6-0.3c0.3-0.3,0.6-0.7,0.7-0.8
	C126.9,131.2,126.6,131.3,126.3,131.6z M123.5,116.5c0.7-0.6,1.1-1.6,0.9-2.3c-0.2-0.7-1-0.7-1.7-0.1c-0.8,0.6-1.2,1.6-1,2.3
	C121.9,117,122.7,117.1,123.5,116.5z M121.2,104.6c-0.4-0.9-1.4-1.1-2.3-0.5c-0.9,0.7-1.4,2-1,2.9c0.4,0.9,1.4,1.1,2.3,0.4
	C121.2,106.9,121.6,105.6,121.2,104.6z M102.9,71.9c1.4-0.8,1.8-2.7,0.9-4.3c-0.9-1.5-2.8-2.1-4.2-1.3c-1.4,0.8-1.9,2.7-1,4.3
	C99.6,72.2,101.5,72.8,102.9,71.9z M87.7,47.7c1.7-0.8,2.1-2.6,1.1-4.1c-1-1.4-3.2-2-4.8-1.2c-1.7,0.8-2.2,2.6-1.2,4
	C83.8,48,86,48.5,87.7,47.7z M69.2,29.4c0.9,1,3.1,1.3,4.9,0.6c1.8-0.7,2.4-2.1,1.4-3.1c-0.9-0.9-3-1.2-4.7-0.6
	C69.1,27,68.4,28.4,69.2,29.4z M60,20.6c0.6,0.5,2.5,0.4,4.3-0.2c1.7-0.6,2.5-1.4,1.8-1.9c-0.7-0.4-2.5-0.3-4.1,0.3
	C60.4,19.3,59.5,20.2,60,20.6z M118.8,133.4c-0.5,0.4-0.9,0.9-0.8,1.1c0.1,0.2,0.6,0.1,1.1-0.2c0.5-0.4,0.9-0.9,0.8-1.1
	C119.8,132.9,119.3,133,118.8,133.4z M115.7,120.8c-0.3-0.7-1.2-0.7-2-0.1c-0.9,0.6-1.3,1.6-1,2.2c0.3,0.6,1.2,0.7,2,0.1
	C115.6,122.4,116,121.4,115.7,120.8z M80.5,59.5c-1.7,0.9-2.3,3-1.3,4.6c1,1.7,3.2,2.2,4.9,1.3c1.7-0.9,2.2-3,1.2-4.6
	C84.3,59.2,82.1,58.6,80.5,59.5z M64.8,42c0.9,1.4,3.1,1.8,5,0.8c1.8-0.9,2.5-2.7,1.6-4.1c-0.9-1.3-3.1-1.6-4.9-0.8
	C64.7,38.9,63.9,40.7,64.8,42z M107.9,133.7c-0.7,0.4-1.1,1.1-0.9,1.5c0.2,0.4,1,0.3,1.7-0.1c0.7-0.4,1.1-1.1,0.9-1.4
	C109.4,133.3,108.6,133.3,107.9,133.7z M65.1,59.7c1.8-1,2.5-3.2,1.5-4.8c-0.9-1.6-3.1-2-4.9-1c-1.7,1-2.4,3.1-1.6,4.7
	C61.1,60.2,63.3,60.7,65.1,59.7z M49.2,39.6c0.6,1.2,2.6,1.3,4.4,0.3c1.8-1,2.7-2.8,1.9-4c-0.7-1.1-2.6-1.2-4.4-0.2
	C49.5,36.7,48.6,38.5,49.2,39.6z M103.5,142.8c-0.2-0.2-0.8-0.1-1.4,0.1c-0.6,0.3-0.9,0.6-0.7,0.8c0.2,0.2,0.8,0.1,1.4-0.1
	C103.3,143.4,103.7,143,103.5,142.8z M95.1,134.3c0.9-0.4,1.3-1.3,0.9-1.8c-0.4-0.6-1.5-0.7-2.4-0.2c-0.9,0.4-1.3,1.3-0.9,1.8
	C93.1,134.6,94.2,134.7,95.1,134.3z M57.2,73c-1.6,1-2.2,3.2-1.3,4.8c0.9,1.7,3,2.2,4.6,1.3c1.7-1,2.2-3.2,1.3-4.9
	C60.9,72.5,58.9,71.9,57.2,73z M45.6,50c-1.6,1.1-2.4,3.2-1.8,4.6c0.7,1.5,2.6,1.8,4.3,0.7c1.7-1.1,2.5-3.3,1.8-4.7
	C49.2,49.2,47.3,48.9,45.6,50z M39.4,35.4c-1.5,1.1-2.5,2.7-2.2,3.7c0.3,1,1.9,0.9,3.5-0.2c1.6-1.1,2.6-2.8,2.2-3.8
	C42.6,34.2,41,34.3,39.4,35.4z M96.9,148.6c-0.4,0.1-0.7,0.3-0.5,0.4c0.1,0.1,0.6,0,1-0.2c0.4-0.1,0.7-0.3,0.5-0.4
	C97.8,148.4,97.3,148.4,96.9,148.6z M79,131.4c1-0.4,1.4-1.4,0.8-2.2c-0.6-0.8-2-1.1-3-0.6c-1,0.4-1.4,1.5-0.8,2.2
	C76.6,131.5,77.9,131.8,79,131.4z M56.8,98.6c1.4-0.8,1.9-2.8,1-4.3c-0.9-1.6-2.8-2.1-4.2-1.3c-1.4,0.8-1.8,2.8-0.9,4.3
	C53.5,98.8,55.4,99.4,56.8,98.6z M33.4,48c-1.4,1.1-2.2,3.1-1.9,4.4c0.4,1.3,1.9,1.5,3.4,0.3c1.5-1.2,2.4-3.2,1.9-4.5
	C36.3,46.9,34.8,46.9,33.4,48z M28.9,40c0,0.8,1.1,0.5,2.5-0.6c1.4-1.2,2.4-2.8,2.3-3.6c-0.1-0.7-1.2-0.4-2.6,0.8
	C29.9,37.7,28.9,39.2,28.9,40z M92.5,151.3c-0.3,0.1-0.5,0.1-0.4,0.1c0.1,0,0.4-0.1,0.8-0.1c0.3-0.1,0.5-0.1,0.4-0.1
	C93.1,151.2,92.8,151.2,92.5,151.3z M62.4,123.8c-0.8-1-2.3-1.5-3.3-1c-1.1,0.5-1.3,1.6-0.5,2.6c0.8,1,2.2,1.4,3.3,1
	C62.9,126,63.2,124.8,62.4,123.8z M54.9,112.6c-0.8-1.3-2.5-1.9-3.6-1.3c-1.1,0.6-1.4,2.1-0.6,3.3c0.8,1.2,2.4,1.8,3.6,1.3
	C55.4,115.4,55.7,113.9,54.9,112.6z M25.1,47.5c-1.1,1.2-2,3-1.9,4.1c0.1,1.1,1.1,1.1,2.3-0.1c1.2-1.2,2.1-3.1,1.9-4.2
	C27.3,46.2,26.3,46.4,25.1,47.5z M23.1,46c-0.1,0.9,0.8,0.7,1.9-0.5c1.2-1.2,2.1-2.9,2.2-3.8c0-0.8-0.9-0.5-2,0.7
	C24.2,43.5,23.2,45.1,23.1,46z M85.8,152.4c-0.2,0-0.3,0-0.3,0c0.4,0,0.8-0.1,1.1-0.1c0,0,0,0,0,0C86.4,152.3,86.1,152.4,85.8,152.4
	z M52.9,129.6c0.9-0.3,1.1-1.3,0.3-2.2c-0.8-1-2.1-1.5-3-1.1c-0.9,0.3-1,1.3-0.3,2.3C50.7,129.4,52,129.9,52.9,129.6z M45.5,119.9
	c1-0.4,1.1-1.7,0.3-2.9c-0.8-1.2-2.3-1.8-3.2-1.3c-0.9,0.4-1.1,1.8-0.3,2.9C43.1,119.7,44.6,120.3,45.5,119.9z M19.7,53.7
	c-0.9,1.1-1.6,2.9-1.6,4.1c0,1.2,0.8,1.2,1.7,0c1-1.2,1.7-3.1,1.6-4.2C21.4,52.5,20.6,52.6,19.7,53.7z M18.5,51.9
	c-0.2,1,0.4,0.8,1.4-0.4c0.9-1.2,1.8-3,1.9-3.9c0.1-0.9-0.5-0.6-1.4,0.6C19.5,49.3,18.6,51,18.5,51.9z M52.8,137.8
	c-0.7-0.6-1.8-1.1-2.4-0.9c-0.7,0.1-0.7,0.7,0,1.3c0.6,0.6,1.7,1,2.4,0.9C53.4,139.1,53.5,138.5,52.8,137.8z M31.7,112.6
	c0.8-0.4,0.8-1.9,0.1-3.2c-0.7-1.3-2-2-2.7-1.5c-0.7,0.5-0.7,1.9,0,3.1C29.8,112.3,31,113,31.7,112.6z M15.6,66.9
	c-0.7,1-1.1,2.8-1,4.1c0.1,1.3,0.8,1.6,1.5,0.6c0.7-1,1.2-3,1-4.3C17,66.1,16.3,65.9,15.6,66.9z M51.4,143.6c-0.5,0-0.5,0.3,0.1,0.7
	c0.5,0.4,1.4,0.7,1.9,0.7c0.5,0,0.5-0.3,0-0.6C52.7,143.9,51.9,143.6,51.4,143.6z M19.4,103.9c0.6,1.3,1.5,2,2,1.5
	c0.6-0.5,0.5-1.9-0.1-3.3c-0.6-1.3-1.5-2-2-1.5C18.8,101.1,18.9,102.6,19.4,103.9z M13.1,84.7c0.3,1.3,0.9,1.8,1.4,1.1
	c0.5-0.8,0.7-2.5,0.4-3.9c-0.3-1.4-0.9-1.8-1.4-1C13,81.6,12.8,83.3,13.1,84.7z M58.8,149.7C58.5,149.6,58.5,149.7,58.8,149.7
	c0.4,0.2,0.9,0.3,1.2,0.4c0.3,0.1,0.3,0.1,0,0C59.7,150,59.2,149.8,58.8,149.7z M54.3,147.6c-0.4-0.2-1.1-0.5-1.5-0.6
	c-0.4-0.1-0.3,0,0.1,0.2c0.4,0.2,1.1,0.4,1.4,0.5C54.7,148,54.7,147.9,54.3,147.6z M13.4,97.4c0.4,1.3,0.9,1.9,1.3,1.4
	c0.3-0.5,0.2-2-0.2-3.3c-0.4-1.3-1-1.9-1.3-1.3C12.9,94.8,13,96.2,13.4,97.4z M14.9,106.1c-0.2,0.3,0.1,1.4,0.6,2.5
	c0.5,1.1,1,1.8,1.2,1.6c0.2-0.2-0.1-1.4-0.6-2.5C15.6,106.4,15,105.8,14.9,106.1z M11,93.3c0.1-0.5,0-2-0.2-3.2
	c-0.2-1.2-0.5-1.7-0.6-1.1c-0.1,0.6,0,1.9,0.2,3.1C10.6,93.3,10.9,93.8,11,93.3z M17.9,115.6c-0.1,0.1,0.3,0.8,0.8,1.7
	c0.5,0.9,1,1.5,1.1,1.5c0.1,0-0.2-0.8-0.8-1.7C18.5,116.2,18,115.6,17.9,115.6z M128.4,123.3c0,0.3,0.4,0.3,0.9-0.2
	c0.4-0.4,0.8-1,0.7-1.4c0-0.3-0.4-0.3-0.9,0.1C128.7,122.4,128.4,123,128.4,123.3z M122.3,129.2c0.5-0.4,0.9-1,0.8-1.3
	c-0.1-0.3-0.6-0.3-1.1,0.2c-0.5,0.4-0.9,1-0.8,1.3C121.3,129.7,121.7,129.6,122.3,129.2z M117.6,115.6c0.8-0.6,1.2-1.7,0.9-2.4
	c-0.3-0.7-1.2-0.9-2.1-0.3c-0.8,0.6-1.3,1.7-1,2.4C115.8,116,116.8,116.2,117.6,115.6z M115.6,137.9c-0.4,0.3-0.7,0.6-0.7,0.7
	c0.5-0.3,1-0.7,1.5-1C116.3,137.6,115.9,137.7,115.6,137.9z M114.3,134.8c0.6-0.4,0.9-0.9,0.8-1.2c-0.1-0.3-0.7-0.2-1.3,0.1
	c-0.6,0.4-0.9,0.9-0.8,1.2C113.1,135.3,113.7,135.2,114.3,134.8z M111.7,129.4c0.7-0.5,1.1-1.2,0.9-1.7c-0.2-0.5-1-0.5-1.8,0
	c-0.7,0.5-1.2,1.2-0.9,1.7C110.2,129.9,111,129.9,111.7,129.4z M108,122c0.9-0.6,1.3-1.6,1-2.3c0-0.1-0.1-0.2-0.2-0.2
	c-1,0.8-2.1,1.5-3.2,2.2c0,0,0,0,0,0.1C106,122.5,107.1,122.6,108,122z M104.2,139.9c0.2,0.2,0.8,0.2,1.4-0.1c0.6-0.3,0.9-0.8,0.8-1
	c-0.2-0.3-0.8-0.2-1.4,0.1C104.4,139.2,104,139.7,104.2,139.9z M102.3,134.9c0.8-0.4,1.2-1.1,0.9-1.5c-0.3-0.4-1.2-0.5-1.9-0.1
	c-0.8,0.4-1.2,1.1-0.9,1.5C100.6,135.3,101.5,135.3,102.3,134.9z M95.3,143.9c0.2,0.2,0.9,0.2,1.5,0c0.6-0.2,0.9-0.6,0.7-0.9
	c-0.2-0.2-0.9-0.2-1.5,0C95.3,143.3,95,143.7,95.3,143.9z M87.3,133.1c0.9-0.4,1.3-1.3,0.8-1.9c-0.5-0.6-1.7-0.8-2.6-0.4
	c-0.9,0.4-1.3,1.3-0.8,1.9C85.2,133.3,86.3,133.5,87.3,133.1z M86.5,147c0.3,0.2,1,0.2,1.6,0c0.6-0.2,0.8-0.5,0.6-0.7
	c-0.3-0.2-1-0.2-1.6,0C86.5,146.4,86.2,146.8,86.5,147z M123.5,116.5c0.7-0.6,1.1-1.6,0.9-2.3c-0.2-0.7-1-0.7-1.7-0.1
	c-0.8,0.6-1.2,1.6-1,2.3C121.9,117,122.7,117.1,123.5,116.5z M121.3,105.5c-0.1,0.1-0.1,0.2-0.2,0.2c-0.3,0.6-0.7,1.3-1.1,1.9
	c0.1,0,0.1-0.1,0.2-0.1C120.9,107.1,121.3,106.3,121.3,105.5z M119,134.2c0.5-0.4,0.9-0.9,0.8-1.1c-0.1-0.3-0.5-0.2-1.1,0.2
	c-0.5,0.4-0.9,0.9-0.8,1.1C118,134.7,118.5,134.6,119,134.2z M114.7,122.9c0.8-0.6,1.3-1.5,1-2.2c-0.3-0.7-1.2-0.7-2-0.1
	c-0.9,0.6-1.3,1.6-1,2.2C113,123.5,113.9,123.5,114.7,122.9z M107.9,133.7c-0.7,0.4-1.1,1.1-0.9,1.5c0.2,0.4,1,0.3,1.7-0.1
	c0.7-0.4,1.1-1.1,0.9-1.4C109.4,133.3,108.6,133.3,107.9,133.7z M101.4,143.8c0.2,0.2,0.8,0.1,1.4-0.1c0.6-0.3,0.9-0.6,0.7-0.8
	c-0.2-0.2-0.8-0.1-1.4,0.1C101.5,143.2,101.2,143.6,101.4,143.8z M95.1,134.3c0.9-0.4,1.3-1.3,0.9-1.8c-0.4-0.6-1.5-0.7-2.4-0.2
	c-0.9,0.4-1.3,1.3-0.9,1.8C93.1,134.6,94.2,134.7,95.1,134.3z M79,131.4c0.1,0,0.2-0.1,0.3-0.1c-0.7,0-1.5,0-2.2,0
	c-0.1,0-0.3,0-0.4,0C77.3,131.6,78.2,131.7,79,131.4z"/>
<radialGradient id="SVGID_3_" cx="78.8121" cy="680.1525" r="74.3565" gradientTransform="matrix(1 0 0 0.2183 0 35.4281)" gradientUnits="userSpaceOnUse">
	<stop  offset="5.617980e-03" style="stop-color:#E9D1B7"/>
	<stop  offset="0.9326" style="stop-color:#FFFFFF"/>
</radialGradient>
<path class="st4" d="M153.2,183.9c0,9-33.3,16.2-74.4,16.2c-41.1,0-74.4-7.3-74.4-16.2c0-9,33.3-16.2,74.4-16.2
	C119.9,167.7,153.2,174.9,153.2,183.9z"/>
</svg>
