<?xml version="1.0" encoding="utf-8"?>
<!-- Generator: Adobe Illustrator 25.0.1, SVG Export Plug-In . SVG Version: 6.00 Build 0)  -->
<svg version="1.1" id="Layer_1" xmlns="http://www.w3.org/2000/svg" xmlns:xlink="http://www.w3.org/1999/xlink" x="0px" y="0px"
	 viewBox="0 0 135 135" style="enable-background:new 0 0 135 135;" xml:space="preserve">
<style type="text/css">
	.st0{fill:none;stroke:#824F9E;stroke-width:2;stroke-miterlimit:10;}
	.st1{fill:#8347AD;}
	.st2{fill:#824F9E;}
</style>
<g>
	<g>
		<circle class="st0" cx="67.5" cy="67.5" r="66"/>
	</g>
	<g>
		<path class="st1" d="M88.7,72.8c-0.6,0-1.1-0.5-1.1-1.1c0-4.3-3.5-7.7-7.7-7.7c-0.6,0-1.1-0.5-1.1-1.1c0-0.6,0.5-1.1,1.1-1.1
			c5.4,0,9.9,4.4,9.9,9.9C89.8,72.3,89.3,72.8,88.7,72.8z"/>
		<path class="st1" d="M46.3,72.8c-0.6,0-1.1-0.5-1.1-1.1c0-5.5,4.4-9.9,9.9-9.9c0.6,0,1.1,0.5,1.1,1.1c0,0.6-0.5,1.1-1.1,1.1
			c-4.2,0-7.7,3.5-7.7,7.7C47.4,72.3,46.9,72.8,46.3,72.8z"/>
		<path class="st1" d="M63.2,61.3c-0.4,0-0.8-0.2-1-0.6c-0.8-1.6-2.5-2.6-4.2-2.6c-0.6,0-1.1-0.5-1.1-1.1c0-0.6,0.5-1.1,1.1-1.1
			c2.6,0,4.9,1.4,6.1,3.7c0.3,0.5,0.1,1.2-0.5,1.5C63.5,61.2,63.3,61.3,63.2,61.3z"/>
		<path class="st2" d="M79.9,81.6H55.1c-5.4,0-9.9-4.4-9.9-9.9c0-3.9,2.3-7.5,5.9-9c0.1-3.7,3.2-6.7,6.9-6.7c1.1,0,2.2,0.3,3.2,0.8
			c2-4,6.2-6.6,10.7-6.6c6.6,0,12.1,5.4,12.1,12.1c0,0.2,0,0.3,0,0.5c3.5,1.6,5.9,5.1,5.9,9C89.8,77.2,85.4,81.6,79.9,81.6z
			 M58,58.1c-2.6,0-4.8,2.1-4.8,4.8c0,0.1,0,0.3,0,0.4l0.1,0.8l-0.8,0.3c-3.1,1.1-5.2,4-5.2,7.3c0,4.3,3.5,7.7,7.7,7.7h24.9
			c4.2,0,7.7-3.5,7.7-7.7c0-3.3-2.1-6.2-5.2-7.3l-0.8-0.3l0.1-0.9c0-0.4,0.1-0.7,0.1-1.1c0-5.5-4.4-9.9-9.9-9.9
			c-4.1,0-7.8,2.6-9.3,6.4l-0.5,1.4l-1.2-0.9C60.1,58.5,59.1,58.1,58,58.1z"/>
		<path class="st2" d="M46.5,57.1c-0.7-0.4-0.9-1.3-0.6-2l0,0c0.4-0.7,1.3-1,1.9-0.6l0,0c0.7,0.4,0.9,1.3,0.6,2l0,0
			c-0.3,0.4-0.7,0.7-1.3,0.7l0,0C46.9,57.3,46.7,57.2,46.5,57.1z M41.4,54.3c-0.7-0.4-1-1.3-0.6-2l0,0c0.4-0.7,1.3-0.9,1.9-0.5l0,0
			c0.7,0.4,0.9,1.3,0.6,2l0,0c-0.3,0.5-0.7,0.7-1.3,0.7l0,0C41.9,54.5,41.7,54.4,41.4,54.3z"/>
		<path class="st2" d="M67.5,32.8c-3.4,0-6.1-2.8-6.1-6.1s2.7-6.1,6.1-6.1s6.1,2.8,6.1,6.1S70.9,32.8,67.5,32.8z M67.5,23.4
			c-1.8,0-3.3,1.5-3.3,3.3c0,1.8,1.5,3.3,3.3,3.3c1.8,0,3.3-1.5,3.3-3.3C70.8,24.8,69.3,23.4,67.5,23.4z"/>
		<path class="st2" d="M31.6,93.9c-3.4,0-6.1-2.8-6.1-6.1c0-3.4,2.7-6.2,6.1-6.2s6.1,2.8,6.1,6.2C37.7,91.2,34.9,93.9,31.6,93.9z
			 M31.6,84.5c-1.8,0-3.3,1.5-3.3,3.3c0,1.8,1.5,3.3,3.3,3.3s3.3-1.5,3.3-3.3C34.8,86,33.3,84.5,31.6,84.5z"/>
		<path class="st2" d="M67.5,100.2c-0.4,0-0.7-0.2-1-0.4c-0.1-0.1-0.2-0.3-0.3-0.5c-0.1-0.2-0.1-0.3-0.1-0.5c0-0.2,0-0.4,0.1-0.6
			c0.1-0.2,0.2-0.3,0.3-0.5c0.6-0.5,1.6-0.5,2,0c0.3,0.3,0.4,0.6,0.4,1c0,0.2,0,0.3-0.1,0.5c-0.1,0.2-0.2,0.3-0.3,0.5
			C68.2,100,67.9,100.2,67.5,100.2z"/>
		<path class="st2" d="M66.1,92.5c0-0.8,0.6-1.5,1.4-1.5l0,0c0.8,0,1.4,0.7,1.4,1.5l0,0c0,0.8-0.6,1.4-1.4,1.4l0,0
			C66.7,93.9,66.1,93.3,66.1,92.5z"/>
		<path class="st2" d="M67.5,87.7c-0.4,0-0.7-0.2-1-0.4c-0.3-0.3-0.4-0.6-0.4-1c0-0.2,0-0.3,0.1-0.5c0.1-0.2,0.2-0.3,0.3-0.5
			c0.6-0.6,1.5-0.5,2.1,0c0.1,0.1,0.2,0.3,0.3,0.5c0,0.2,0.1,0.3,0.1,0.5c0,0.2,0,0.4-0.1,0.6c-0.1,0.2-0.2,0.3-0.3,0.5
			C68.2,87.5,67.9,87.7,67.5,87.7z"/>
		<path class="st2" d="M66.1,43.9c0-0.8,0.6-1.4,1.4-1.4l0,0c0.8,0,1.4,0.6,1.4,1.4l0,0c0,0.8-0.6,1.4-1.4,1.4l0,0
			C66.7,45.3,66.1,44.7,66.1,43.9z M66.1,38.1c0-0.8,0.6-1.4,1.4-1.4l0,0c0.8,0,1.4,0.6,1.4,1.4l0,0c0,0.8-0.6,1.4-1.4,1.4l0,0
			C66.7,39.5,66.1,38.9,66.1,38.1z"/>
		<path class="st2" d="M103.4,93.9c-3.4,0-6.1-2.8-6.1-6.1c0-3.4,2.7-6.2,6.1-6.2s6.1,2.8,6.1,6.2C109.6,91.2,106.8,93.9,103.4,93.9
			z M103.4,84.5c-1.8,0-3.3,1.5-3.3,3.3c0,1.8,1.5,3.3,3.3,3.3c1.8,0,3.3-1.5,3.3-3.3C106.7,86,105.2,84.5,103.4,84.5z"/>
		<path class="st2" d="M67.5,114.3c-3.4,0-6.1-2.8-6.1-6.1c0-3.4,2.7-6.2,6.1-6.2s6.1,2.8,6.1,6.2C73.6,111.6,70.9,114.3,67.5,114.3
			z M67.5,104.9c-1.8,0-3.3,1.5-3.3,3.3c0,1.8,1.5,3.3,3.3,3.3s3.3-1.5,3.3-3.3C70.8,106.4,69.3,104.9,67.5,104.9z"/>
		<path class="st2" d="M31.6,53.2c-3.4,0-6.1-2.8-6.1-6.1s2.7-6.1,6.1-6.1s6.1,2.8,6.1,6.1S34.9,53.2,31.6,53.2z M31.6,43.8
			c-1.8,0-3.3,1.5-3.3,3.3c0,1.8,1.5,3.3,3.3,3.3s3.3-1.5,3.3-3.3C34.8,45.2,33.3,43.8,31.6,43.8z"/>
		<path class="st2" d="M103.4,53.2c-3.4,0-6.1-2.8-6.1-6.1s2.7-6.1,6.1-6.1s6.1,2.8,6.1,6.1S106.8,53.2,103.4,53.2z M103.4,43.8
			c-1.8,0-3.3,1.5-3.3,3.3c0,1.8,1.5,3.3,3.3,3.3c1.8,0,3.3-1.5,3.3-3.3C106.7,45.2,105.2,43.8,103.4,43.8z"/>
		<path class="st2" d="M44.7,81.8c-0.4,0-0.7-0.2-1-0.4c-0.3-0.3-0.4-0.6-0.4-1c0-0.4,0.1-0.8,0.4-1c0.4-0.4,1-0.5,1.6-0.3
			c0.2,0.1,0.3,0.2,0.5,0.3c0.3,0.3,0.4,0.6,0.4,1c0,0.4-0.1,0.7-0.4,1C45.4,81.6,45.1,81.8,44.7,81.8z"/>
		<path class="st2" d="M40.3,84.3c-0.4,0-0.7-0.2-1-0.4c-0.3-0.3-0.4-0.7-0.4-1c0-0.2,0-0.3,0.1-0.5c0-0.2,0.2-0.3,0.3-0.5
			c0.4-0.4,1-0.6,1.6-0.3c0.2,0.1,0.3,0.2,0.5,0.3c0.1,0.1,0.2,0.3,0.3,0.5c0.1,0.2,0.1,0.3,0.1,0.5c0,0.4-0.1,0.8-0.4,1
			C41.1,84.1,40.7,84.3,40.3,84.3z"/>
		<path class="st2" d="M87.1,56.2c-0.4-0.7-0.1-1.6,0.6-2l0,0c0.7-0.4,1.6-0.1,1.9,0.6l0,0c0.4,0.7,0.2,1.6-0.5,2l0,0
			c-0.2,0.1-0.5,0.2-0.7,0.2l0,0C87.9,57,87.4,56.7,87.1,56.2z M92.1,53.4c-0.4-0.7-0.1-1.6,0.6-2l0,0c0.7-0.4,1.6-0.2,1.9,0.5l0,0
			c0.4,0.7,0.2,1.6-0.5,2l0,0c-0.3,0.1-0.5,0.2-0.7,0.2l0,0C92.9,54.2,92.4,53.9,92.1,53.4z"/>
		<path class="st2" d="M90.3,81.8c-0.4,0-0.8-0.2-1-0.4c-0.3-0.3-0.4-0.6-0.4-1c0-0.2,0-0.4,0.1-0.6c0.1-0.2,0.2-0.3,0.3-0.5
			c0.1-0.1,0.3-0.2,0.5-0.3c0.5-0.2,1.2-0.1,1.6,0.3c0.3,0.3,0.4,0.6,0.4,1c0,0.4-0.1,0.7-0.4,1c-0.1,0.1-0.3,0.3-0.5,0.3
			C90.7,81.7,90.5,81.8,90.3,81.8z"/>
		<path class="st2" d="M94.7,84.3c-0.4,0-0.8-0.2-1-0.4c-0.3-0.3-0.4-0.7-0.4-1c0-0.2,0-0.3,0.1-0.5c0.1-0.2,0.2-0.3,0.3-0.5
			c0.4-0.4,1-0.6,1.6-0.3c0.2,0.1,0.3,0.2,0.5,0.3c0.1,0.1,0.3,0.3,0.3,0.5c0.1,0.2,0.1,0.3,0.1,0.5c0,0.4-0.2,0.8-0.4,1
			C95.5,84.1,95.1,84.3,94.7,84.3z"/>
	</g>
</g>
</svg>
