<?xml version="1.0" encoding="utf-8"?>
<!-- Generator: Adobe Illustrator 25.0.1, SVG Export Plug-In . SVG Version: 6.00 Build 0)  -->
<svg version="1.1" id="Layer_1" xmlns="http://www.w3.org/2000/svg" xmlns:xlink="http://www.w3.org/1999/xlink" x="0px" y="0px"
	 viewBox="0 0 135 135" style="enable-background:new 0 0 135 135;" xml:space="preserve">
<style type="text/css">
	.st0{fill:none;stroke:#824F9E;stroke-width:2;stroke-miterlimit:10;}
	.st1{fill:#824F9E;}
	.st2{fill:none;stroke:#824F9E;stroke-width:2;stroke-linecap:round;stroke-miterlimit:10;}
</style>
<g>
	<circle class="st0" cx="67.5" cy="67.5" r="66"/>
	<g>
		<g>
			<path class="st1" d="M106.7,98.2h-8.5c-2.3,0-5-1.9-5.8-4.7H43c-0.4,2.7-2.7,4.7-5.8,4.7h-8.5c-3.5,0-5.8-2.3-5.8-5.8V66.7
				c0-0.4,0-0.4,0-0.8l3.5-5.4h-3.1c-2.3,0-3.5-1.9-3.5-3.5c0-4.7,3.1-7.8,7.8-7.8h6.2l5-7.8c1.2-2.3,3.9-3.5,7-3.5h43.9
				c2.7,0,5.4,1.6,7,3.9l5,7.8h5.4c4.7,0,8.2,3.5,8.2,7.8c0,1.9-1.6,3.5-3.5,3.5H109l3.9,5.4c0,0.4,0.4,0.4,0.4,0.8v25.6
				C112.9,95.5,110.2,98.2,106.7,98.2z M41.9,91.2h51.6c0.8,0,1.2,0.4,1.2,1.2c0,1.9,1.9,3.5,3.5,3.5h8.5c1.9,0,3.9-1.6,3.9-3.5
				V67.1l-4.7-7c-0.4-0.4-0.4-0.8,0-1.2s0.8-0.8,1.2-0.8h5c0.4,0,1.2-0.8,1.2-1.2c0-3.1-2.3-5.4-5.8-5.4h-6.2
				c-0.4,0-0.8-0.4-1.2-0.4l-5.8-8.5c-0.8-1.6-2.7-2.3-4.7-2.3H45.8c-1.9,0-3.9,1.2-4.7,2.3l-5.4,8.5c-0.4,0.4-0.8,0.4-1.2,0.4h-7
				c-3.1,0-5.4,2.3-5.4,5.4c0,0.4,0,1.2,1.2,1.2h5.4c0.4,0,0.8,0.4,1.2,0.8c0.4,0.4,0.4,0.8,0,1.2l-4.3,7v25.2
				c0,1.9,1.6,3.5,3.5,3.5h8.5c1.9,0,3.5-1.6,3.5-3.5C40.7,91.6,41.1,91.2,41.9,91.2z"/>
			<g>
				<path class="st1" d="M46.1,74.5l-13.2-1.2l0,0c-1.6,0-2.7-1.2-2.7-2.7v-3.1c0-1.6,1.6-2.7,3.1-2.7l13.6,2.7l0,0
					c1.2,0,2.3,1.2,2.3,2.7v1.6C49.6,73.3,48.1,74.5,46.1,74.5z M46.5,72.2L46.5,72.2L46.5,72.2z M33.3,67.1c-0.4,0-0.4,0.4-0.4,0.4
					v3.1l0.4,0.4l13.2,1.2c0,0,0.8,0,0.8-0.4v-1.6l-0.4-0.4L33.3,67.1z"/>
				<path class="st1" d="M88.5,74.5c-3.1,0-3.1-2.3-3.1-2.7v-1.6c0-1.6,1.2-2.7,2.7-2.7l12.8-2.7c1.9,0,3.5,1.2,3.5,2.7v3.1
					c0,1.6-1.2,2.7-2.7,2.7L88.5,74.5L88.5,74.5z M87.7,71.8c0,0,0,0,0.8,0l13.2-1.2c0.4,0,0.4-0.4,0.4-0.4v-3.1
					c0,0-0.4-0.4-0.8-0.4l-12.8,3.1c-0.4,0-0.4,0.4-0.4,0.4L87.7,71.8L87.7,71.8L87.7,71.8z M87.7,71.8L87.7,71.8L87.7,71.8z"/>
			</g>
			<path class="st1" d="M100.1,57.8l-9.3-13.2c-0.4-0.4-1.9-1.9-3.9-1.9h-19l0,0h-19c-1.9,0-3.5,1.2-3.9,1.9l-9.3,13.2
				c-0.7,0.3-0.9,0.5-0.8,1.2c0.1,0.5,0.8,0.8,1.2,0.8h31.4l0,0h31.4c0.4,0,0.8-0.4,1.2-0.8C100.5,58.6,100.1,58.2,100.1,57.8z
				 M67.5,57.4L67.5,57.4H38.4l7.8-11.3c0.8-0.4,1.6-1.2,1.9-1.2h19l0,0h19c0.8,0,1.6,0.4,1.9,1.2l7.8,11.3
				C95.8,57.4,67.5,57.4,67.5,57.4z"/>
		</g>
		<line class="st2" x1="49.6" y1="83.4" x2="85.4" y2="83.4"/>
	</g>
</g>
</svg>
