<?xml version="1.0" encoding="utf-8"?>
<!-- Generator: Adobe Illustrator 25.0.1, SVG Export Plug-In . SVG Version: 6.00 Build 0)  -->
<svg version="1.1" id="Layer_1" xmlns="http://www.w3.org/2000/svg" xmlns:xlink="http://www.w3.org/1999/xlink" x="0px" y="0px"
	 viewBox="0 0 135 135" style="enable-background:new 0 0 135 135;" xml:space="preserve">
<style type="text/css">
	.st0{fill:none;stroke:#824F9E;stroke-width:2;stroke-miterlimit:10;}
	.st1{fill:#824F9E;}
</style>
<g>
	<g>
		<circle class="st0" cx="67.9" cy="67.5" r="66"/>
	</g>
	<g>
		<path class="st1" d="M111.7,82.6L101,71.9l5.4-5.4c1.6-1.6,4.4-1.6,6,0l4.7,4.7c1.7,1.7,1.7,4.4,0,6L111.7,82.6z M103.6,71.9l8,8
			l4-4c0.4-0.4,0.7-1,0.7-1.7s-0.2-1.2-0.7-1.7l-4.7-4.7c-0.9-0.9-2.5-0.9-3.3,0L103.6,71.9z"/>
		<polygon class="st1" points="90.6,101.7 88.4,95.1 81.9,92.9 82.5,91.1 89.9,93.6 92.4,101.1 		"/>
		<path class="st1" d="M76,107.6l5.5-16.3l20.8-20.8L113,81.3l-21.2,21L76,107.6z M83,92.5l-4,12.1l12.1-4l19.3-19.3l-8-8L83,92.5z"
			/>
		<polygon class="st1" points="47.2,57.8 42.5,53.1 44.3,51.4 47.1,54.2 54.2,45.7 56.1,47.2 		"/>
		<rect x="59.3" y="51.5" class="st1" width="21.4" height="2.5"/>
		<rect x="59.3" y="68.7" class="st1" width="21.4" height="2.5"/>
		<polygon class="st1" points="92.2,44.9 76.6,44.9 76.6,29.3 79,29.3 79,42.4 92.2,42.4 		"/>
		<path class="st1" d="M54.5,75.9H42.7V64.1h11.8V75.9z M44.5,74h8.1v-8.1h-8.1V74z"/>
		<path class="st1" d="M54.5,93H42.7V81.1h11.8V93z M44.5,91.1h8.1V83h-8.1V91.1z"/>
		<polygon class="st1" points="37.3,101.4 37.3,34.7 72.9,34.7 72.9,33.5 36.1,33.5 36.1,102.7 72.6,102.7 73,101.4 		"/>
		<polygon class="st1" points="59.3,86 59.3,88.5 78,88.5 80.5,86 		"/>
		<polygon class="st1" points="33,105.7 33,30.5 77.3,30.5 91,44.2 91,75.7 93.4,73.3 93.4,43.1 78.3,28 30.5,28 30.5,108.2 
			70.8,108.2 71.6,105.7 		"/>
		<polygon class="st1" points="87.8,48.6 86.6,48.6 86.6,80 87.8,78.8 		"/>
	</g>
</g>
</svg>
