<?xml version="1.0" encoding="utf-8"?>
<!-- Generator: Adobe Illustrator 25.0.1, SVG Export Plug-In . SVG Version: 6.00 Build 0)  -->
<svg version="1.1" id="Layer_1" xmlns="http://www.w3.org/2000/svg" xmlns:xlink="http://www.w3.org/1999/xlink" x="0px" y="0px"
	 viewBox="0 0 135 135" style="enable-background:new 0 0 135 135;" xml:space="preserve">
<style type="text/css">
	.st0{fill:none;stroke:#824F9E;stroke-width:2;stroke-miterlimit:10;}
	.st1{fill:#824F9E;}
	.st2{fill:#81559D;}
</style>
<g>
	<g>
		<circle class="st0" cx="67.9" cy="67.5" r="66.1"/>
	</g>
	<g>
		<g>
			<path class="st1" d="M95.9,108.4c-0.8,0-1.4-0.6-1.4-1.4v-7.4c0-0.8,0.6-1.4,1.4-1.4c0.8,0,1.4,0.6,1.4,1.4v7.4
				C97.3,107.7,96.7,108.4,95.9,108.4z"/>
			<path class="st1" d="M90.5,108.4c-0.8,0-1.4-0.6-1.4-1.4v-7.4c0-0.8,0.6-1.4,1.4-1.4c0.8,0,1.4,0.6,1.4,1.4v7.4
				C91.9,107.7,91.3,108.4,90.5,108.4z"/>
			<path class="st1" d="M84.6,108.4c-0.8,0-1.4-0.6-1.4-1.4v-7.4c0-0.8,0.6-1.4,1.4-1.4c0.8,0,1.4,0.6,1.4,1.4v7.4
				C86,107.7,85.4,108.4,84.6,108.4z"/>
			<path class="st1" d="M78.7,108.4c-0.8,0-1.4-0.6-1.4-1.4v-7.4c0-0.8,0.6-1.4,1.4-1.4c0.8,0,1.4,0.6,1.4,1.4v7.4
				C80.1,107.7,79.5,108.4,78.7,108.4z"/>
			<path class="st1" d="M73.3,108.4c-0.8,0-1.4-0.6-1.4-1.4v-7.4c0-0.8,0.6-1.4,1.4-1.4c0.8,0,1.4,0.6,1.4,1.4v7.4
				C74.7,107.7,74.1,108.4,73.3,108.4z"/>
			<path class="st1" d="M67.4,108.4c-0.8,0-1.4-0.6-1.4-1.4v-7.4c0-0.8,0.6-1.4,1.4-1.4c0.8,0,1.4,0.6,1.4,1.4v7.4
				C68.8,107.7,68.2,108.4,67.4,108.4z"/>
			<path class="st1" d="M61.5,108.4c-0.8,0-1.4-0.6-1.4-1.4v-7.4c0-0.8,0.6-1.4,1.4-1.4s1.4,0.6,1.4,1.4v7.4
				C62.9,107.7,62.3,108.4,61.5,108.4z"/>
			<path class="st1" d="M56.1,108.4c-0.8,0-1.4-0.6-1.4-1.4v-7.4c0-0.8,0.6-1.4,1.4-1.4s1.4,0.6,1.4,1.4v7.4
				C57.5,107.7,56.9,108.4,56.1,108.4z"/>
			<path class="st1" d="M50.2,108.4c-0.8,0-1.4-0.6-1.4-1.4v-7.4c0-0.8,0.6-1.4,1.4-1.4s1.4,0.6,1.4,1.4v7.4
				C51.6,107.7,51,108.4,50.2,108.4z"/>
			<path class="st1" d="M44.3,108.4c-0.8,0-1.4-0.6-1.4-1.4v-7.4c0-0.8,0.6-1.4,1.4-1.4s1.4,0.6,1.4,1.4v7.4
				C45.7,107.7,45.1,108.4,44.3,108.4z"/>
			<path class="st1" d="M39,108.4c-0.8,0-1.4-0.6-1.4-1.4v-7.4c0-0.8,0.6-1.4,1.4-1.4s1.4,0.6,1.4,1.4v7.4
				C40.3,107.7,39.7,108.4,39,108.4z"/>
			<path class="st1" d="M95.9,35.2c-0.8,0-1.4-0.6-1.4-1.4v-7.4c0-0.8,0.6-1.4,1.4-1.4c0.8,0,1.4,0.6,1.4,1.4v7.4
				C97.3,34.6,96.7,35.2,95.9,35.2z"/>
			<path class="st1" d="M90.5,35.2c-0.8,0-1.4-0.6-1.4-1.4v-7.4c0-0.8,0.6-1.4,1.4-1.4c0.8,0,1.4,0.6,1.4,1.4v7.4
				C91.9,34.6,91.3,35.2,90.5,35.2z"/>
			<path class="st1" d="M84.6,35.2c-0.8,0-1.4-0.6-1.4-1.4v-7.4c0-0.8,0.6-1.4,1.4-1.4c0.8,0,1.4,0.6,1.4,1.4v7.4
				C86,34.6,85.4,35.2,84.6,35.2z"/>
			<path class="st1" d="M78.7,35.2c-0.8,0-1.4-0.6-1.4-1.4v-7.4c0-0.8,0.6-1.4,1.4-1.4c0.8,0,1.4,0.6,1.4,1.4v7.4
				C80.1,34.6,79.5,35.2,78.7,35.2z"/>
			<path class="st1" d="M73.3,35.2c-0.8,0-1.4-0.6-1.4-1.4v-7.4c0-0.8,0.6-1.4,1.4-1.4c0.8,0,1.4,0.6,1.4,1.4v7.4
				C74.7,34.6,74.1,35.2,73.3,35.2z"/>
			<path class="st1" d="M67.4,35.2c-0.8,0-1.4-0.6-1.4-1.4v-7.4c0-0.8,0.6-1.4,1.4-1.4c0.8,0,1.4,0.6,1.4,1.4v7.4
				C68.8,34.6,68.2,35.2,67.4,35.2z"/>
			<path class="st1" d="M61.5,35.2c-0.8,0-1.4-0.6-1.4-1.4v-7.4c0-0.8,0.6-1.4,1.4-1.4s1.4,0.6,1.4,1.4v7.4
				C62.9,34.6,62.3,35.2,61.5,35.2z"/>
			<path class="st1" d="M56.1,35.2c-0.8,0-1.4-0.6-1.4-1.4v-7.4c0-0.8,0.6-1.4,1.4-1.4s1.4,0.6,1.4,1.4v7.4
				C57.5,34.6,56.9,35.2,56.1,35.2z"/>
			<path class="st1" d="M50.2,35.2c-0.8,0-1.4-0.6-1.4-1.4v-7.4c0-0.8,0.6-1.4,1.4-1.4s1.4,0.6,1.4,1.4v7.4
				C51.6,34.6,51,35.2,50.2,35.2z"/>
			<path class="st1" d="M44.3,35.2c-0.8,0-1.4-0.6-1.4-1.4v-7.4c0-0.8,0.6-1.4,1.4-1.4s1.4,0.6,1.4,1.4v7.4
				C45.7,34.6,45.1,35.2,44.3,35.2z"/>
			<path class="st1" d="M39,35.2c-0.8,0-1.4-0.6-1.4-1.4v-7.4c0-0.8,0.6-1.4,1.4-1.4s1.4,0.6,1.4,1.4v7.4
				C40.3,34.6,39.7,35.2,39,35.2z"/>
			<path class="st1" d="M34.5,96.6h-7.4c-0.8,0-1.4-0.6-1.4-1.4c0-0.8,0.6-1.4,1.4-1.4h7.4c0.8,0,1.4,0.6,1.4,1.4
				C35.9,96,35.3,96.6,34.5,96.6z"/>
			<path class="st1" d="M34.5,91.2h-7.4c-0.8,0-1.4-0.6-1.4-1.4c0-0.8,0.6-1.4,1.4-1.4h7.4c0.8,0,1.4,0.6,1.4,1.4
				C35.9,90.6,35.3,91.2,34.5,91.2z"/>
			<path class="st1" d="M34.5,85.3h-7.4c-0.8,0-1.4-0.6-1.4-1.4c0-0.8,0.6-1.4,1.4-1.4h7.4c0.8,0,1.4,0.6,1.4,1.4
				C35.9,84.7,35.3,85.3,34.5,85.3z"/>
			<path class="st1" d="M34.5,79.4h-7.4c-0.8,0-1.4-0.6-1.4-1.4s0.6-1.4,1.4-1.4h7.4c0.8,0,1.4,0.6,1.4,1.4S35.3,79.4,34.5,79.4z"/>
			<path class="st1" d="M34.5,74h-7.4c-0.8,0-1.4-0.6-1.4-1.4c0-0.8,0.6-1.4,1.4-1.4h7.4c0.8,0,1.4,0.6,1.4,1.4
				C35.9,73.4,35.3,74,34.5,74z"/>
			<path class="st1" d="M34.5,68.1h-7.4c-0.8,0-1.4-0.6-1.4-1.4c0-0.8,0.6-1.4,1.4-1.4h7.4c0.8,0,1.4,0.6,1.4,1.4
				C35.9,67.5,35.3,68.1,34.5,68.1z"/>
			<path class="st1" d="M34.5,62.2h-7.4c-0.8,0-1.4-0.6-1.4-1.4s0.6-1.4,1.4-1.4h7.4c0.8,0,1.4,0.6,1.4,1.4S35.3,62.2,34.5,62.2z"/>
			<path class="st1" d="M34.5,56.8h-7.4c-0.8,0-1.4-0.6-1.4-1.4s0.6-1.4,1.4-1.4h7.4c0.8,0,1.4,0.6,1.4,1.4S35.3,56.8,34.5,56.8z"/>
			<path class="st1" d="M34.5,50.9h-7.4c-0.8,0-1.4-0.6-1.4-1.4s0.6-1.4,1.4-1.4h7.4c0.8,0,1.4,0.6,1.4,1.4S35.3,50.9,34.5,50.9z"/>
			<path class="st1" d="M34.5,45h-7.4c-0.8,0-1.4-0.6-1.4-1.4s0.6-1.4,1.4-1.4h7.4c0.8,0,1.4,0.6,1.4,1.4S35.3,45,34.5,45z"/>
			<path class="st1" d="M34.5,39.6h-7.4c-0.8,0-1.4-0.6-1.4-1.4s0.6-1.4,1.4-1.4h7.4c0.8,0,1.4,0.6,1.4,1.4S35.3,39.6,34.5,39.6z"/>
			<path class="st1" d="M108.7,96.6h-7.4c-0.8,0-1.4-0.6-1.4-1.4c0-0.8,0.6-1.4,1.4-1.4h7.4c0.8,0,1.4,0.6,1.4,1.4
				C110.1,96,109.4,96.6,108.7,96.6z"/>
			<path class="st1" d="M108.7,91.2h-7.4c-0.8,0-1.4-0.6-1.4-1.4c0-0.8,0.6-1.4,1.4-1.4h7.4c0.8,0,1.4,0.6,1.4,1.4
				C110.1,90.6,109.4,91.2,108.7,91.2z"/>
			<path class="st1" d="M108.7,85.3h-7.4c-0.8,0-1.4-0.6-1.4-1.4c0-0.8,0.6-1.4,1.4-1.4h7.4c0.8,0,1.4,0.6,1.4,1.4
				C110.1,84.7,109.4,85.3,108.7,85.3z"/>
			<path class="st1" d="M108.7,79.4h-7.4c-0.8,0-1.4-0.6-1.4-1.4s0.6-1.4,1.4-1.4h7.4c0.8,0,1.4,0.6,1.4,1.4S109.4,79.4,108.7,79.4z
				"/>
			<path class="st1" d="M108.7,74h-7.4c-0.8,0-1.4-0.6-1.4-1.4c0-0.8,0.6-1.4,1.4-1.4h7.4c0.8,0,1.4,0.6,1.4,1.4
				C110.1,73.4,109.4,74,108.7,74z"/>
			<path class="st1" d="M108.7,68.1h-7.4c-0.8,0-1.4-0.6-1.4-1.4c0-0.8,0.6-1.4,1.4-1.4h7.4c0.8,0,1.4,0.6,1.4,1.4
				C110.1,67.5,109.4,68.1,108.7,68.1z"/>
			<path class="st1" d="M108.7,62.2h-7.4c-0.8,0-1.4-0.6-1.4-1.4s0.6-1.4,1.4-1.4h7.4c0.8,0,1.4,0.6,1.4,1.4S109.4,62.2,108.7,62.2z
				"/>
			<path class="st1" d="M108.7,56.8h-7.4c-0.8,0-1.4-0.6-1.4-1.4s0.6-1.4,1.4-1.4h7.4c0.8,0,1.4,0.6,1.4,1.4S109.4,56.8,108.7,56.8z
				"/>
			<path class="st1" d="M108.7,50.9h-7.4c-0.8,0-1.4-0.6-1.4-1.4s0.6-1.4,1.4-1.4h7.4c0.8,0,1.4,0.6,1.4,1.4S109.4,50.9,108.7,50.9z
				"/>
			<path class="st1" d="M108.7,45h-7.4c-0.8,0-1.4-0.6-1.4-1.4s0.6-1.4,1.4-1.4h7.4c0.8,0,1.4,0.6,1.4,1.4S109.4,45,108.7,45z"/>
			<path class="st1" d="M108.7,39.6h-7.4c-0.8,0-1.4-0.6-1.4-1.4s0.6-1.4,1.4-1.4h7.4c0.8,0,1.4,0.6,1.4,1.4S109.4,39.6,108.7,39.6z
				"/>
			<path class="st2" d="M100.8,100.5H35.5c-0.8,0-1.4-0.6-1.4-1.4V33.8c0-0.8,0.6-1.4,1.4-1.4h65.3c0.8,0,1.4,0.6,1.4,1.4v65.3
				C102.2,99.9,101.6,100.5,100.8,100.5z M36.9,97.7h62.5V35.2H36.9V97.7z"/>
			<path class="st1" d="M93.4,93.2H42.9c-0.8,0-1.4-0.6-1.4-1.4V41.2c0-0.8,0.6-1.4,1.4-1.4h50.6c0.8,0,1.4,0.6,1.4,1.4v50.6
				C94.8,92.5,94.2,93.2,93.4,93.2z M44.3,90.4H92V42.6H44.3V90.4z"/>
		</g>
		<g>
			<path class="st0" d="M92.5,54.2c-4.1,0-4.1,27.9-8.1,27.9s-4.1-27.9-8-27.9c-4.1,0-4.1,27.9-8.1,27.9s-4.1-27.9-8.1-27.9
				S56,82.1,51.9,82.1s-4.1-27.9-8.1-27.9"/>
		</g>
	</g>
</g>
</svg>
