<?xml version="1.0" encoding="utf-8"?>
<!-- Generator: Adobe Illustrator 25.0.1, SVG Export Plug-In . SVG Version: 6.00 Build 0)  -->
<svg version="1.1" id="Layer_1" xmlns="http://www.w3.org/2000/svg" xmlns:xlink="http://www.w3.org/1999/xlink" x="0px" y="0px"
	 viewBox="0 0 135 135" style="enable-background:new 0 0 135 135;" xml:space="preserve">
<style type="text/css">
	.st0{fill:none;stroke:#824F9E;stroke-width:2;stroke-miterlimit:10;}
	.st1{fill-rule:evenodd;clip-rule:evenodd;fill:#824F9E;}
</style>
<g>
	<g>
		<circle class="st0" cx="67.5" cy="67.5" r="65.2"/>
	</g>
	<path class="st1" d="M68.4,26.8c0,0-11.2,13-33.8,13v29.8c0,12.2,5.7,24,15.1,31.4l18.5,14.4L86.6,101c9.6-7.5,15.1-19.2,15.1-31.4
		V39.8C79.6,39.8,68.4,26.8,68.4,26.8 M68.4,30.5c4.2,3.7,14.3,11.2,30.9,12v27.1c0,11.4-5.2,22.4-14,29.3l-16.9,13L51.5,98.6
		c-8.8-6.7-14.3-17.6-14.3-29V42.5C53.9,41.9,64.3,34.2,68.4,30.5"/>
	<path class="st1" d="M40.7,48v22.7c0,9.8,4.8,19.2,12.7,25.3L67.9,107l14.6-11.1c7.9-6.1,12.7-15.6,12.7-25.3V48
		c-13-1.3-22-6.3-27.2-10.3C62.4,41.6,53.4,46.7,40.7,48z M67.9,108.6L52.6,97c-8.2-6.3-13.2-16.1-13.2-26.4v-24h0.5
		c13-1.3,22-6.3,27.5-10.3l0.5-0.3l0.5,0.3c5.3,4,14.6,9,27.5,10.3h0.5v24c0,10.3-5,20-13.2,26.4L67.9,108.6z"/>
	<polygon class="st1" points="65.4,89.1 53.3,76.6 56.9,73 64.6,80.8 82.8,51.7 87.2,54.5 	"/>
</g>
</svg>
