<?xml version="1.0" encoding="utf-8"?>
<!-- Generator: Adobe Illustrator 25.0.1, SVG Export Plug-In . SVG Version: 6.00 Build 0)  -->
<svg version="1.1" id="Layer_1" xmlns="http://www.w3.org/2000/svg" xmlns:xlink="http://www.w3.org/1999/xlink" x="0px" y="0px"
	 viewBox="0 0 135 135" style="enable-background:new 0 0 135 135;" xml:space="preserve">
<style type="text/css">
	.st0{fill:none;stroke:#824F9E;stroke-width:2;stroke-miterlimit:10;}
	.st1{fill-rule:evenodd;clip-rule:evenodd;fill:#824F9E;}
</style>
<g>
	<g>
		<circle class="st0" cx="67.5" cy="67.5" r="65"/>
	</g>
</g>
<g>
	<path class="st1" d="M68.9,38.2c0-6.3,0-6.3,0-6.3c0-0.5-0.6-1-1.4-1s-1.4,0.5-1.4,1c0,6.3,0,6.3,0,6.3c0,0.5,0.6,1,1.4,1
		S68.9,38.7,68.9,38.2z"/>
	<path class="st1" d="M74.4,38.2c0-6.3,0-6.3,0-6.3c0-0.5-0.6-1-1.4-1s-1.4,0.5-1.4,1c0,6.3,0,6.3,0,6.3c0,0.5,0.6,1,1.4,1
		S74.4,38.7,74.4,38.2z"/>
	<path class="st1" d="M79,38.2c0-6.3,0-6.3,0-6.3c0-0.5-0.4-1-0.9-1c-0.5,0-0.9,0.5-0.9,1c0,6.3,0,6.3,0,6.3c0,0.5,0.4,1,0.9,1
		C78.6,39.2,79,38.7,79,38.2z"/>
	<path class="st1" d="M84.6,38.2c0-6.3,0-6.3,0-6.3c0-0.5-0.4-1-0.9-1c-0.5,0-0.9,0.5-0.9,1c0,6.3,0,6.3,0,6.3c0,0.5,0.4,1,0.9,1
		C84.1,39.2,84.6,38.7,84.6,38.2z"/>
	<path class="st1" d="M90.1,38.2c0-6.3,0-6.3,0-6.3c0-0.5-0.4-1-0.9-1c-0.5,0-0.9,0.5-0.9,1c0,6.3,0,6.3,0,6.3c0,0.5,0.4,1,0.9,1
		C89.7,39.2,90.1,38.7,90.1,38.2z"/>
	<path class="st1" d="M95.6,38.2c0-6.3,0-6.3,0-6.3c0-0.5-0.4-1-0.9-1c-0.5,0-0.9,0.5-0.9,1c0,6.3,0,6.3,0,6.3c0,0.5,0.4,1,0.9,1
		C95.2,39.2,95.6,38.7,95.6,38.2z"/>
	<path class="st1" d="M63.3,38.2c0-6.3,0-6.3,0-6.3c0-0.5-0.6-1-1.3-1c-0.8,0-1.5,0.5-1.5,1c0,6.3,0,6.3,0,6.3c0,0.5,0.6,1,1.5,1
		C62.7,39.2,63.3,38.7,63.3,38.2z"/>
	<path class="st1" d="M57.8,38.2c0-6.3,0-6.3,0-6.3c0-0.5-0.4-1-0.9-1s-0.9,0.5-0.9,1c0,6.3,0,6.3,0,6.3c0,0.5,0.4,1,0.9,1
		S57.8,38.7,57.8,38.2z"/>
	<path class="st1" d="M52.3,38.2c0-6.3,0-6.3,0-6.3c0-0.5-0.4-1-0.9-1s-0.9,0.5-0.9,1c0,6.3,0,6.3,0,6.3c0,0.5,0.4,1,0.9,1
		S52.3,38.7,52.3,38.2z"/>
	<path class="st1" d="M46.7,38.2c0-6.3,0-6.3,0-6.3c0-0.5-0.4-1-0.9-1c-0.5,0-0.9,0.5-0.9,1c0,6.3,0,6.3,0,6.3c0,0.5,0.4,1,0.9,1
		C46.3,39.2,46.7,38.7,46.7,38.2z"/>
	<path class="st1" d="M41.2,38.2c0-6.3,0-6.3,0-6.3c0-0.5-0.4-1-0.9-1c-0.5,0-0.9,0.5-0.9,1c0,6.3,0,6.3,0,6.3c0,0.5,0.4,1,0.9,1
		C40.8,39.2,41.2,38.7,41.2,38.2z"/>
	<path class="st1" d="M106.7,69.7c0-0.5-0.5-0.9-1-0.9c-6.3,0-6.3,0-6.3,0c-0.5,0-1,0.4-1,0.9c0,0.6,0.5,0.9,1,0.9
		c6.3,0,6.3,0,6.3,0C106.3,70.6,106.7,70.2,106.7,69.7z"/>
	<path class="st1" d="M106.7,75.2c0-0.5-0.5-0.9-1-0.9c-6.3,0-6.3,0-6.3,0c-0.5,0-1,0.4-1,0.9c0,0.6,0.5,1,1,1c6.3,0,6.3,0,6.3,0
		C106.3,76.1,106.7,75.7,106.7,75.2z"/>
	<path class="st1" d="M106.7,80.7c0-0.5-0.5-0.9-1-0.9c-6.3,0-6.3,0-6.3,0c-0.5,0-1,0.4-1,0.9c0,0.6,0.5,1,1,1c6.3,0,6.3,0,6.3,0
		C106.3,81.6,106.7,81.3,106.7,80.7z"/>
	<path class="st1" d="M106.7,86.2c0-0.5-0.5-0.9-1-0.9c-6.3,0-6.3,0-6.3,0c-0.5,0-1,0.4-1,0.9c0,0.6,0.5,1,1,1c6.3,0,6.3,0,6.3,0
		C106.3,87.2,106.7,86.8,106.7,86.2z"/>
	<path class="st1" d="M106.7,91.2c0-0.6-0.5-1.3-1-1.3c-6.3,0-6.3,0-6.3,0c-0.5,0-1,0.6-1,1.3c0,0.8,0.5,1.5,1,1.5
		c6.3,0,6.3,0,6.3,0C106.3,92.7,106.7,92.1,106.7,91.2z"/>
	<path class="st1" d="M106.7,96.9c0-0.7-0.5-1.4-1-1.4c-6.3,0-6.3,0-6.3,0c-0.5,0-1,0.6-1,1.4s0.5,1.4,1,1.4c6.3,0,6.3,0,6.3,0
		C106.3,98.3,106.7,97.6,106.7,96.9z"/>
	<path class="st1" d="M106.7,64.1c0-0.5-0.5-0.9-1-0.9c-6.3,0-6.3,0-6.3,0c-0.5,0-1,0.4-1,0.9c0,0.5,0.5,0.9,1,0.9
		c6.3,0,6.3,0,6.3,0C106.3,65,106.7,64.6,106.7,64.1z"/>
	<path class="st1" d="M106.7,58.6c0-0.5-0.5-0.9-1-0.9c-6.3,0-6.3,0-6.3,0c-0.5,0-1,0.4-1,0.9c0,0.5,0.5,0.9,1,0.9
		c6.3,0,6.3,0,6.3,0C106.3,59.5,106.7,59.1,106.7,58.6z"/>
	<path class="st1" d="M106.7,53c0-0.5-0.5-0.9-1-0.9c-6.3,0-6.3,0-6.3,0c-0.5,0-1,0.4-1,0.9s0.5,0.9,1,0.9c6.3,0,6.3,0,6.3,0
		C106.3,54,106.7,53.5,106.7,53z"/>
	<path class="st1" d="M106.7,47.5c0-0.5-0.5-0.9-1-0.9c-6.3,0-6.3,0-6.3,0c-0.5,0-1,0.4-1,0.9c0,0.5,0.5,0.9,1,0.9
		c6.3,0,6.3,0,6.3,0C106.3,48.4,106.7,48,106.7,47.5z"/>
	<path class="st1" d="M106.7,42.4c0-0.7-0.5-1.4-1-1.4c-6.3,0-6.3,0-6.3,0c-0.5,0-1,0.6-1,1.4s0.5,1.4,1,1.4c6.3,0,6.3,0,6.3,0
		C106.3,43.8,106.7,43.2,106.7,42.4z"/>
	<path class="st1" d="M68.9,107.4c0-6.4,0-6.4,0-6.4c0-0.5-0.6-0.9-1.4-0.9s-1.4,0.4-1.4,0.9c0,6.4,0,6.4,0,6.4c0,0.6,0.6,1,1.4,1
		S68.9,108,68.9,107.4z"/>
	<path class="st1" d="M74.4,107.4c0-6.4,0-6.4,0-6.4c0-0.5-0.6-0.9-1.4-0.9s-1.4,0.5-1.4,0.9c0,6.4,0,6.4,0,6.4c0,0.6,0.6,1,1.4,1
		S74.4,108,74.4,107.4z"/>
	<path class="st1" d="M79,107.4c0-6.4,0-6.4,0-6.4c0-0.5-0.4-0.9-0.9-0.9c-0.5,0-0.9,0.5-0.9,0.9c0,6.4,0,6.4,0,6.4
		c0,0.6,0.4,1,0.9,1C78.6,108.4,79,108,79,107.4z"/>
	<path class="st1" d="M84.6,107.4c0-6.4,0-6.4,0-6.4c0-0.5-0.4-0.9-0.9-0.9c-0.5,0-0.9,0.5-0.9,0.9c0,6.4,0,6.4,0,6.4
		c0,0.6,0.4,1,0.9,1C84.1,108.4,84.6,108,84.6,107.4z"/>
	<path class="st1" d="M90.1,107.4c0-6.4,0-6.4,0-6.4c0-0.5-0.4-0.9-0.9-0.9c-0.5,0-0.9,0.5-0.9,0.9c0,6.4,0,6.4,0,6.4
		c0,0.6,0.4,1,0.9,1C89.7,108.4,90.1,108,90.1,107.4z"/>
	<path class="st1" d="M95.6,107.4c0-6.4,0-6.4,0-6.4c0-0.5-0.4-0.9-0.9-0.9c-0.5,0-0.9,0.5-0.9,0.9c0,6.4,0,6.4,0,6.4
		c0,0.6,0.4,1,0.9,1C95.2,108.4,95.6,108,95.6,107.4z"/>
	<path class="st1" d="M63.3,107.4c0-6.4,0-6.4,0-6.4c0-0.5-0.6-0.9-1.3-0.9c-0.8,0-1.5,0.5-1.5,0.9c0,6.4,0,6.4,0,6.4
		c0,0.6,0.6,1,1.5,1C62.7,108.4,63.3,108,63.3,107.4z"/>
	<path class="st1" d="M57.8,107.4c0-6.4,0-6.4,0-6.4c0-0.5-0.4-0.9-0.9-0.9S56,100.6,56,101c0,6.4,0,6.4,0,6.4c0,0.6,0.4,1,0.9,1
		S57.8,108,57.8,107.4z"/>
	<path class="st1" d="M52.3,107.4c0-6.4,0-6.4,0-6.4c0-0.5-0.4-0.9-0.9-0.9s-0.9,0.5-0.9,0.9c0,6.4,0,6.4,0,6.4c0,0.6,0.4,1,0.9,1
		S52.3,108,52.3,107.4z"/>
	<path class="st1" d="M46.7,107.4c0-6.4,0-6.4,0-6.4c0-0.5-0.4-0.9-0.9-0.9c-0.5,0-0.9,0.5-0.9,0.9c0,6.4,0,6.4,0,6.4
		c0,0.6,0.4,1,0.9,1C46.3,108.4,46.7,108,46.7,107.4z"/>
	<path class="st1" d="M41.2,107.4c0-6.4,0-6.4,0-6.4c0-0.5-0.4-0.9-0.9-0.9c-0.5,0-0.9,0.5-0.9,0.9c0,6.4,0,6.4,0,6.4
		c0,0.6,0.4,1,0.9,1C40.8,108.4,41.2,108,41.2,107.4z"/>
	<path class="st1" d="M36.6,69.7c0-0.5-0.4-0.9-1-0.9c-6.4,0-6.4,0-6.4,0c-0.5,0-0.9,0.4-0.9,0.9c0,0.6,0.4,0.9,0.9,0.9
		c6.4,0,6.4,0,6.4,0C36.2,70.6,36.6,70.2,36.6,69.7z"/>
	<path class="st1" d="M36.6,75.2c0-0.5-0.4-0.9-1-0.9c-6.4,0-6.4,0-6.4,0c-0.5,0-0.9,0.4-0.9,0.9c0,0.6,0.4,1,0.9,1
		c6.4,0,6.4,0,6.4,0C36.2,76.1,36.6,75.7,36.6,75.2z"/>
	<path class="st1" d="M36.6,80.7c0-0.5-0.4-0.9-1-0.9c-6.4,0-6.4,0-6.4,0c-0.5,0-0.9,0.4-0.9,0.9c0,0.6,0.4,1,0.9,1
		c6.4,0,6.4,0,6.4,0C36.2,81.6,36.6,81.3,36.6,80.7z"/>
	<path class="st1" d="M36.6,86.2c0-0.5-0.4-0.9-1-0.9c-6.4,0-6.4,0-6.4,0c-0.5,0-0.9,0.4-0.9,0.9c0,0.6,0.4,1,0.9,1
		c6.4,0,6.4,0,6.4,0C36.2,87.2,36.6,86.8,36.6,86.2z"/>
	<path class="st1" d="M36.6,91.2c0-0.6-0.4-1.3-1-1.3c-6.4,0-6.4,0-6.4,0c-0.5,0-0.9,0.6-0.9,1.3c0,0.8,0.4,1.5,0.9,1.5
		c6.4,0,6.4,0,6.4,0C36.2,92.7,36.6,92.1,36.6,91.2z"/>
	<path class="st1" d="M36.6,96.9c0-0.7-0.4-1.4-1-1.4c-6.4,0-6.4,0-6.4,0c-0.5,0-0.9,0.6-0.9,1.4s0.4,1.4,0.9,1.4c6.4,0,6.4,0,6.4,0
		C36.2,98.3,36.6,97.6,36.6,96.9z"/>
	<path class="st1" d="M36.6,64.1c0-0.5-0.4-0.9-1-0.9c-6.4,0-6.4,0-6.4,0c-0.5,0-0.9,0.4-0.9,0.9c0,0.5,0.4,0.9,0.9,0.9
		c6.4,0,6.4,0,6.4,0C36.2,65,36.6,64.6,36.6,64.1z"/>
	<path class="st1" d="M36.6,58.6c0-0.5-0.4-0.9-1-0.9c-6.4,0-6.4,0-6.4,0c-0.5,0-0.9,0.4-0.9,0.9c0,0.5,0.4,0.9,0.9,0.9
		c6.4,0,6.4,0,6.4,0C36.2,59.5,36.6,59.1,36.6,58.6z"/>
	<path class="st1" d="M36.6,53c0-0.5-0.4-0.9-1-0.9c-6.4,0-6.4,0-6.4,0c-0.5,0-0.9,0.4-0.9,0.9s0.4,0.9,0.9,0.9c6.4,0,6.4,0,6.4,0
		C36.2,54,36.6,53.5,36.6,53z"/>
	<path class="st1" d="M36.6,47.5c0-0.5-0.4-0.9-1-0.9c-6.4,0-6.4,0-6.4,0c-0.5,0-0.9,0.4-0.9,0.9c0,0.5,0.4,0.9,0.9,0.9
		c6.4,0,6.4,0,6.4,0C36.2,48.4,36.6,48,36.6,47.5z"/>
	<path class="st1" d="M36.6,42.4c0-0.7-0.4-1.4-1-1.4c-6.4,0-6.4,0-6.4,0c-0.5,0-0.9,0.6-0.9,1.4s0.4,1.4,0.9,1.4c6.4,0,6.4,0,6.4,0
		C36.2,43.8,36.6,43.2,36.6,42.4z"/>
	<path class="st1" d="M38.4,99.2c0-59.2,0-59.2,0-59.2c58.3,0,58.3,0,58.3,0c0,59.2,0,59.2,0,59.2H38.4z M99.3,100.6
		c0-61.8,0-61.8,0-61.8c0-0.8-0.6-1.4-1.4-1.4c-61,0-61,0-61,0c-0.7,0-1.4,0.5-1.4,1.4c0,61.8,0,61.8,0,61.8c0,0.8,0.6,1.4,1.4,1.4
		c61,0,61,0,61,0C98.7,101.9,99.3,101.3,99.3,100.6z"/>
	<path class="st1" d="M45.1,91.6c0-44.8,0-44.8,0-44.8c44.8,0,44.8,0,44.8,0c0,44.8,0,44.8,0,44.8H45.1z M91.9,92.6
		c0-46.8,0-46.8,0-46.8c0-0.5-0.5-1-1-1c-46.9,0-46.9,0-46.9,0c-0.5,0-1,0.5-1,1c0,46.8,0,46.8,0,46.8c0,0.6,0.5,1.1,1,1.1
		c46.9,0,46.9,0,46.9,0C91.5,93.6,91.9,93.2,91.9,92.6z"/>
	<path class="st1" d="M61.3,75.5c-0.1-0.1-0.2-0.2-0.4-0.3c1.3-1.3,1.3-1.3,1.3-1.3c0.2,0.2,0.4,0.4,0.7,0.7
		c-1.3,1.3-1.3,1.3-1.3,1.3C61.5,75.8,61.4,75.6,61.3,75.5z M59.8,64.2c0-7.1,5.7-12.8,12.8-12.8c7.1,0,12.8,5.7,12.8,12.8
		c0,7.1-5.7,12.8-12.8,12.8C65.5,77,59.8,71.3,59.8,64.2z M49.1,87.6c-0.8-0.8-0.8-2.3,0.2-3.3c7.8-7.8,7.8-7.8,7.8-7.8
		c1-1,2.5-1,3.3-0.2c0.8,0.8,0.8,2.3-0.2,3.3c-7.8,7.8-7.8,7.8-7.8,7.8C51.4,88.5,49.9,88.5,49.1,87.6z M53.2,88.2
		c7.8-7.8,7.8-7.8,7.8-7.8c0.9-0.9,1.3-2.3,1-3.4c1.6-1.6,1.6-1.6,1.6-1.6c2.4,1.9,5.5,3.1,8.9,3.1c7.8,0,14.2-6.3,14.2-14.2
		c0-7.8-6.4-14.2-14.2-14.2c-7.8,0-14.2,6.4-14.2,14.2c0,3.4,1.2,6.4,3.2,8.9c-1.6,1.6-1.6,1.6-1.6,1.6c-1.2-0.3-2.5,0.1-3.4,1
		c-7.8,7.8-7.8,7.8-7.8,7.8c-1.4,1.3-1.5,3.5-0.2,4.8C49.7,89.7,51.8,89.5,53.2,88.2z"/>
</g>
</svg>
