<?xml version="1.0" encoding="utf-8"?>
<!-- Generator: Adobe Illustrator 25.0.1, SVG Export Plug-In . SVG Version: 6.00 Build 0)  -->
<svg version="1.1" id="Layer_1" xmlns="http://www.w3.org/2000/svg" xmlns:xlink="http://www.w3.org/1999/xlink" x="0px" y="0px"
	 viewBox="0 0 135 135" style="enable-background:new 0 0 135 135;" xml:space="preserve">
<style type="text/css">
	.st0{fill:none;stroke:#824F9E;stroke-width:2;stroke-miterlimit:10;}
	.st1{fill:#824F9E;}
	.st2{fill:#81549D;}
</style>
<g>
	<circle class="st0" cx="67.5" cy="67.4" r="66"/>
	<g>
		<path class="st1" d="M77.8,47.1h-5.7c-0.6,0-1-0.5-1-1c0-0.6,0.5-1,1-1h5.2l3.9-3.9c-0.8-5.7-4.7-9.6-10-9.6c-0.6,0-1-0.5-1-1
			c0-0.6,0.5-1,1-1c6.3,0.2,12,5.5,12,12c0,0.3-0.1,0.5-0.3,0.7l-4.5,4.5C78.3,47,78,47.1,77.8,47.1z M82.2,41.6L82.2,41.6
			L82.2,41.6z"/>
		<path class="st1" d="M35.2,77.7c-0.1,0-0.1,0-0.2,0l-4.6-0.8l-0.3-0.9c-0.6-0.1-1.2,0.1-1.1-0.4c0.1-0.6,0.6-0.9,1.2-0.8l4.6,0.8
			l4.1-4.4c0.2-0.2,0.5-0.3,0.7-0.3h7.1c0.6,0,1,0.5,1,1s-0.5,1-1,1h-6.7L36,77.4C35.8,77.6,35.5,77.7,35.2,77.7z"/>
		<path class="st1" d="M56,51.5h-6.2c-0.3,0-0.5-0.1-0.7-0.3l-3-3c-2.3-2.6-7.8-2.3-8.9,0.1c-0.2,0.5-0.9,0.3-1.2-0.1
			c-0.4-0.4-0.3-1.1,0.1-1.4c3.4-3.1,8.4-3,11.5,0l2.7,2.7H56c0.6,0,1,0.5,1,1C57.1,51.1,56.6,51.5,56,51.5z"/>
		<path class="st1" d="M100.7,85.8c-0.6,0-1-0.5-1-1c0-4-3.3-7.3-7.3-7.3c-0.3,0-0.5-0.1-0.7-0.3l-2.7-2.7h-7.3c-0.6,0-1-0.5-1-1
			s0.5-1,1-1h7.7c0.3,0,0.5,0.1,0.7,0.3l2.7,2.7c5,0.2,8.9,4.3,8.9,9.3C101.7,85.3,101.2,85.8,100.7,85.8z"/>
		<path class="st2" d="M85.5,52.1c-0.6,0-1-0.5-1-1c0-6.6,5.4-12,12-12c0.6,0,1,0.5,1,1s-0.5,1-1,1c-5.5,0-10,4.5-10,10
			C86.5,51.7,86.1,52.1,85.5,52.1z"/>
		<path class="st1" d="M82.4,89.4h-7.4c-0.3,0-0.5-0.1-0.7-0.3l-5.4-5.1c-0.4-0.4-0.4-1,0-1.4c0.4-0.4,1-0.4,1.4,0l5.1,4.8h7
			c0.6,0,1,0.5,1,1S82.9,89.4,82.4,89.4z"/>
		<path class="st1" d="M70.6,85.5c-0.3,0-0.5-0.1-0.7-0.3l-6-6H54c-0.6,0-1-0.5-1-1s0.5-1,1-1h10.4c0.3,0,0.5,0.1,0.7,0.3l6.2,6.2
			c0.4,0.4,0.4,1,0,1.4C71.1,85.4,70.9,85.5,70.6,85.5z"/>
		<path class="st1" d="M101.3,62.6h-8.6c-0.6,0-1-0.5-1-1s0.5-1,1-1h8.2l2.7-2.7c0.4-0.4,1-0.4,1.4,0c0.4,0.4,0.4,1,0,1.4l-3,3
			C101.8,62.4,101.5,62.6,101.3,62.6z"/>
		<path class="st1" d="M58.7,68.8H43c-0.3,0-0.5-0.1-0.7-0.3L27.1,53.3c-0.4-0.4-0.4-1,0-1.4c0.4-0.4,1-0.4,1.4,0l14.9,14.9h15.4
			c0.6,0,1,0.5,1,1S59.3,68.8,58.7,68.8z"/>
		<path class="st1" d="M70.6,48.6c-1.4,0-2.5-1.1-2.5-2.5c0-1.4,1.1-2.5,2.5-2.5s2.5,1.1,2.5,2.5C73.1,47.5,72.1,48.6,70.6,48.6z
			 M70.6,45.6c-0.3,0-0.5,0.1-0.5,0.5c0,0.7,1,0.7,1,0C71.1,45.7,71,45.6,70.6,45.6z"/>
		<path class="st1" d="M91.1,64.2c-1.4,0-2.5-1.2-2.5-2.6c0-1.1,1.1-2.4,2.5-2.4s2.5,1.2,2.5,2.4C93.6,63,92.5,64.2,91.1,64.2z
			 M91.1,61.2c-0.3,0-0.5,0.3-0.5,0.4c0,0.2,0.2,0.6,0.5,0.6c0.3,0,0.5-0.3,0.5-0.6C91.6,61.5,91.4,61.2,91.1,61.2z"/>
		<path class="st1" d="M80.1,75.9c-1.4,0-2.5-1.1-2.5-2.5s1.1-2.5,2.5-2.5c1.2,0,2.5,1.1,2.5,2.5S81.3,75.9,80.1,75.9z M80.1,73
			c-0.3,0-0.5,0.1-0.5,0.5c0,0.3,0.1,0.5,0.5,0.5c0.1,0,0.5-0.2,0.5-0.5S80.3,73,80.1,73z"/>
		<path class="st1" d="M52.5,80.7c-1.4,0-2.5-1.3-2.5-2.5c0-1.4,1.1-2.5,2.5-2.5c1.4,0,2.5,1.1,2.5,2.5C55,79.4,53.9,80.7,52.5,80.7
			z M52.5,77.7c-0.3,0-0.5,0.1-0.5,0.5c0,0.1,0.2,0.5,0.5,0.5c0.3,0,0.5-0.4,0.5-0.5C52.9,77.9,52.8,77.7,52.5,77.7z M54,78.2
			L54,78.2L54,78.2z"/>
		<path class="st1" d="M57.5,53c-1.4,0-2.5-1.3-2.5-2.5c0-1.4,1.1-2.5,2.5-2.5s2.5,1.1,2.5,2.5C60,51.7,59,53,57.5,53z M57.5,50.1
			c-0.3,0-0.5,0.1-0.5,0.5c0,0.1,0.2,0.5,0.5,0.5c0.3,0,0.5-0.4,0.5-0.5C58,50.2,57.9,50.1,57.5,50.1z M59,50.5L59,50.5L59,50.5z"/>
		<path class="st1" d="M60.2,70.3c-1.4,0-2.5-1.1-2.5-2.5s1.1-2.5,2.5-2.5c1.4,0,2.5,1.1,2.5,2.5S61.7,70.3,60.2,70.3z M60.2,67.3
			c-0.3,0-0.5,0.1-0.5,0.5c0,0.7,1,0.7,1,0C60.7,67.5,60.5,67.3,60.2,67.3z"/>
		<path class="st1" d="M48.3,74.5c-1.2,0-2.5-1.1-2.5-2.5c0-1.4,1.3-2.5,2.5-2.5c1.4,0,2.5,1.1,2.5,2.5S49.8,74.5,48.3,74.5z
			 M48.3,71.5c-0.1,0-0.5,0.2-0.5,0.5c0,0.3,0.4,0.5,0.5,0.5c0.3,0,0.5-0.1,0.5-0.5C48.8,71.6,48.6,71.5,48.3,71.5z"/>
		<path class="st1" d="M83.8,91.1c-1.4,0-2.5-1.2-2.5-2.6c0-1.1,1.1-2.4,2.5-2.4c1.4,0,2.5,1.2,2.5,2.4
			C86.3,89.9,85.2,91.1,83.8,91.1z M83.8,88.1c-0.3,0-0.5,0.3-0.5,0.4c0,0.2,0.2,0.6,0.5,0.6c0.3,0,0.5-0.3,0.5-0.6
			C84.3,88.4,84.1,88.1,83.8,88.1z"/>
		<path class="st2" d="M94.1,104.8h-4.8c-0.4,0-0.7-0.2-0.9-0.6c-0.5-1-3.1-5.7-8.3-5.7c-6.3,0-11.3-4.9-11.4-11.2
			c-2.1,1.5-4.8,2.3-7.9,2.3c-5.9,0-10.9-3.5-13-8.8c-1.9,1.5-4.3,2.2-6.9,2.2c-4.7,0-8.8-2.5-10.8-6.5c-5.3-2.1-8.9-7.2-8.9-13
			c0-7.7,5.6-13.7,13.1-14.4c1.1-2.5,3.6-4.4,6.3-4.7c0.5-3.7,3.5-6.8,7.1-7.2c1.6-3.5,5.1-6,8.7-6c2,0,4,0.7,6.1,2.3
			c2.1-2.5,5.4-4,8.8-4c3.8,0,7.3,1.8,9.5,4.8c1.6-1.2,3.5-1.9,5.4-1.9c4.1,0,7.7,2.7,9,6.6c0.4-0.1,0.9-0.1,1.4-0.1
			c6.6,0,12,5.4,12,12c0,0.2,0,0.7-0.1,1.2c1.6,1.6,2.5,4,2.5,6.5c0,0.8,0,1.6-0.2,2.4c2.1,2.3,3.2,5,3.2,8c0,4.1-2.2,7.9-5.7,10
			c0.2,0.7,0.4,1.4,0.4,2.2c0,5-4.2,9.2-9.2,9.3c-1.4,1.7-3.1,2.6-4.9,2.9c-0.5,0.2-1,0.3-1.4,0.3c-0.7,2.2-0.4,6.3,1.9,9.1
			c0.2,0.3,0.3,0.7,0.1,1.1C94.9,104.6,94.5,104.8,94.1,104.8z M90,102.8h2.3c-1.8-3.4-2-7.8-0.8-10.2c0.2-0.3,0.5-0.6,0.9-0.6
			c0.5,0,1,0,1.3-0.2c0.1,0,0.2-0.1,0.3-0.1c1.6-0.2,2.9-1.1,4.1-2.6c0.2-0.2,0.5-0.4,0.8-0.4h0.3c3.9,0,7.3-3.4,7.3-7.3
			c0-0.7-0.3-1.5-0.5-2.4c-0.2-0.5,0.1-1,0.5-1.2c3.3-1.7,5.4-5,5.4-8.6c0-2.6-1-5.1-3-7c-0.3-0.3-0.4-0.7-0.2-1
			c0.2-0.7,0.2-1.5,0.2-2.4c0-2.2-0.9-4.3-2.3-5.5c-0.4-0.3-0.5-0.8-0.3-1.2c0.2-0.4,0.2-0.8,0.2-1c0-5.5-4.5-10-10-10
			c-0.9,0-1.3,0-1.6,0.2c-0.3,0.1-0.6,0.1-0.9,0c-0.3-0.1-0.5-0.4-0.6-0.7c-0.8-3.6-3.8-6.1-7.3-6.1c-1.8,0-3.6,0.8-4.9,2.1
			c-0.2,0.2-0.5,0.3-0.9,0.3c-0.3,0-0.6-0.2-0.7-0.5c-1.6-2.9-4.9-4.8-8.3-4.8c-3.2,0-6.1,1.5-7.8,4c-0.2,0.2-0.4,0.4-0.7,0.4
			c-0.3,0.1-0.6,0-0.8-0.2c-2-1.6-3.8-2.4-5.6-2.4c-3,0-6,2.2-7.1,5.3c-0.1,0.4-0.5,0.7-1,0.7c-3.1,0-5.8,2.9-5.8,6.1
			c0,0.6-0.5,1-1,1c-2.5,0-4.8,1.7-5.6,4.1c-0.1,0.4-0.5,0.7-0.9,0.7c-6.7,0.3-11.8,5.6-11.8,12.4c0,5,3.2,9.6,8,11.2
			c0.3,0.1,0.5,0.3,0.6,0.5c1.6,3.5,5.1,5.7,9.2,5.7c1.8,0,4.5-0.5,6.7-2.7c0.3-0.3,0.6-0.4,1-0.3c0.4,0.1,0.6,0.4,0.7,0.7
			c1.4,5.2,6,8.8,11.5,8.8c3.4,0,6.3-1.1,8.2-3.2c0.3-0.3,0.7-0.4,1.1-0.3c0.4,0.1,0.7,0.5,0.7,0.9v2.1c0,5.3,4.1,9.4,9.4,9.4
			C85.8,96.5,88.9,101,90,102.8z"/>
		<path class="st2" d="M109.6,62.6c-0.3,0-0.5-0.1-0.7-0.3c-1.3-1.3-2.8-2.1-4.9-2.7c-0.4-0.1-0.6-0.4-0.7-0.8
			c-0.1-0.4,0.1-0.7,0.3-1c1.5-1.2,2.3-3,2.6-5.3c0-0.4,0.4-0.3,0.8-0.4c0.3-0.1,0.6-0.4,0.9-0.2c1.9,1.6,3,4.2,3,7c0,1,0,1.9-0.3,3
			c-0.1,0.3-0.4,0.6-0.7,0.7C109.7,62.5,109.7,62.6,109.6,62.6z M106.1,58.1c1,0.4,2,0.9,2.8,1.5c0-0.2,0-0.5,0-0.7
			c0-1.5-0.4-2.9-1.1-4C107.4,56.1,106.8,57.2,106.1,58.1z"/>
		<path class="st2" d="M99.2,90.8h-0.3c-0.4,0-0.7-0.2-0.9-0.6c-0.2-0.4-0.1-0.8,0.1-1.1c1-1.3,1.6-2.8,1.6-4.4
			c0-1.5-0.5-3.1-1.3-4.2c-0.2-0.3-0.3-0.7-0.1-1.1c0.4-0.8,1.5-0.5,2.4-0.4c1.9,0.3,3.9-0.1,5.7-1.2c0.3-0.2,0.6-0.2,0.9-0.1
			s0.5,0.3,0.6,0.6c0.3,1,0.6,1.9,0.6,3C108.5,86.5,104.2,90.8,99.2,90.8z M101,81.2c0.4,1.1,0.7,2.3,0.7,3.5c0,1.3-0.3,2.6-0.9,3.8
			c3.2-0.8,5.7-3.8,5.7-7.1c0-0.4-0.1-0.8-0.2-1.2C104.6,81.1,102.8,81.5,101,81.2z"/>
	</g>
</g>
</svg>
