<?xml version="1.0" encoding="utf-8"?>
<!-- Generator: Adobe Illustrator 25.0.1, SVG Export Plug-In . SVG Version: 6.00 Build 0)  -->
<svg version="1.1" id="Layer_1" xmlns="http://www.w3.org/2000/svg" xmlns:xlink="http://www.w3.org/1999/xlink" x="0px" y="0px"
	 viewBox="0 0 135 135" style="enable-background:new 0 0 135 135;" xml:space="preserve">
<style type="text/css">
	.st0{fill:none;stroke:#824F9E;stroke-width:2;stroke-miterlimit:10;}
	.st1{fill-rule:evenodd;clip-rule:evenodd;fill:#824F9E;}
</style>
<g>
	<g>
		<circle class="st0" cx="67.5" cy="67.5" r="66"/>
	</g>
	<g>
		<path class="st1" d="M30.4,81.8c0-39.6,0-39.6,0-39.6c0-1.1,1.1-2.1,2.3-2.1c66.2,0,66.2,0,66.2,0c1.2,0,2.3,1,2.3,2.1
			c0,24.4,0,24.4,0,24.4c-2,0-2,0-2,0c0-24.4,0-24.4,0-24.4c0-0.1-0.1-0.3-0.3-0.3c-66.2,0-66.2,0-66.2,0c-0.1,0-0.3,0.1-0.3,0.3
			c0,39.6,0,39.6,0,39.6c0,0.1,0.1,0.3,0.3,0.3c29.8,0,29.8,0,29.8,0c0,1.8,0,1.8,0,1.8c-29.8,0-29.8,0-29.8,0
			C31.5,83.8,30.4,82.9,30.4,81.8z"/>
		<path class="st1" d="M24.3,83.1c0-42.3,0-42.3,0-42.3c0-3.1,2.7-5.6,6.1-5.6c70.7,0,70.7,0,70.7,0c3.4,0,6.1,2.5,6.1,5.6
			c0,30.3,0,30.3,0,30.3c-2.7,0-2.7,0-2.7,0c0-30.3,0-30.3,0-30.3c0-1.8-1.5-3.1-3.5-3.1c-70.7,0-70.7,0-70.7,0
			c-1.9,0-3.5,1.4-3.5,3.1c0,42.3,0,42.3,0,42.3c0,1.8,1.6,3.1,3.5,3.1c31.9,0,31.9,0,31.9,0c0,2.4,0,2.4,0,2.4
			c-31.9,0-31.9,0-31.9,0C27.1,88.7,24.3,86.2,24.3,83.1z"/>
		<path class="st1" d="M36.5,64.9c0-4.4,0-4.4,0-4.4c0-0.5,0.5-1,1-1c0.6,0,1,0.5,1,1c0,4.4,0,4.4,0,4.4c0,0.6-0.4,1.1-1,1.1
			C37,66,36.5,65.5,36.5,64.9z"/>
		<path class="st1" d="M36.5,71.7c0-0.5,0.4-0.8,1-0.8c26.4,0,26.4,0,26.4,0c0.5,0,1,0.4,1,0.8c0,0.4-0.5,0.8-1,0.8
			c-26.4,0-26.4,0-26.4,0C36.9,72.5,36.5,72.1,36.5,71.7z"/>
		<path class="st1" d="M36.5,76.5c0-0.5,0.5-0.8,1.1-0.8c8,0,8,0,8,0c0.6,0,1.1,0.3,1.1,0.8c0,0.4-0.5,0.8-1.1,0.8c-8,0-8,0-8,0
			C36.9,77.3,36.5,76.9,36.5,76.5z"/>
		<path class="st1" d="M50.6,76.5c0-0.5,0.5-0.8,1.1-0.8c7.9,0,7.9,0,7.9,0c0.5,0,1.1,0.3,1.1,0.8c0,0.4-0.5,0.8-1.1,0.8
			c-7.9,0-7.9,0-7.9,0C51.1,77.3,50.6,76.9,50.6,76.5z"/>
		<path class="st1" d="M46.5,54.3c0-5.8,0-5.8,0-5.8c0-0.1-0.2-0.3-0.3-0.3c-7.2,0-7.2,0-7.2,0c-0.2,0-0.4,0.2-0.4,0.3
			c0,5.8,0,5.8,0,5.8c0,0.2,0.2,0.2,0.4,0.2c7.2,0,7.2,0,7.2,0C46.3,54.6,46.5,54.5,46.5,54.3z M36.5,54.3c0-5.8,0-5.8,0-5.8
			c0-1.1,1.1-2,2.5-2c7.2,0,7.2,0,7.2,0c1.4,0,2.4,0.9,2.4,2c0,5.8,0,5.8,0,5.8c0,1.1-1.1,2-2.4,2c-7.2,0-7.2,0-7.2,0
			C37.6,56.3,36.5,55.4,36.5,54.3z"/>
		<path class="st1" d="M93.1,64.9c0-4.4,0-4.4,0-4.4c0-0.5,0.4-1,0.9-1c0.6,0,1.1,0.5,1.1,1c0,4.4,0,4.4,0,4.4
			c0,0.6-0.5,1.1-1.1,1.1C93.5,66,93.1,65.5,93.1,64.9z"/>
		<path class="st1" d="M42.5,64.9c0-4.4,0-4.4,0-4.4c0-0.5,0.5-1,1-1c0.6,0,1,0.5,1,1c0,4.4,0,4.4,0,4.4c0,0.6-0.4,1.1-1,1.1
			C43,66,42.5,65.5,42.5,64.9z"/>
		<path class="st1" d="M48.6,64.9c0-4.4,0-4.4,0-4.4c0-0.5,0.4-1,1-1c0.6,0,1,0.5,1,1c0,4.4,0,4.4,0,4.4c0,0.6-0.4,1.1-1,1.1
			C49,66,48.6,65.5,48.6,64.9z"/>
		<path class="st1" d="M54.7,64.9c0-4.4,0-4.4,0-4.4c0-0.5,0.4-1,1-1c0.6,0,1,0.5,1,1c0,4.4,0,4.4,0,4.4c0,0.6-0.4,1.1-1,1.1
			C55.1,66,54.7,65.5,54.7,64.9z"/>
		<path class="st1" d="M58.7,64.9c0-4.4,0-4.4,0-4.4c0-0.5,0.4-1,1-1c0.5,0,1,0.5,1,1c0,4.4,0,4.4,0,4.4c0,0.6-0.5,1.1-1,1.1
			C59.1,66,58.7,65.5,58.7,64.9z"/>
		<path class="st1" d="M64.8,64.9c0-4.4,0-4.4,0-4.4c0-0.5,0.5-1,1-1c0.6,0,1,0.5,1,1c0,4.4,0,4.4,0,4.4c0,0.6-0.4,1.1-1,1.1
			C65.3,66,64.8,65.5,64.8,64.9z"/>
		<path class="st1" d="M70.8,64.9c0-4.4,0-4.4,0-4.4c0-0.5,0.5-1,1-1c0.6,0,1,0.5,1,1c0,4.4,0,4.4,0,4.4c0,0.6-0.4,1.1-1,1.1
			C71.4,66,70.8,65.5,70.8,64.9z"/>
		<path class="st1" d="M76.9,64.9c0-4.4,0-4.4,0-4.4c0-0.5,0.4-1,1-1c0.6,0,1,0.5,1,1c0,4.4,0,4.4,0,4.4c0,0.6-0.4,1.1-1,1.1
			C77.3,66,76.9,65.5,76.9,64.9z"/>
		<path class="st1" d="M83,64.9c0-4.4,0-4.4,0-4.4c0-0.5,0.4-1,1-1s1,0.5,1,1c0,4.4,0,4.4,0,4.4c0,0.6-0.4,1.1-1,1.1
			S83,65.5,83,64.9z"/>
		<path class="st1" d="M89.1,64.9c0-4.4,0-4.4,0-4.4c0-0.5,0.4-1,1-1c0.5,0,1,0.5,1,1c0,4.4,0,4.4,0,4.4c0,0.6-0.5,1.1-1,1.1
			C89.5,66,89.1,65.5,89.1,64.9z"/>
		<path class="st1" d="M104.7,85.4c0-9.3-7.9-16.9-17.6-16.9c-9.8,0-17.7,7.6-17.7,16.9c0,9.4,7.9,17,17.7,17
			C96.8,102.4,104.7,94.8,104.7,85.4z M66.8,85.4c0-10.7,9.1-19.4,20.3-19.4c11.2,0,20.2,8.7,20.2,19.4c0,10.7-9,19.5-20.2,19.5
			C75.9,104.9,66.8,96.1,66.8,85.4z"/>
		<path class="st1" d="M84.5,96.8C75.6,90,75.6,90,75.6,90c-0.6-0.5-0.7-1.2-0.2-1.7c0.5-0.5,1.4-0.6,2-0.1c6.5,5,6.5,5,6.5,5
			c12.5-16.6,12.5-16.6,12.5-16.6c0.5-0.5,1.4-0.7,2-0.3c0.6,0.4,0.8,1.1,0.4,1.7L84.5,96.8z"/>
	</g>
</g>
</svg>
