<?xml version="1.0" encoding="utf-8"?>
<!-- Generator: Adobe Illustrator 25.0.1, SVG Export Plug-In . SVG Version: 6.00 Build 0)  -->
<svg version="1.1" id="Layer_1" xmlns="http://www.w3.org/2000/svg" xmlns:xlink="http://www.w3.org/1999/xlink" x="0px" y="0px"
	 viewBox="0 0 135 135" style="enable-background:new 0 0 135 135;" xml:space="preserve">
<style type="text/css">
	.st0{fill:none;stroke:#824F9E;stroke-width:2;stroke-miterlimit:10;}
	.st1{fill:#824F9E;}
	.st2{fill:none;stroke:#824F9E;stroke-miterlimit:10;}
</style>
<g>
	<g>
		<circle class="st0" cx="67.2" cy="67.5" r="65.6"/>
	</g>
	<g>
		<path class="st1" d="M108.5,59l0.2,20.3l-3.8,0v9.4c0,1.1-0.9,2-2,2H65l1.9-2h33.8c1.1,0,1.7-0.9,1.7-2V51.6
			c0-1.1-0.5-1.6-1.6-1.6H79.2l0.5-2h23c1.1,0,2,0.9,2,2v9L108.5,59z"/>
		<path class="st1" d="M27.2,51.7v34.8c0,1.1,0.5,2.1,1.6,2.1h26.5l-0.6,2H26.9c-1.1,0-2-0.9-2-2V49.9c0-1.1,0.9-2,2-2l39.6-0.1
			l-1.7,2.3L28.9,50C27.8,50,27.2,50.6,27.2,51.7z"/>
		<path class="st2" d="M50.3,69l10.1-0.2l-5.8,17.8h-8c-0.2,0-0.4-0.4-0.4-0.8V53.1c0-0.4,0.2-0.8,0.4-0.8h15.9L49.9,68.2
			C49.7,68.5,49.9,69,50.3,69z"/>
		<polygon class="st2" points="81.2,33.4 55.7,66.1 64.8,65.9 54.3,98.9 84.3,65.8 73,65.7 		"/>
	</g>
	<path class="st2" d="M42.5,86.7H29.9c-0.3,0-0.5-0.2-0.5-0.5V52.8c0-0.3,0.2-0.5,0.5-0.5h12.6c0.3,0,0.5,0.2,0.5,0.5v33.4
		C43,86.5,42.7,86.7,42.5,86.7z"/>
</g>
</svg>
