<?xml version="1.0" encoding="utf-8"?>
<!-- Generator: Adobe Illustrator 25.0.1, SVG Export Plug-In . SVG Version: 6.00 Build 0)  -->
<svg version="1.1" id="Layer_1" xmlns="http://www.w3.org/2000/svg" xmlns:xlink="http://www.w3.org/1999/xlink" x="0px" y="0px"
	 viewBox="0 0 959 466" style="enable-background:new 0 0 959 466;" xml:space="preserve">
<style type="text/css">
	.st0{fill:#FFFFFF;}
	.st1{fill:#4F2683;}
	.st2{fill:#E08433;}
</style>
<g>
	<g>
		<path class="st0" d="M494,189.7h18.8l19.8,66h0.4l21.2-66h17.9l22.4,66h0.4l18.8-66h17.9L603,278.1h-17l-23.4-66h-0.4l-21.3,66
			h-17.9L494,189.7z"/>
		<path class="st0" d="M641.8,233.9c0-6.5,1.2-12.5,3.6-18.1c2.4-5.6,5.8-10.5,10-14.7c4.2-4.2,9.2-7.5,14.9-10
			c5.7-2.4,11.9-3.6,18.5-3.6s12.7,1.2,18.5,3.6c5.7,2.4,10.7,5.8,14.9,10c4.2,4.2,7.6,9.1,10,14.7c2.4,5.6,3.6,11.6,3.6,18.1
			c0,6.5-1.2,12.5-3.6,18.2c-2.4,5.7-5.8,10.6-10,14.7c-4.2,4.2-9.2,7.5-14.9,9.9c-5.7,2.4-11.9,3.6-18.5,3.6s-12.7-1.2-18.5-3.6
			c-5.7-2.4-10.7-5.7-14.9-9.9c-4.2-4.2-7.5-9.1-10-14.7C643,246.4,641.8,240.4,641.8,233.9z M659.7,233.9c0,4.5,0.7,8.6,2,12.4
			c1.4,3.8,3.3,7,5.8,9.7c2.5,2.7,5.5,4.8,9.1,6.3c3.6,1.6,7.6,2.3,12.1,2.3c4.5,0,8.5-0.8,12.1-2.3c3.6-1.6,6.6-3.7,9.1-6.3
			c2.5-2.7,4.4-5.9,5.8-9.7s2.1-7.9,2.1-12.4c0-4.5-0.7-8.6-2.1-12.4s-3.3-7-5.8-9.7c-2.5-2.7-5.5-4.8-9.1-6.3
			c-3.6-1.6-7.6-2.3-12.1-2.3c-4.5,0-8.5,0.8-12.1,2.3c-3.6,1.6-6.6,3.7-9.1,6.3c-2.5,2.7-4.4,5.9-5.8,9.7
			C660.4,225.3,659.7,229.4,659.7,233.9z"/>
		<path class="st0" d="M756.8,189.7h16.8v13.6h0.4c1.1-2.4,2.6-4.5,4.5-6.4c1.9-1.9,3.9-3.6,6.2-4.9c2.3-1.4,4.8-2.5,7.6-3.3
			c2.7-0.8,5.5-1.2,8.2-1.2c2.7,0,5.2,0.4,7.5,1.1l-0.7,18.1c-1.4-0.4-2.7-0.7-4.1-0.9c-1.4-0.2-2.7-0.4-4.1-0.4
			c-8.2,0-14.5,2.3-18.8,6.9c-4.3,4.6-6.5,11.7-6.5,21.4v44.4h-16.8V189.7z"/>
		<path class="st0" d="M827.1,137.2h16.8v140.9h-16.8V137.2z"/>
		<path class="st0" d="M959.1,278.1h-16.8v-12.7h-0.4c-3.2,4.7-7.7,8.4-13.3,11c-5.7,2.6-11.5,3.9-17.4,3.9c-6.8,0-13-1.2-18.5-3.5
			c-5.5-2.4-10.2-5.6-14.2-9.9c-3.9-4.2-6.9-9.1-9-14.7c-2.1-5.6-3.2-11.7-3.2-18.3c0-6.6,1.1-12.7,3.2-18.4
			c2.1-5.6,5.1-10.6,9-14.7c3.9-4.2,8.6-7.4,14.2-9.8c5.5-2.4,11.7-3.5,18.5-3.5c6.3,0,12.3,1.3,17.9,4c5.6,2.7,9.9,6.3,12.9,10.9
			h0.4v-65.2h16.8V278.1z M913.2,264.7c4.5,0,8.5-0.8,12.1-2.3c3.6-1.6,6.6-3.7,9.1-6.3c2.5-2.7,4.4-5.9,5.8-9.7
			c1.4-3.8,2.1-7.9,2.1-12.4c0-4.5-0.7-8.6-2.1-12.4c-1.4-3.8-3.3-7-5.8-9.7c-2.5-2.7-5.5-4.8-9.1-6.3c-3.6-1.6-7.6-2.3-12.1-2.3
			c-4.5,0-8.5,0.8-12.1,2.3c-3.6,1.6-6.6,3.7-9.1,6.3c-2.5,2.7-4.4,5.9-5.8,9.7c-1.4,3.8-2,7.9-2,12.4c0,4.5,0.7,8.6,2,12.4
			c1.4,3.8,3.3,7,5.8,9.7c2.5,2.7,5.5,4.8,9.1,6.3C904.7,263.9,908.7,264.7,913.2,264.7z"/>
	</g>
	<g>
		<circle class="st0" cx="233" cy="233.1" r="232.8"/>
	</g>
	<g>
		<path class="st1" d="M100.8,252.9c0-2.3-1.2-4.2-3.6-5.6c-2.4-1.4-7-2.9-13.8-4.4c-6.8-1.5-12.4-3.5-16.8-5.9s-7.8-5.4-10.1-8.9
			c-2.3-3.5-3.5-7.5-3.5-12.1c0-8,3.3-14.7,10-19.9c6.6-5.2,15.3-7.8,26.1-7.8c11.5,0,20.8,2.6,27.8,7.8c7,5.2,10.5,12.1,10.5,20.6
			H99.9c0-7-3.7-10.5-11.1-10.5c-2.9,0-5.3,0.8-7.2,2.4s-2.9,3.6-2.9,5.9c0,2.4,1.2,4.4,3.6,5.9s6.2,2.8,11.4,3.7
			c5.2,1,9.8,2.1,13.7,3.5c13.2,4.5,19.7,12.6,19.7,24.4c0,8-3.5,14.5-10.6,19.5c-7.1,5-16.3,7.5-27.5,7.5c-7.5,0-14.2-1.3-20.1-4
			c-5.9-2.7-10.5-6.4-13.8-11c-3.3-4.6-4.9-9.5-4.9-14.6h25.5c0.1,4,1.5,7,4,8.9c2.6,1.9,5.9,2.8,10,2.8c3.7,0,6.5-0.8,8.4-2.3
			C99.9,257.3,100.8,255.3,100.8,252.9z"/>
		<path class="st1" d="M168.2,190l0.9,10.3c6-7.9,14.4-11.9,25-11.9c9.1,0,15.9,2.7,20.4,8.2c4.5,5.4,6.8,13.6,7,24.6v56.4h-27.3
			v-55.3c0-4.4-0.9-7.7-2.7-9.7c-1.8-2.1-5-3.1-9.7-3.1c-5.3,0-9.3,2.1-11.9,6.3v61.8h-27.3V190H168.2z"/>
		<path class="st2" d="M292,268c-5.8,7.4-13.6,11.1-23.4,11.1c-9.6,0-16.9-2.8-21.8-8.4c-4.9-5.6-7.4-13.6-7.4-24.1V190h27.3v56.9
			c0,7.5,3.6,11.2,10.9,11.2c6.3,0,10.7-2.2,13.3-6.7V190h27.4v87.5h-25.6L292,268z"/>
		<path class="st2" d="M333.5,233.1c0-8.8,1.5-16.7,4.4-23.5c2.9-6.8,7.1-12,12.5-15.7s11.8-5.5,19-5.5c9.1,0,16.2,3.1,21.4,9.2
			l1-7.6h24.8v84.2c0,7.7-1.8,14.4-5.4,20.1c-3.6,5.7-8.8,10.1-15.6,13.1c-6.8,3-14.7,4.6-23.6,4.6c-6.4,0-12.6-1.2-18.6-3.6
			c-6-2.4-10.6-5.6-13.8-9.5l11.4-16c5.1,6,11.8,9,20.1,9c12.1,0,18.1-6.2,18.1-18.6v-2.8c-5.2,5.8-11.8,8.7-19.8,8.7
			c-10.7,0-19.3-4.1-25.9-12.3c-6.6-8.2-9.9-19.1-9.9-32.8V233.1z M360.8,234.8c0,7.2,1.3,12.9,4,17c2.7,4.2,6.5,6.3,11.3,6.3
			c5.9,0,10.2-2,12.9-5.9v-36.8c-2.6-4-6.9-6-12.7-6c-4.9,0-8.7,2.2-11.4,6.5C362.2,220.2,360.8,226.5,360.8,234.8z"/>
	</g>
</g>
</svg>
