<?xml version="1.0" encoding="utf-8"?>
<!-- Generator: Adobe Illustrator 25.0.1, SVG Export Plug-In . SVG Version: 6.00 Build 0)  -->
<svg version="1.1" id="Layer_1" xmlns="http://www.w3.org/2000/svg" xmlns:xlink="http://www.w3.org/1999/xlink" x="0px" y="0px"
	 viewBox="0 0 207.7 157.6" style="enable-background:new 0 0 207.7 157.6;" xml:space="preserve">
<style type="text/css">
	.st0{fill:#231F20;}
	.st1{fill:#231E1F;}
	.st2{fill:#FFFFFF;}
	.st3{fill:#EA262A;}
</style>
<path class="st0" d="M202.8,150c1.1,0,1.7,0.4,1.7,1.1c0,0.9-0.6,1.3-1.7,1.3h-1.1V150H202.8z M203,149.6h-2.3v5.7h1v-2.6h1.3
	l1.3,2.6h1l-1.3-2.6c0.8-0.2,1.3-0.9,1.3-1.7C205.3,150,204.6,149.6,203,149.6L203,149.6z M202.8,147.4c-1.3,0.1-2.6,0.6-3.6,1.5
	c-1.8,2.1-1.8,5.1,0,7.2c1,0.9,2.3,1.4,3.6,1.5c1.3-0.1,2.6-0.6,3.6-1.5c1.8-2.1,1.8-5.1,0-7.2C205.4,148,204.1,147.5,202.8,147.4z
	 M207.3,152.5c0,1.2-0.5,2.3-1.3,3.2c-1.8,1.8-4.7,1.8-6.4,0c-0.9-0.9-1.3-2-1.3-3.2c0-1.2,0.5-2.3,1.3-3.2c0.8-0.9,2-1.3,3.2-1.3
	c1.2,0,2.3,0.5,3.2,1.3C206.8,150.2,207.3,151.3,207.3,152.5"/>
<path class="st1" d="M30,73.8C29.9,33.6,62.5,1,102.7,1c40.2,0,72.8,32.6,72.8,72.8c0,28.7-16.8,54.7-43,66.4l-30.6-0.1l-29.5-0.2
	C46.6,128.1,30,102.2,30,73.8L30,73.8z M29,73.8c0,28.9,16.9,55.1,43.2,67.1h0.1l29.7,0.2h30.8c37.2-16.6,53.9-60.2,37.3-97.4
	S109.8-10.2,72.6,6.4C46,18.3,28.9,44.7,29,73.8L29,73.8z"/>
<path class="st2" d="M44.4,39.6v-10c-2.4,3.2-4.6,6.5-6.5,10H44.4"/>
<path class="st1" d="M43.9,31.3v7.8h-5C40.4,36.4,42.1,33.8,43.9,31.3z M44,29.3c-2.4,3.2-4.6,6.5-6.5,10L37.1,40H45V28L44,29.3
	L44,29.3z"/>
<path class="st2" d="M153.8,21.4v7.2h6.4C158.3,26,156.1,23.6,153.8,21.4"/>
<path class="st1" d="M154.3,22.7l4.8,5.3h-4.8V22.7z M153.3,21.4v7.8h8.1l-8.2-9.2L153.3,21.4L153.3,21.4z"/>
<path class="st2" d="M117.3,2.1v4h7V3.7C122,3.1,119.7,2.5,117.3,2.1"/>
<path class="st1" d="M117.9,2.7l6,1.4v1.4h-6V2.7z M116.9,2.1v4.5h8.1V3.3l-8.1-2L116.9,2.1L116.9,2.1z"/>
<polygon class="st2" points="51.8,28.4 51.8,39.6 58.8,39.6 58.8,28.4 51.8,28.4 "/>
<path class="st1" d="M58.3,28.9v10.2h-6V28.9H58.3z M51.3,27.9v12.2h8.1V27.8L51.3,27.9z"/>
<polygon class="st2" points="51.8,39.6 51.8,50.9 58.8,50.9 58.8,39.6 51.8,39.6 "/>
<path class="st1" d="M58.3,40.1v10.2h-6V40.1H58.3z M51.3,39.1v12.3h8.1V39.1L51.3,39.1z"/>
<polygon class="st2" points="51.8,50.9 51.8,62.1 58.8,62.1 58.8,50.9 51.8,50.9 "/>
<path class="st1" d="M58.3,51.4v10.2h-6V51.4H58.3z M51.3,50.4v12.2h8.1V50.3L51.3,50.4z"/>
<polygon class="st2" points="51.8,62.1 51.8,73.4 58.8,73.4 58.8,62.1 51.8,62.1 "/>
<path class="st1" d="M58.3,62.6v10.2h-6V62.6H58.3z M51.3,61.6v12.3h8.1V61.6L51.3,61.6z"/>
<polygon class="st2" points="51.8,73.1 51.8,84.4 58.8,84.4 58.8,73.1 51.8,73.1 "/>
<path class="st1" d="M58.3,73.7v10.2h-6V73.7H58.3z M51.3,72.7V85h8.1V72.7H51.3z"/>
<polygon class="st2" points="51.8,84.4 51.8,95.7 58.8,95.7 58.8,84.4 51.8,84.4 "/>
<path class="st1" d="M58.3,84.9v10.2h-6V84.9H58.3z M51.3,83.9v12.3h8.1V83.9L51.3,83.9z"/>
<polygon class="st2" points="51.8,95.7 51.8,106.9 58.8,106.9 58.8,95.7 51.8,95.7 "/>
<path class="st1" d="M58.3,96.2v10.2h-6V96.2H58.3z M51.3,95.2v12.3h8.1V95.1L51.3,95.2z"/>
<polygon class="st2" points="51.8,106.9 51.8,118.2 58.8,118.2 58.8,106.9 51.8,106.9 "/>
<path class="st1" d="M58.3,107.4v10.2h-6v-10.2H58.3z M51.3,106.4v12.3h8.1v-12.3L51.3,106.4z"/>
<polygon class="st2" points="44.4,39.6 44.4,50.9 51.6,50.9 51.6,39.6 44.4,39.6 "/>
<path class="st1" d="M51.2,40.1v10.2H45V40.1H51.2z M44,39.1v12.3h8.2V39.1L44,39.1z"/>
<polygon class="st2" points="44.4,50.9 44.4,62.1 51.6,62.1 51.6,50.9 44.4,50.9 "/>
<path class="st1" d="M51.2,51.4v10.2H45V51.4H51.2z M44,50.4v12.2h8.2V50.3L44,50.4z"/>
<polygon class="st2" points="44.4,62.1 44.4,73.4 51.6,73.4 51.6,62.1 44.4,62.1 "/>
<path class="st1" d="M51.2,62.6v10.2H45V62.6H51.2z M44,61.6v12.3h8.2V61.6L44,61.6z"/>
<polygon class="st2" points="44.4,73.1 44.4,84.4 51.6,84.4 51.6,73.1 44.4,73.1 "/>
<path class="st1" d="M51.2,73.7v10.2H45V73.7H51.2z M44,72.7V85h8.2V72.7H44z"/>
<polygon class="st2" points="44.4,84.4 44.4,95.7 51.6,95.7 51.6,84.4 44.4,84.4 "/>
<path class="st1" d="M51.2,84.9v10.2H45V84.9H51.2z M44,83.9v12.3h8.2V83.9L44,83.9z"/>
<polygon class="st2" points="44.4,95.7 44.4,106.9 51.6,106.9 51.6,95.7 44.4,95.7 "/>
<path class="st1" d="M51.2,96.2v10.2H45V96.2H51.2z M44,95.2v12.3h8.2V95.1L44,95.2z"/>
<polygon class="st2" points="44.4,106.9 44.4,118.2 51.6,118.2 51.6,106.9 44.4,106.9 "/>
<path class="st1" d="M51.2,107.4v10.2H45v-10.2H51.2z M44,106.4v12.3h8.2v-12.3L44,106.4z"/>
<polygon class="st2" points="37.2,50.9 37.2,62.1 44.4,62.1 44.4,50.9 37.2,50.9 "/>
<path class="st1" d="M43.9,51.4v10.2h-6.2V51.4H43.9z M36.7,50.4v12.2H45V50.3L36.7,50.4z"/>
<polygon class="st2" points="37.2,62.1 37.2,73.4 44.4,73.4 44.4,62.1 37.2,62.1 "/>
<path class="st1" d="M43.9,62.6v10.2h-6.2V62.6H43.9z M36.7,61.6v12.3H45V61.6L36.7,61.6z"/>
<polygon class="st2" points="37.2,73.1 37.2,84.4 44.4,84.4 44.4,73.1 37.2,73.1 "/>
<path class="st1" d="M43.9,73.7v10.2h-6.2V73.7H43.9z M36.7,72.7V85H45V72.7H36.7z"/>
<polygon class="st2" points="37.2,84.4 37.2,95.7 44.4,95.7 44.4,84.4 37.2,84.4 "/>
<path class="st1" d="M43.9,84.9v10.2h-6.2V84.9H43.9z M36.7,83.9v12.3H45V83.9L36.7,83.9z"/>
<polygon class="st2" points="59,17.3 59,28.6 66.3,28.6 66.3,17.3 59,17.3 "/>
<path class="st1" d="M65.8,17.8v10.2h-6.2V17.8H65.8z M58.5,16.8v12.3h8.3V16.8L58.5,16.8z"/>
<polygon class="st2" points="59,28.4 59,39.6 66.3,39.6 66.3,28.4 59,28.4 "/>
<path class="st1" d="M65.8,28.9v10.2h-6.2V28.9H65.8z M58.5,27.9v12.2h8.3V27.8L58.5,27.9z"/>
<polygon class="st2" points="59,39.6 59,50.9 66.3,50.9 66.3,39.6 59,39.6 "/>
<path class="st1" d="M65.8,40.1v10.2h-6.2V40.1H65.8z M58.5,39.1v12.3h8.3V39.1L58.5,39.1z"/>
<polygon class="st2" points="59,50.9 59,62.1 66.3,62.1 66.3,50.9 59,50.9 "/>
<path class="st1" d="M65.8,51.4v10.2h-6.2V51.4H65.8z M58.5,50.4v12.2h8.3V50.3L58.5,50.4z"/>
<polygon class="st2" points="59,62.1 59,73.4 66.3,73.4 66.3,62.1 59,62.1 "/>
<path class="st1" d="M65.8,62.6v10.2h-6.2V62.6H65.8z M58.5,61.6v12.3h8.3V61.6L58.5,61.6z"/>
<polygon class="st2" points="59,73.1 59,84.4 66.3,84.4 66.3,73.1 59,73.1 "/>
<path class="st1" d="M65.8,73.7v10.2h-6.2V73.7H65.8z M58.5,72.7V85h8.3V72.7H58.5z"/>
<polygon class="st2" points="59,84.4 59,95.7 66.3,95.7 66.3,84.4 59,84.4 "/>
<path class="st1" d="M65.8,84.9v10.2h-6.2V84.9H65.8z M58.5,83.9v12.3h8.3V83.9L58.5,83.9z"/>
<polygon class="st2" points="59,95.7 59,106.9 66.3,106.9 66.3,95.7 59,95.7 "/>
<path class="st1" d="M65.8,96.2v10.2h-6.2V96.2H65.8z M58.5,95.2v12.3h8.3V95.1L58.5,95.2z"/>
<polygon class="st2" points="59,106.9 59,118.2 66.3,118.2 66.3,106.9 59,106.9 "/>
<path class="st1" d="M65.8,107.4v10.2h-6.2v-10.2H65.8z M58.5,106.4v12.3h8.3v-12.3L58.5,106.4z"/>
<polygon class="st2" points="59,118.2 59,129.4 66.3,129.4 66.3,118.2 59,118.2 "/>
<path class="st1" d="M65.8,118.7v10.2h-6.2v-10.2H65.8z M58.5,117.6v12.3h8.3v-12.3H58.5z"/>
<path class="st1" d="M73,17.8v10.2h-6V17.8H73z M66,16.8v12.3H74V16.8L66,16.8z"/>
<polygon class="st2" points="66.4,28.4 66.4,39.6 73.5,39.6 73.5,28.4 66.4,28.4 "/>
<path class="st1" d="M73,28.9v10.2h-6V28.9H73z M66,27.9v12.2H74V27.8L66,27.9z"/>
<polygon class="st2" points="66.4,39.6 66.4,50.9 73.5,50.9 73.5,39.6 66.4,39.6 "/>
<path class="st1" d="M73,40.1v10.2h-6V40.1H73z M66,39.1v12.3H74V39.1L66,39.1z"/>
<polygon class="st2" points="66.4,50.9 66.4,62.1 73.5,62.1 73.5,50.9 66.4,50.9 "/>
<path class="st1" d="M73,51.4v10.2h-6V51.4H73z M66,50.4v12.2H74V50.3L66,50.4z"/>
<polygon class="st2" points="66.4,62.1 66.4,73.4 73.5,73.4 73.5,62.1 66.4,62.1 "/>
<path class="st1" d="M73,62.6v10.2h-6V62.6H73z M66,61.6v12.3H74V61.6L66,61.6z"/>
<polygon class="st2" points="66.4,73.1 66.4,84.4 73.5,84.4 73.5,73.1 66.4,73.1 "/>
<path class="st1" d="M73,73.7v10.2h-6V73.7H73z M66,72.7V85H74V72.7H66z"/>
<polygon class="st2" points="66.4,84.4 66.4,95.7 73.5,95.7 73.5,84.4 66.4,84.4 "/>
<path class="st1" d="M73,84.9v10.2h-6V84.9H73z M66,83.9v12.3H74V83.9L66,83.9z"/>
<polygon class="st2" points="66.4,95.7 66.4,106.9 73.5,106.9 73.5,95.7 66.4,95.7 "/>
<path class="st1" d="M73,96.2v10.2h-6V96.2H73z M66,95.2v12.3H74V95.1L66,95.2z"/>
<polygon class="st2" points="66.4,106.9 66.4,118.2 73.5,118.2 73.5,106.9 66.4,106.9 "/>
<path class="st1" d="M73,107.4v10.2h-6v-10.2H73z M66,106.4v12.3H74v-12.3L66,106.4z"/>
<path class="st1" d="M73,118.7v10.2h-6v-10.2H73z M66,117.6v12.3H74v-12.3H66z"/>
<polygon class="st2" points="73.7,17.3 73.7,28.6 80.7,28.6 80.7,17.3 73.7,17.3 "/>
<path class="st1" d="M80.2,17.8v10.2h-6V17.8H80.2z M73.2,16.8v12.3h8.1V16.8L73.2,16.8z"/>
<path class="st1" d="M80.2,28.9v10.2h-6V28.9H80.2z M73.2,27.9v12.2h8.1V27.8L73.2,27.9z"/>
<polygon class="st2" points="73.7,39.6 73.7,50.9 80.7,50.9 80.7,39.6 73.7,39.6 "/>
<path class="st1" d="M80.2,40.1v10.2h-6V40.1H80.2z M73.2,39.1v12.3h8.1V39.1L73.2,39.1z"/>
<polygon class="st2" points="73.7,50.9 73.7,62.1 80.7,62.1 80.7,50.9 73.7,50.9 "/>
<path class="st1" d="M80.2,51.4v10.2h-6V51.4H80.2z M73.2,50.4v12.2h8.1V50.3L73.2,50.4z"/>
<polygon class="st2" points="73.7,62.1 73.7,73.4 80.7,73.4 80.7,62.1 73.7,62.1 "/>
<path class="st1" d="M80.2,62.6v10.2h-6V62.6H80.2z M73.2,61.6v12.3h8.1V61.6L73.2,61.6z"/>
<polygon class="st2" points="73.7,73.1 73.7,84.4 80.7,84.4 80.7,73.1 73.7,73.1 "/>
<path class="st1" d="M80.2,73.7v10.2h-6V73.7H80.2z M73.2,72.7V85h8.1V72.7H73.2z"/>
<polygon class="st2" points="73.7,84.4 73.7,95.7 80.7,95.7 80.7,84.4 73.7,84.4 "/>
<path class="st1" d="M80.2,84.9v10.2h-6V84.9H80.2z M73.2,83.9v12.3h8.1V83.9L73.2,83.9z"/>
<polygon class="st2" points="73.7,95.7 73.7,106.9 80.7,106.9 80.7,95.7 73.7,95.7 "/>
<path class="st1" d="M80.2,96.2v10.2h-6V96.2H80.2z M73.2,95.2v12.3h8.1V95.1L73.2,95.2z"/>
<path class="st1" d="M80.2,107.4v10.2h-6v-10.2H80.2z M73.2,106.4v12.3h8.1v-12.3L73.2,106.4z"/>
<polygon class="st2" points="73.7,118.2 73.7,129.4 80.7,129.4 80.7,118.2 73.7,118.2 "/>
<path class="st1" d="M80.2,118.7v10.2h-6v-10.2H80.2z M73.2,117.6v12.3h8.1v-12.3H73.2z"/>
<path class="st1" d="M80.2,129.7v10.2h-6v-10.2H80.2z M73.2,128.7v12.3h8.1v-12.3L73.2,128.7z"/>
<polygon class="st2" points="80.9,17.3 80.9,28.6 88.1,28.6 88.1,17.3 80.9,17.3 "/>
<path class="st1" d="M87.6,17.8v10.2h-6.2V17.8H87.6z M80.4,16.8v12.3h8.2V16.8L80.4,16.8z"/>
<polygon class="st2" points="80.9,6.1 80.9,17.3 88.1,17.3 88.1,6.1 80.9,6.1 "/>
<path class="st1" d="M87.6,6.6v10.2h-6.2V6.6H87.6z M80.4,5.6v12.3h8.2V5.6H80.4z"/>
<polygon class="st2" points="80.9,28.4 80.9,39.6 88.1,39.6 88.1,28.4 80.9,28.4 "/>
<path class="st1" d="M87.6,28.9v10.2h-6.2V28.9H87.6z M80.4,27.9v12.2h8.2V27.8L80.4,27.9z"/>
<polygon class="st2" points="80.9,39.6 80.9,50.9 88.1,50.9 88.1,39.6 80.9,39.6 "/>
<path class="st1" d="M87.6,40.1v10.2h-6.2V40.1H87.6z M80.4,39.1v12.3h8.2V39.1L80.4,39.1z"/>
<polygon class="st2" points="80.9,50.9 80.9,62.1 88.1,62.1 88.1,50.9 80.9,50.9 "/>
<path class="st1" d="M87.6,51.4v10.2h-6.2V51.4H87.6z M80.4,50.4v12.2h8.2V50.3L80.4,50.4z"/>
<polygon class="st2" points="80.9,62.1 80.9,73.4 88.1,73.4 88.1,62.1 80.9,62.1 "/>
<path class="st1" d="M87.6,62.6v10.2h-6.2V62.6H87.6z M80.4,61.6v12.3h8.2V61.6L80.4,61.6z"/>
<polygon class="st2" points="80.9,73.1 80.9,84.4 88.1,84.4 88.1,73.1 80.9,73.1 "/>
<path class="st1" d="M87.6,73.7v10.2h-6.2V73.7H87.6z M80.4,72.7V85h8.2V72.7H80.4z"/>
<polygon class="st2" points="80.9,84.4 80.9,95.7 88.1,95.7 88.1,84.4 80.9,84.4 "/>
<path class="st1" d="M87.6,84.9v10.2h-6.2V84.9H87.6z M80.4,83.9v12.3h8.2V83.9L80.4,83.9z"/>
<polygon class="st2" points="80.9,95.7 80.9,106.9 88.1,106.9 88.1,95.7 80.9,95.7 "/>
<path class="st1" d="M87.6,96.2v10.2h-6.2V96.2H87.6z M80.4,95.2v12.3h8.2V95.1L80.4,95.2z"/>
<polygon class="st2" points="80.9,106.9 80.9,118.2 88.1,118.2 88.1,106.9 80.9,106.9 "/>
<path class="st1" d="M87.6,107.4v10.2h-6.2v-10.2H87.6z M80.4,106.4v12.3h8.2v-12.3L80.4,106.4z"/>
<path class="st1" d="M87.6,118.7v10.2h-6.2v-10.2H87.6z M80.4,117.6v12.3h8.2v-12.3H80.4z"/>
<polygon class="st2" points="80.9,129.2 80.9,140.4 88.1,140.4 88.1,129.2 80.9,129.2 "/>
<path class="st1" d="M87.6,129.7v10.2h-6.2v-10.2H87.6z M80.4,128.7v12.3h8.2v-12.3L80.4,128.7z"/>
<polygon class="st2" points="88.3,17.3 88.3,28.6 95.3,28.6 95.3,17.3 88.3,17.3 "/>
<path class="st1" d="M94.8,17.8v10.2h-6V17.8H94.8z M87.8,16.8v12.3h8.1V16.8L87.8,16.8z"/>
<polygon class="st2" points="88.3,6.1 88.3,17.3 95.3,17.3 95.3,6.1 88.3,6.1 "/>
<path class="st1" d="M94.8,6.6v10.2h-6V6.6H94.8z M87.8,5.6v12.3h8.1V5.6H87.8z"/>
<polygon class="st2" points="88.3,28.4 88.3,39.6 95.3,39.6 95.3,28.4 88.3,28.4 "/>
<path class="st1" d="M94.8,28.9v10.2h-6V28.9H94.8z M87.8,27.9v12.2h8.1V27.8L87.8,27.9z"/>
<polygon class="st2" points="88.3,39.6 88.3,50.9 95.3,50.9 95.3,39.6 88.3,39.6 "/>
<path class="st1" d="M94.8,40.1v10.2h-6V40.1H94.8z M87.8,39.1v12.3h8.1V39.1L87.8,39.1z"/>
<polygon class="st2" points="88.3,50.9 88.3,62.1 95.3,62.1 95.3,50.9 88.3,50.9 "/>
<path class="st1" d="M94.8,51.4v10.2h-6V51.4H94.8z M87.8,50.4v12.2h8.1V50.3L87.8,50.4z"/>
<polygon class="st2" points="88.3,62.1 88.3,73.4 95.3,73.4 95.3,62.1 88.3,62.1 "/>
<path class="st1" d="M94.8,62.6v10.2h-6V62.6H94.8z M87.8,61.6v12.3h8.1V61.6L87.8,61.6z"/>
<polygon class="st2" points="88.3,73.1 88.3,84.4 95.3,84.4 95.3,73.1 88.3,73.1 "/>
<path class="st1" d="M94.8,73.7v10.2h-6V73.7H94.8z M87.8,72.7V85h8.1V72.7H87.8z"/>
<polygon class="st2" points="88.3,84.4 88.3,95.7 95.3,95.7 95.3,84.4 88.3,84.4 "/>
<path class="st1" d="M94.8,84.9v10.2h-6V84.9H94.8z M87.8,83.9v12.3h8.1V83.9L87.8,83.9z"/>
<polygon class="st2" points="88.3,95.7 88.3,106.9 95.3,106.9 95.3,95.7 88.3,95.7 "/>
<path class="st1" d="M94.8,96.2v10.2h-6V96.2H94.8z M87.8,95.2v12.3h8.1V95.1L87.8,95.2z"/>
<polygon class="st2" points="88.3,106.9 88.3,118.2 95.3,118.2 95.3,106.9 88.3,106.9 "/>
<path class="st1" d="M94.8,107.4v10.2h-6v-10.2H94.8z M87.8,106.4v12.3h8.1v-12.3L87.8,106.4z"/>
<polygon class="st2" points="88.3,118.2 88.3,129.4 95.3,129.4 95.3,118.2 88.3,118.2 "/>
<path class="st1" d="M94.8,118.7v10.2h-6v-10.2H94.8z M87.8,117.6v12.3h8.1v-12.3H87.8z"/>
<polygon class="st2" points="88.3,129.2 88.3,140.4 95.3,140.4 95.3,129.2 88.3,129.2 "/>
<path class="st1" d="M94.8,129.7v10.2h-6v-10.2H94.8z M87.8,128.7v12.3h8.1v-12.3L87.8,128.7z"/>
<polygon class="st2" points="95.5,17.3 95.5,28.6 102.7,28.6 102.7,17.3 95.5,17.3 "/>
<path class="st1" d="M102.2,17.8v10.2H96V17.8H102.2z M95,16.8v12.3h8.3V16.8L95,16.8z"/>
<path class="st1" d="M102.2,6.6v10.2H96V6.6H102.2z M95,5.6v12.3h8.3V5.6H95z"/>
<polygon class="st2" points="95.5,28.4 95.5,39.6 102.7,39.6 102.7,28.4 95.5,28.4 "/>
<path class="st1" d="M102.2,28.9v10.2H96V28.9H102.2z M95,27.9v12.2h8.3V27.8L95,27.9z"/>
<polygon class="st2" points="95.5,39.6 95.5,50.9 102.7,50.9 102.7,39.6 95.5,39.6 "/>
<path class="st1" d="M102.2,40.1v10.2H96V40.1H102.2z M95,39.1v12.3h8.3V39.1L95,39.1z"/>
<polygon class="st2" points="95.5,50.9 95.5,62.1 102.7,62.1 102.7,50.9 95.5,50.9 "/>
<path class="st1" d="M102.2,51.4v10.2H96V51.4H102.2z M95,50.4v12.2h8.3V50.3L95,50.4z"/>
<polygon class="st2" points="95.5,62.1 95.5,73.4 102.7,73.4 102.7,62.1 95.5,62.1 "/>
<path class="st1" d="M102.2,62.6v10.2H96V62.6H102.2z M95,61.6v12.3h8.3V61.6L95,61.6z"/>
<polygon class="st2" points="95.5,73.1 95.5,84.4 102.7,84.4 102.7,73.1 95.5,73.1 "/>
<path class="st1" d="M102.2,73.7v10.2H96V73.7H102.2z M95,72.7V85h8.3V72.7H95z"/>
<polygon class="st2" points="95.5,84.4 95.5,95.7 102.7,95.7 102.7,84.4 95.5,84.4 "/>
<path class="st1" d="M102.2,84.9v10.2H96V84.9H102.2z M95,83.9v12.3h8.3V83.9L95,83.9z"/>
<polygon class="st2" points="95.5,95.7 95.5,106.9 102.7,106.9 102.7,95.7 95.5,95.7 "/>
<path class="st1" d="M102.2,96.2v10.2H96V96.2H102.2z M95,95.2v12.3h8.3V95.1L95,95.2z"/>
<polygon class="st2" points="95.5,106.9 95.5,118.2 102.7,118.2 102.7,106.9 95.5,106.9 "/>
<path class="st1" d="M102.2,107.4v10.2H96v-10.2H102.2z M95,106.4v12.3h8.3v-12.3L95,106.4z"/>
<polygon class="st2" points="95.5,118.2 95.5,129.4 102.7,129.4 102.7,118.2 95.5,118.2 "/>
<path class="st1" d="M102.2,118.7v10.2H96v-10.2H102.2z M95,117.6v12.3h8.3v-12.3H95z"/>
<polygon class="st2" points="95.5,129.2 95.5,140.4 102.7,140.4 102.7,129.2 95.5,129.2 "/>
<path class="st1" d="M102.2,129.7v10.2H96v-10.2H102.2z M95,128.7v12.3h8.3v-12.3L95,128.7z"/>
<polygon class="st2" points="102.7,17.3 102.7,28.6 109.9,28.6 109.9,17.3 102.7,17.3 "/>
<path class="st1" d="M109.4,17.8v10.2h-6.2V17.8H109.4z M102.2,16.8v12.3h8.2V16.8L102.2,16.8z"/>
<polygon class="st2" points="102.7,6.1 102.7,17.3 109.9,17.3 109.9,6.1 102.7,6.1 "/>
<path class="st1" d="M109.4,6.6v10.2h-6.2V6.6H109.4z M102.2,5.6v12.3h8.2V5.6H102.2z"/>
<polygon class="st2" points="102.7,28.4 102.7,39.6 109.9,39.6 109.9,28.4 102.7,28.4 "/>
<path class="st1" d="M109.4,28.9v10.2h-6.2V28.9H109.4z M102.2,27.9v12.2h8.2V27.8L102.2,27.9z"/>
<polygon class="st2" points="102.7,39.6 102.7,50.9 109.9,50.9 109.9,39.6 102.7,39.6 "/>
<path class="st1" d="M109.4,40.1v10.2h-6.2V40.1H109.4z M102.2,39.1v12.3h8.2V39.1L102.2,39.1z"/>
<polygon class="st2" points="102.7,50.9 102.7,62.1 109.9,62.1 109.9,50.9 102.7,50.9 "/>
<path class="st1" d="M109.4,51.4v10.2h-6.2V51.4H109.4z M102.2,50.4v12.2h8.2V50.3L102.2,50.4z"/>
<polygon class="st2" points="102.7,62.1 102.7,73.4 109.9,73.4 109.9,62.1 102.7,62.1 "/>
<path class="st1" d="M109.4,62.6v10.2h-6.2V62.6H109.4z M102.2,61.6v12.3h8.2V61.6L102.2,61.6z"/>
<polygon class="st2" points="102.7,73.1 102.7,84.4 109.9,84.4 109.9,73.1 102.7,73.1 "/>
<path class="st1" d="M109.4,73.7v10.2h-6.2V73.7H109.4z M102.2,72.7V85h8.2V72.7H102.2z"/>
<polygon class="st2" points="102.7,84.4 102.7,95.7 109.9,95.7 109.9,84.4 102.7,84.4 "/>
<path class="st1" d="M109.4,84.9v10.2h-6.2V84.9H109.4z M102.2,83.9v12.3h8.2V83.9L102.2,83.9z"/>
<polygon class="st2" points="102.7,95.7 102.7,106.9 109.9,106.9 109.9,95.7 102.7,95.7 "/>
<path class="st1" d="M109.4,96.2v10.2h-6.2V96.2H109.4z M102.2,95.2v12.3h8.2V95.1L102.2,95.2z"/>
<path class="st1" d="M109.4,107.4v10.2h-6.2v-10.2H109.4z M102.2,106.4v12.3h8.2v-12.3L102.2,106.4z"/>
<polygon class="st2" points="102.7,118.2 102.7,129.4 109.9,129.4 109.9,118.2 102.7,118.2 "/>
<path class="st1" d="M109.4,118.7v10.2h-6.2v-10.2H109.4z M102.2,117.6v12.3h8.2v-12.3H102.2z"/>
<polygon class="st2" points="102.7,129.2 102.7,140.4 109.9,140.4 109.9,129.2 102.7,129.2 "/>
<path class="st1" d="M109.4,129.7v10.2h-6.2v-10.2H109.4z M102.2,128.7v12.3h8.2v-12.3L102.2,128.7z"/>
<polygon class="st2" points="109.9,17.3 109.9,28.6 117.2,28.6 117.2,17.3 109.9,17.3 "/>
<path class="st1" d="M116.6,17.8v10.2h-6.2V17.8H116.6z M109.4,16.8v12.3h8.2V16.8L109.4,16.8z"/>
<polygon class="st2" points="109.9,6.1 109.9,17.3 117.2,17.3 117.2,6.1 109.9,6.1 "/>
<path class="st1" d="M116.6,6.6v10.2h-6.2V6.6H116.6z M109.4,5.6v12.3h8.2V5.6H109.4z"/>
<polygon class="st2" points="109.9,28.4 109.9,39.6 117.2,39.6 117.2,28.4 109.9,28.4 "/>
<path class="st1" d="M116.6,28.9v10.2h-6.2V28.9H116.6z M109.4,27.9v12.2h8.2V27.8L109.4,27.9z"/>
<polygon class="st2" points="109.9,39.6 109.9,50.9 117.2,50.9 117.2,39.6 109.9,39.6 "/>
<path class="st1" d="M116.6,40.1v10.2h-6.2V40.1H116.6z M109.4,39.1v12.3h8.2V39.1L109.4,39.1z"/>
<polygon class="st2" points="109.9,50.9 109.9,62.1 117.2,62.1 117.2,50.9 109.9,50.9 "/>
<path class="st1" d="M116.6,51.4v10.2h-6.2V51.4H116.6z M109.4,50.4v12.2h8.2V50.3L109.4,50.4z"/>
<polygon class="st2" points="109.9,62.1 109.9,73.4 117.2,73.4 117.2,62.1 109.9,62.1 "/>
<path class="st1" d="M116.6,62.6v10.2h-6.2V62.6H116.6z M109.4,61.6v12.3h8.2V61.6L109.4,61.6z"/>
<polygon class="st2" points="109.9,73.1 109.9,84.4 117.2,84.4 117.2,73.1 109.9,73.1 "/>
<path class="st1" d="M116.6,73.7v10.2h-6.2V73.7H116.6z M109.4,72.7V85h8.2V72.7H109.4z"/>
<polygon class="st2" points="109.9,84.4 109.9,95.7 117.2,95.7 117.2,84.4 109.9,84.4 "/>
<path class="st1" d="M116.6,84.9v10.2h-6.2V84.9H116.6z M109.4,83.9v12.3h8.2V83.9L109.4,83.9z"/>
<polygon class="st2" points="109.9,95.7 109.9,106.9 117.2,106.9 117.2,95.7 109.9,95.7 "/>
<path class="st1" d="M116.6,96.2v10.2h-6.2V96.2H116.6z M109.4,95.2v12.3h8.2V95.1L109.4,95.2z"/>
<polygon class="st2" points="109.9,106.9 109.9,118.2 117.2,118.2 117.2,106.9 109.9,106.9 "/>
<path class="st1" d="M116.6,107.4v10.2h-6.2v-10.2H116.6z M109.4,106.4v12.3h8.2v-12.3L109.4,106.4z"/>
<polygon class="st2" points="109.9,118.2 109.9,129.4 117.2,129.4 117.2,118.2 109.9,118.2 "/>
<path class="st1" d="M116.6,118.7v10.2h-6.2v-10.2H116.6z M109.4,117.6v12.3h8.2v-12.3H109.4z"/>
<polygon class="st2" points="109.9,129.2 109.9,140.4 117.2,140.4 117.2,129.2 109.9,129.2 "/>
<path class="st1" d="M116.6,129.7v10.2h-6.2v-10.2H116.6z M109.4,128.7v12.3h8.2v-12.3L109.4,128.7z"/>
<polygon class="st2" points="117.3,17.3 117.3,28.6 124.4,28.6 124.4,17.3 117.3,17.3 "/>
<path class="st1" d="M123.9,17.8v10.2h-6V17.8H123.9z M116.9,16.8v12.3h8.1V16.8L116.9,16.8z"/>
<polygon class="st2" points="117.3,6.1 117.3,17.3 124.4,17.3 124.4,6.1 117.3,6.1 "/>
<path class="st1" d="M123.9,6.6v10.2h-6V6.6H123.9z M116.9,5.6v12.3h8.1V5.6H116.9z"/>
<polygon class="st2" points="117.3,28.4 117.3,39.6 124.4,39.6 124.4,28.4 117.3,28.4 "/>
<path class="st1" d="M123.9,28.9v10.2h-6V28.9H123.9z M116.9,27.9v12.2h8.1V27.8L116.9,27.9z"/>
<polygon class="st2" points="117.3,39.6 117.3,50.9 124.4,50.9 124.4,39.6 117.3,39.6 "/>
<path class="st1" d="M123.9,40.1v10.2h-6V40.1H123.9z M116.9,39.1v12.3h8.1V39.1L116.9,39.1z"/>
<polygon class="st2" points="117.3,50.9 117.3,62.1 124.4,62.1 124.4,50.9 117.3,50.9 "/>
<path class="st1" d="M123.9,51.4v10.2h-6V51.4H123.9z M116.9,50.4v12.2h8.1V50.3L116.9,50.4z"/>
<polygon class="st2" points="117.3,62.1 117.3,73.4 124.4,73.4 124.4,62.1 117.3,62.1 "/>
<path class="st1" d="M123.9,62.6v10.2h-6V62.6H123.9z M116.9,61.6v12.3h8.1V61.6L116.9,61.6z"/>
<polygon class="st2" points="117.3,73.1 117.3,84.4 124.4,84.4 124.4,73.1 117.3,73.1 "/>
<path class="st1" d="M123.9,73.7v10.2h-6V73.7H123.9z M116.9,72.7V85h8.1V72.7H116.9z"/>
<polygon class="st2" points="117.3,84.4 117.3,95.7 124.4,95.7 124.4,84.4 117.3,84.4 "/>
<path class="st1" d="M123.9,84.9v10.2h-6V84.9H123.9z M116.9,83.9v12.3h8.1V83.9L116.9,83.9z"/>
<polygon class="st2" points="117.3,95.7 117.3,106.9 124.4,106.9 124.4,95.7 117.3,95.7 "/>
<path class="st1" d="M123.9,96.2v10.2h-6V96.2H123.9z M116.9,95.2v12.3h8.1V95.1L116.9,95.2z"/>
<polygon class="st2" points="117.3,106.9 117.3,118.2 124.4,118.2 124.4,106.9 117.3,106.9 "/>
<path class="st1" d="M123.9,107.4v10.2h-6v-10.2H123.9z M116.9,106.4v12.3h8.1v-12.3L116.9,106.4z"/>
<polygon class="st2" points="117.3,118.2 117.3,129.4 124.4,129.4 124.4,118.2 117.3,118.2 "/>
<path class="st1" d="M123.9,118.7v10.2h-6v-10.2H123.9z M116.9,117.6v12.3h8.1v-12.3H116.9z"/>
<polygon class="st2" points="117.3,129.2 117.3,140.4 124.4,140.4 124.4,129.2 117.3,129.2 "/>
<path class="st1" d="M123.9,129.7v10.2h-6v-10.2H123.9z M116.9,128.7v12.3h8.1v-12.3L116.9,128.7z"/>
<polygon class="st2" points="124.6,17.3 124.6,28.6 131.8,28.6 131.8,17.3 124.6,17.3 "/>
<path class="st1" d="M131.2,17.8v10.2h-6.2V17.8H131.2z M124,16.8v12.3h8.3V16.8L124,16.8z"/>
<polygon class="st2" points="124.6,28.4 124.6,39.6 131.8,39.6 131.8,28.4 124.6,28.4 "/>
<path class="st1" d="M131.2,28.9v10.2h-6.2V28.9H131.2z M124,27.9v12.2h8.3V27.8L124,27.9z"/>
<polygon class="st2" points="124.6,39.6 124.6,50.9 131.8,50.9 131.8,39.6 124.6,39.6 "/>
<path class="st1" d="M131.2,40.1v10.2h-6.2V40.1H131.2z M124,39.1v12.3h8.3V39.1L124,39.1z"/>
<polygon class="st2" points="124.6,50.9 124.6,62.1 131.8,62.1 131.8,50.9 124.6,50.9 "/>
<path class="st1" d="M131.2,51.4v10.2h-6.2V51.4H131.2z M124,50.4v12.2h8.3V50.3L124,50.4z"/>
<polygon class="st2" points="124.6,62.1 124.6,73.4 131.8,73.4 131.8,62.1 124.6,62.1 "/>
<path class="st1" d="M131.2,62.6v10.2h-6.2V62.6H131.2z M124,61.6v12.3h8.3V61.6L124,61.6z"/>
<polygon class="st2" points="124.6,73.1 124.6,84.4 131.8,84.4 131.8,73.1 124.6,73.1 "/>
<path class="st1" d="M131.2,73.7v10.2h-6.2V73.7H131.2z M124,72.7V85h8.3V72.7H124z"/>
<polygon class="st2" points="124.6,84.4 124.6,95.7 131.8,95.7 131.8,84.4 124.6,84.4 "/>
<path class="st1" d="M131.2,84.9v10.2h-6.2V84.9H131.2z M124,83.9v12.3h8.3V83.9L124,83.9z"/>
<polygon class="st2" points="124.6,95.7 124.6,106.9 131.8,106.9 131.8,95.7 124.6,95.7 "/>
<path class="st1" d="M131.2,96.2v10.2h-6.2V96.2H131.2z M124,95.2v12.3h8.3V95.1L124,95.2z"/>
<polygon class="st2" points="124.6,106.9 124.6,118.2 131.8,118.2 131.8,106.9 124.6,106.9 "/>
<path class="st1" d="M131.2,107.4v10.2h-6.2v-10.2H131.2z M124,106.4v12.3h8.3v-12.3L124,106.4z"/>
<polygon class="st2" points="124.6,118.2 124.6,129.4 131.8,129.4 131.8,118.2 124.6,118.2 "/>
<path class="st1" d="M131.2,118.7v10.2h-6.2v-10.2H131.2z M124,117.6v12.3h8.3v-12.3H124z"/>
<polygon class="st2" points="124.6,129.2 124.6,140.4 131.8,140.4 131.8,129.2 124.6,129.2 "/>
<path class="st1" d="M131.2,129.7v10.2h-6.2v-10.2H131.2z M124,128.7v12.3h8.3v-12.3L124,128.7z"/>
<polygon class="st2" points="132,17.3 132,28.6 139,28.6 139,17.3 132,17.3 "/>
<path class="st1" d="M138.5,17.8v10.2h-6V17.8H138.5z M131.5,16.8v12.3h8.1V16.8L131.5,16.8z"/>
<path class="st1" d="M138.5,28.9v10.2h-6V28.9H138.5z M131.5,27.9v12.2h8.1V27.8L131.5,27.9z"/>
<polygon class="st2" points="132,39.6 132,50.9 139,50.9 139,39.6 132,39.6 "/>
<path class="st1" d="M138.5,40.1v10.2h-6V40.1H138.5z M131.5,39.1v12.3h8.1V39.1L131.5,39.1z"/>
<polygon class="st2" points="132,50.9 132,62.1 139,62.1 139,50.9 132,50.9 "/>
<path class="st1" d="M138.5,51.4v10.2h-6V51.4H138.5z M131.5,50.4v12.2h8.1V50.3L131.5,50.4z"/>
<polygon class="st2" points="132,62.1 132,73.4 139,73.4 139,62.1 132,62.1 "/>
<path class="st1" d="M138.5,62.6v10.2h-6V62.6H138.5z M131.5,61.6v12.3h8.1V61.6L131.5,61.6z"/>
<polygon class="st2" points="132,73.1 132,84.4 139,84.4 139,73.1 132,73.1 "/>
<path class="st1" d="M138.5,73.7v10.2h-6V73.7H138.5z M131.5,72.7V85h8.1V72.7H131.5z"/>
<polygon class="st2" points="132,84.4 132,95.7 139,95.7 139,84.4 132,84.4 "/>
<path class="st1" d="M138.5,84.9v10.2h-6V84.9H138.5z M131.5,83.9v12.3h8.1V83.9L131.5,83.9z"/>
<polygon class="st2" points="132,95.7 132,106.9 139,106.9 139,95.7 132,95.7 "/>
<path class="st1" d="M138.5,96.2v10.2h-6V96.2H138.5z M131.5,95.2v12.3h8.1V95.1L131.5,95.2z"/>
<polygon class="st2" points="132,106.9 132,118.2 139,118.2 139,106.9 132,106.9 "/>
<path class="st1" d="M138.5,107.4v10.2h-6v-10.2H138.5z M131.5,106.4v12.3h8.1v-12.3L131.5,106.4z"/>
<path class="st1" d="M138.5,118.7v10.2h-6v-10.2H138.5z M131.5,117.6v12.3h8.1v-12.3H131.5z"/>
<polygon class="st2" points="139.2,17.3 139.2,28.6 146.2,28.6 146.2,17.3 139.2,17.3 "/>
<path class="st1" d="M145.7,17.8v10.2h-6V17.8H145.7z M138.7,16.8v12.3h8.1V16.8L138.7,16.8z"/>
<polygon class="st2" points="139.2,28.4 139.2,39.6 146.2,39.6 146.2,28.4 139.2,28.4 "/>
<path class="st1" d="M145.7,28.9v10.2h-6V28.9H145.7z M138.7,27.9v12.2h8.1V27.8L138.7,27.9z"/>
<polygon class="st2" points="139.2,39.6 139.2,50.9 146.2,50.9 146.2,39.6 139.2,39.6 "/>
<path class="st1" d="M145.7,40.1v10.2h-6V40.1H145.7z M138.7,39.1v12.3h8.1V39.1L138.7,39.1z"/>
<polygon class="st2" points="139.2,50.9 139.2,62.1 146.2,62.1 146.2,50.9 139.2,50.9 "/>
<path class="st1" d="M145.7,51.4v10.2h-6V51.4H145.7z M138.7,50.4v12.2h8.1V50.3L138.7,50.4z"/>
<polygon class="st2" points="139.2,62.1 139.2,73.4 146.2,73.4 146.2,62.1 139.2,62.1 "/>
<path class="st1" d="M145.7,62.6v10.2h-6V62.6H145.7z M138.7,61.6v12.3h8.1V61.6L138.7,61.6z"/>
<polygon class="st2" points="139.2,73.1 139.2,84.4 146.2,84.4 146.2,73.1 139.2,73.1 "/>
<path class="st1" d="M145.7,73.7v10.2h-6V73.7H145.7z M138.7,72.7V85h8.1V72.7H138.7z"/>
<polygon class="st2" points="139.2,84.4 139.2,95.7 146.2,95.7 146.2,84.4 139.2,84.4 "/>
<path class="st1" d="M145.7,84.9v10.2h-6V84.9H145.7z M138.7,83.9v12.3h8.1V83.9L138.7,83.9z"/>
<polygon class="st2" points="139.2,95.7 139.2,106.9 146.2,106.9 146.2,95.7 139.2,95.7 "/>
<path class="st1" d="M145.7,96.2v10.2h-6V96.2H145.7z M138.7,95.2v12.3h8.1V95.1L138.7,95.2z"/>
<polygon class="st0" points="66.5,28.6 73.5,28.6 73.5,17.3 66.5,17.3 66.5,28.6 "/>
<polygon class="st0" points="66.5,129.4 73.5,129.4 73.5,118.2 66.5,118.2 66.5,129.4 "/>
<polygon class="st0" points="73.7,39.6 80.7,39.6 80.7,28.4 73.7,28.4 73.7,39.6 "/>
<polygon class="st0" points="73.7,118.2 80.7,118.2 80.7,106.9 73.7,106.9 73.7,118.2 "/>
<polygon class="st0" points="73.7,140.4 80.7,140.4 80.7,129.2 73.7,129.2 73.7,140.4 "/>
<polygon class="st0" points="80.9,129.4 88.1,129.4 88.1,118.2 80.9,118.2 80.9,129.4 "/>
<polygon class="st0" points="95.5,17.3 102.7,17.3 102.7,6.1 95.5,6.1 95.5,17.3 "/>
<polygon class="st0" points="102.7,118.2 109.9,118.2 109.9,106.9 102.7,106.9 102.7,118.2 "/>
<polygon class="st0" points="131.9,39.6 139,39.6 139,28.4 131.9,28.4 131.9,39.6 "/>
<polygon class="st0" points="131.9,129.4 139,129.4 139,118.2 131.9,118.2 131.9,129.4 "/>
<polygon class="st0" points="139.2,118.2 146.2,118.2 146.2,106.9 139.2,106.9 139.2,118.2 "/>
<path class="st1" d="M145.7,107.4v10.2h-6v-10.2H145.7z M138.7,106.4v12.3h8.1v-12.3L138.7,106.4z"/>
<polygon class="st2" points="139.2,118.2 139.2,129.4 146.2,129.4 146.2,118.2 139.2,118.2 "/>
<path class="st1" d="M145.7,118.7v10.2h-6v-10.2H145.7z M138.7,117.6v12.3h8.1v-12.3H138.7z"/>
<polygon class="st2" points="146.4,28.4 146.4,39.6 153.4,39.6 153.4,28.4 146.4,28.4 "/>
<path class="st1" d="M152.9,28.9v10.2h-6V28.9H152.9z M145.9,27.9v12.2h8.1V27.8L145.9,27.9z"/>
<polygon class="st2" points="146.4,39.6 146.4,50.9 153.4,50.9 153.4,39.6 146.4,39.6 "/>
<path class="st1" d="M152.9,40.1v10.2h-6V40.1H152.9z M145.9,39.1v12.3h8.1V39.1L145.9,39.1z"/>
<polygon class="st2" points="146.4,50.9 146.4,62.1 153.4,62.1 153.4,50.9 146.4,50.9 "/>
<path class="st1" d="M152.9,51.4v10.2h-6V51.4H152.9z M145.9,50.4v12.2h8.1V50.3L145.9,50.4z"/>
<polygon class="st2" points="146.4,62.1 146.4,73.4 153.4,73.4 153.4,62.1 146.4,62.1 "/>
<path class="st1" d="M152.9,62.6v10.2h-6V62.6H152.9z M145.9,61.6v12.3h8.1V61.6L145.9,61.6z"/>
<polygon class="st2" points="146.4,73.1 146.4,84.4 153.4,84.4 153.4,73.1 146.4,73.1 "/>
<path class="st1" d="M152.9,73.7v10.2h-6V73.7H152.9z M145.9,72.7V85h8.1V72.7H145.9z"/>
<polygon class="st2" points="146.4,84.4 146.4,95.7 153.4,95.7 153.4,84.4 146.4,84.4 "/>
<path class="st1" d="M152.9,84.9v10.2h-6V84.9H152.9z M145.9,83.9v12.3h8.1V83.9L145.9,83.9z"/>
<polygon class="st2" points="146.4,95.7 146.4,106.9 153.4,106.9 153.4,95.7 146.4,95.7 "/>
<path class="st1" d="M152.9,96.2v10.2h-6V96.2H152.9z M145.9,95.2v12.3h8.1V95.1L145.9,95.2z"/>
<polygon class="st2" points="146.4,106.9 146.4,118.2 153.4,118.2 153.4,106.9 146.4,106.9 "/>
<path class="st1" d="M152.9,107.4v10.2h-6v-10.2H152.9z M145.9,106.4v12.3h8.1v-12.3L145.9,106.4z"/>
<polygon class="st2" points="153.8,39.6 153.8,50.9 160.8,50.9 160.8,39.6 153.8,39.6 "/>
<path class="st1" d="M160.3,40.1v10.2h-6V40.1H160.3z M153.3,39.1v12.3h8.1V39.1L153.3,39.1z"/>
<polygon class="st2" points="153.8,50.9 153.8,62.1 160.8,62.1 160.8,50.9 153.8,50.9 "/>
<path class="st1" d="M160.3,51.4v10.2h-6V51.4H160.3z M153.3,50.4v12.2h8.1V50.3L153.3,50.4z"/>
<polygon class="st2" points="153.8,62.1 153.8,73.4 160.8,73.4 160.8,62.1 153.8,62.1 "/>
<path class="st1" d="M160.3,62.6v10.2h-6V62.6H160.3z M153.3,61.6v12.3h8.1V61.6L153.3,61.6z"/>
<polygon class="st2" points="153.8,73.1 153.8,84.4 160.8,84.4 160.8,73.1 153.8,73.1 "/>
<path class="st1" d="M160.3,73.7v10.2h-6V73.7H160.3z M153.3,72.7V85h8.1V72.7H153.3z"/>
<polygon class="st2" points="153.8,84.4 153.8,95.7 160.8,95.7 160.8,84.4 153.8,84.4 "/>
<path class="st1" d="M160.3,84.9v10.2h-6V84.9H160.3z M153.3,83.9v12.3h8.1V83.9L153.3,83.9z"/>
<polygon class="st2" points="153.8,95.7 153.8,106.9 160.8,106.9 160.8,95.7 153.8,95.7 "/>
<path class="st1" d="M160.3,96.2v10.2h-6V96.2H160.3z M153.3,95.2v12.3h8.1V95.1L153.3,95.2z"/>
<polygon class="st2" points="153.8,106.9 153.8,118.2 160.8,118.2 160.8,106.9 153.8,106.9 "/>
<path class="st1" d="M160.3,107.4v10.2h-6v-10.2H160.3z M153.3,106.4v12.3h8.1v-12.3L153.3,106.4z"/>
<polygon class="st2" points="161,50.9 161,62.1 168,62.1 168,50.9 161,50.9 "/>
<path class="st1" d="M167.5,51.4v10.2h-6V51.4H167.5z M160.5,50.4v12.2h8.1V50.3L160.5,50.4z"/>
<polygon class="st2" points="161,62.1 161,73.4 168,73.4 168,62.1 161,62.1 "/>
<path class="st1" d="M167.5,62.6v10.2h-6V62.6H167.5z M160.5,61.6v12.3h8.1V61.6L160.5,61.6z"/>
<polygon class="st2" points="161,73.1 161,84.4 168,84.4 168,73.1 161,73.1 "/>
<path class="st1" d="M167.5,73.7v10.2h-6V73.7H167.5z M160.5,72.7V85h8.1V72.7H160.5z"/>
<polygon class="st2" points="161,84.4 161,95.7 168,95.7 168,84.4 161,84.4 "/>
<path class="st1" d="M167.5,84.9v10.2h-6V84.9H167.5z M160.5,83.9v12.3h8.1V83.9L160.5,83.9z"/>
<polyline class="st2" points="175.2,84.4 168.2,84.4 168.2,73.4 176,73.1 175.2,84.4 "/>
<path class="st1" d="M175.5,73.7c-0.1,1-0.6,9.4-0.7,10.2h-6v-10L175.5,73.7L175.5,73.7z M167.7,72.9v12.1h8l0.8-12.3L167.7,72.9
	L167.7,72.9z"/>
<path class="st2" d="M44.4,29.4v10.2h7.2V28.4h-6.3C45,28.8,44.8,29.2,44.4,29.4"/>
<path class="st1" d="M45.5,29.1l0.3-0.4l5.4,0.1v10.2H45v-9.5C45,29.6,45.5,29.1,45.5,29.1z M45.4,27.8c-0.3,0.2-0.6,0.4-0.8,0.7
	L44,29.1l-0.1,0.3v10.7h8.2V27.8L45.4,27.8z"/>
<path class="st2" d="M44.4,39.6H38c-0.2,0.5-0.4,1-0.8,1.5v9.8h7.2L44.4,39.6"/>
<path class="st1" d="M38.3,40.2h5.6v10.2h-6.2v-9.2C37.8,41.1,38.3,40.1,38.3,40.2L38.3,40.2z M37.7,39.1l-0.3,0.7l-0.5,1l-0.1,10.1
	v0.5H45V39.1H37.7z"/>
<path class="st2" d="M168,40.9c-0.2-0.4-0.4-0.8-0.6-1.3H161v11.3h7L168,40.9"/>
<path class="st1" d="M167.2,40.1c0.1,0.3,0.3,0.7,0.4,0.9v9.3h-6V40.1H167.2z M160.5,39.1v12.3h8.1V40.8l-0.8-1.7L160.5,39.1z"/>
<path class="st2" d="M160.8,29.2l-0.8-0.8h-6.3v11.2h7L160.8,29.2"/>
<path class="st1" d="M160.1,28.9L160.1,28.9c0,0.2,0.1,0.3,0.2,0.4v9.8h-6V28.9H160.1z M153.3,27.9v12.2h8.1V29l-0.9-1l-6.6-0.2
	L153.3,27.9z"/>
<path class="st2" d="M130.4,6.1h-5.9v11.2h7.2V6.6C131.4,6.3,130.9,6.2,130.4,6.1"/>
<path class="st1" d="M130.4,6.6l0.8,0.3v9.9h-6.2V6.6H130.4z M124,5.6v12.3h8.3V6.1L132,6.1l-1.6-0.5H124z"/>
<path class="st2" d="M80.7,3.9c-1.9,0.7-4,1.3-5.9,2.1h5.9V3.9"/>
<path class="st1" d="M79.6,4.9l0.6-0.2v0.9h-2.4L79.6,4.9z M79.3,3.9l-4.7,1.7l0.2,1h6.4V3.2L79.3,3.9L79.3,3.9z"/>
<path class="st2" d="M80.9,3.9v2.1h7.2v-4C85.6,2.5,83.2,3.1,80.9,3.9"/>
<path class="st1" d="M87.6,2.7v2.8h-6.2V4.4L87.6,2.7z M80.3,3.6v0.4v2.6h8.2V1.4L80.3,3.6z"/>
<path class="st2" d="M88.3,2.1v4h7V1C92.9,1.1,90.6,1.4,88.3,2.1"/>
<path class="st1" d="M94.8,1.6v4h-6V2.5L94.8,1.6L94.8,1.6z M87.7,1.6L87.8,2v4.6h8.1V0.4L87.7,1.6L87.7,1.6z"/>
<path class="st2" d="M102.7,0.6c-2.4-0.1-4.8,0.1-7.2,0.4v5.1h7.2V0.6"/>
<path class="st1" d="M102.2,1.1v4.5H96V1.5L102.2,1.1z M94.9,0.5L95,1v5.6h8.3V0L94.9,0.5L94.9,0.5z"/>
<path class="st2" d="M109.9,6.1V0.8c-2.3-0.2-4.8-0.2-7.2-0.2v5.5H109.9"/>
<path class="st1" d="M103.2,1.1l6.2,0.2v4.3h-6.2V1.1z M102.2,0.6v6h8.2V0.3L102.2,0L102.2,0.6L102.2,0.6z"/>
<path class="st2" d="M109.9,1v5.1h7.2v-4C114.8,1.5,112.4,1.2,109.9,1"/>
<path class="st1" d="M110.5,1.6l6.2,0.9v3.1h-6.2V1.6z M109.5,1v5.6h8.2v-5l-8.3-1.2L109.5,1L109.5,1z"/>
<path class="st2" d="M124.6,3.9v2.1h6.3C128.7,5.2,126.7,4.6,124.6,3.9"/>
<path class="st1" d="M125.1,4.7l2.6,0.9h-2.6V4.7z M124.1,3.9v2.6h6.8l0.2-1l-6.6-2.3L124.1,3.9L124.1,3.9z"/>
<path class="st2" d="M139,10.1c-2.3-1.3-4.6-2.4-7-3.4v10.6h7V10.1"/>
<path class="st1" d="M132.5,7.6l6,2.9v6.4h-6V7.6z M131.5,6.7v11.1h8.1v-8l-8.1-3.9L131.5,6.7L131.5,6.7z"/>
<path class="st2" d="M139.2,10.3v7h7V15C144,13.3,141.6,11.7,139.2,10.3"/>
<path class="st1" d="M139.7,11.3l6,4v1.5h-6V11.3z M138.7,10.3v7.5h8.1v-3.1l-8.1-5.4L138.7,10.3L138.7,10.3z"/>
<path class="st2" d="M146.4,15v2.3h2.9C148.2,16.5,147.4,15.9,146.4,15"/>
<path class="st1" d="M146.9,16.1l0.9,0.7h-0.9V16.1z M145.9,15v2.8h4.8l-4.8-3.9L145.9,15L145.9,15z"/>
<path class="st2" d="M149.2,17.3h-2.9v11.2h7.2v-7.4C152.3,19.8,150.8,18.5,149.2,17.3"/>
<path class="st1" d="M149.1,17.8l4.2,3.7c0,0-0.1,5.6-0.1,6.5h-6.2V17.8H149.1z M149.2,16.8h-3.4v12.3h8.3v-8
	c-0.2-0.4-4.6-4.3-4.6-4.3l-0.1-0.1L149.2,16.8L149.2,16.8z"/>
<path class="st2" d="M161,29.4v10.2h6.4C165.6,36.1,163.4,32.7,161,29.4"/>
<path class="st1" d="M161.5,31.1c1.8,2.6,3.5,5.2,5,8h-5C161.5,39.1,161.5,31.1,161.5,31.1z M160.5,40.1h7.8l-0.4-0.8
	c-1.9-3.6-4.1-7-6.5-10.2l-0.9-1.3V40.1L160.5,40.1z"/>
<path class="st2" d="M168.2,41.1v9.8h4.2C171.2,47.5,169.8,44.3,168.2,41.1"/>
<path class="st1" d="M168.8,43.6l2.9,6.7h-2.9V43.6z M167.7,41.1v10.3h5.5l-4.5-10.5L167.7,41.1L167.7,41.1z"/>
<path class="st2" d="M172.4,50.9h-4.2v11.2h6.9C174.5,58.3,173.6,54.5,172.4,50.9"/>
<path class="st1" d="M172,51.4c1.1,3.3,1.9,6.7,2.4,10.2h-5.7V51.4H172z M167.7,50.4v12.2h8l-0.1-0.6c-0.6-3.8-1.5-7.6-2.7-11.3
	l-0.1-0.4L167.7,50.4z"/>
<path class="st2" d="M172.8,95.6h-4.6v10.8C170,103,171.5,99.4,172.8,95.6"/>
<path class="st1" d="M172,96.2c-0.4,0.9-2.1,5.1-3.2,7.7v-7.7L172,96.2z M172.8,95.2h-5.1v11.3l1,0.2l4.9-11.6L172.8,95.2
	L172.8,95.2z"/>
<path class="st2" d="M161,106.9v11.2c2.7-3.5,5.1-7.3,7-11.2H161"/>
<path class="st1" d="M167.1,107.4c-1.6,3.1-3.5,6.1-5.6,8.9v-8.9H167.1z M160.5,106.4v13.3l0.9-1.2c2.7-3.5,5.1-7.3,7.1-11.3
	l0.4-0.8L160.5,106.4z"/>
<path class="st2" d="M153.8,126.4c2.5-2.5,4.8-5.2,7-8.1v-0.2h-7V126.4"/>
<path class="st1" d="M159.9,118.7l-5.6,6.4v-6.4H159.9z M153.3,117.6v10.2l8.7-10l-1.2-0.2L153.3,117.6z"/>
<path class="st2" d="M146.4,129.4h4.2c0.9-1,1.9-1.9,3-2.8v-8.5h-7.2L146.4,129.4"/>
<path class="st1" d="M153.1,118.7v7.7l-2.9,2.6l-3.3-0.1v-10.2H153.1z M145.9,117.6v12.3h4.7c0.4-0.2,3.4-2.9,3.4-2.9l0.2-0.2v-0.3
	v-9L145.9,117.6z"/>
<path class="st2" d="M146.4,129.2v3.4c1.5-1,2.9-2.1,4.2-3.4L146.4,129.2"/>
<path class="st1" d="M149.1,129.7l-2.2,1.8v-1.8H149.1z M150.6,128.7h-4.7v5l6.2-5H150.6z"/>
<path class="st2" d="M139.2,137.5c2.5-1.5,4.7-3,7-4.7v-3.6h-7V137.5"/>
<path class="st1" d="M145.7,129.7v2.9l-6,4v-6.8L145.7,129.7z M138.7,128.7v9.8l8.1-5.4v-0.3v-4.1L138.7,128.7z"/>
<path class="st2" d="M132,140.4h1.1c2-0.9,4-1.9,5.9-3v-8.3h-7L132,140.4"/>
<path class="st1" d="M138.5,129.7v7.4l-5.6,2.8h-0.4v-10.2H138.5z M131.5,128.7v12.3h1.7c0.2,0,6.1-3,6.1-3l0.3-0.1v-0.3v-8.8
	L131.5,128.7z"/>
<path class="st2" d="M73.5,129.2h-7v8.3c1.9,1.1,3.9,2.1,5.9,3h1.1L73.5,129.2"/>
<path class="st1" d="M73,129.7v10.2h-0.6c0,0-4.6-2.4-5.4-2.8v-7.4H73z M66,128.7v9.1l6.2,3.1h1.3H74v-12.3L66,128.7z"/>
<path class="st2" d="M59.1,132.6c2.3,1.8,4.7,3.3,7.2,4.7v-8.1h-7.2V132.6"/>
<path class="st1" d="M65.8,129.7v6.6l-6.2-4v-2.6H65.8z M58.5,128.7v4.2l8.3,5.4v-1v-8.6L58.5,128.7z"/>
<path class="st2" d="M58.9,132.6v-3.4h-4C56.2,130.2,57.5,131.5,58.9,132.6"/>
<path class="st1" d="M58.3,129.7v1.7l-2-1.7H58.3z M53.5,128.7l5.9,5.1v-1.1v-3.9H53.5z"/>
<path class="st2" d="M51.8,126.4c1,1.1,2.1,1.9,3,3h4v-11.3h-7V126.4"/>
<path class="st1" d="M58.3,118.7v10.2h-3.4c-0.4-0.5-0.8-0.9-1.2-1.3l-1.3-1.3v-7.5L58.3,118.7z M51.3,117.6v9l3.2,3.1l4.4,0.2h0.5
	v-12.3L51.3,117.6z"/>
<path class="st2" d="M44.4,118.1c2.2,2.9,4.6,5.6,7.2,8.1v-8.1H44.4"/>
<path class="st1" d="M51.2,118.7v6.2c-2-1.9-3.8-4-5.5-6.2H51.2z M43.4,117.6l0.6,0.8c2.2,2.9,4.6,5.6,7.2,8.1l0.9,0.8v-9.8
	L43.4,117.6z"/>
<path class="st2" d="M44.4,106.9h-7c2,3.9,4.3,7.7,7,11.2V106.9"/>
<path class="st1" d="M43.9,107.4v9c-2.1-2.9-4-5.9-5.6-9H43.9z M36.6,106.4l0.4,0.8c2,4,4.4,7.8,7.1,11.3l0.9,1.3v-13.4L36.6,106.4z
	"/>
<path class="st2" d="M37,84.4h-6.9c0.7,3.8,1.5,7.6,2.7,11.2H37L37,84.4"/>
<path class="st1" d="M36.5,84.9v10.2h-3.2c-0.2-0.7-2.2-9.1-2.4-10.2H36.5z M29.5,83.9l2.9,12.3h0.4h4.7V83.9L29.5,83.9z"/>
<path class="st2" d="M37,106.3V95.6h-4.2C34,99.3,35.4,102.8,37,106.3"/>
<path class="st1" d="M36.5,96.2v7.6c-1.1-2.5-2.1-5-2.9-7.6H36.5z M32.1,95.2l0.2,0.7c1.1,3.7,2.5,7.2,4.2,10.7l1-0.2V95.1
	L32.1,95.2z"/>
<path class="st2" d="M37,62.1h-6.6c-0.2,1.1-0.2,2.1-0.4,3.4l-0.4,7.8H37L37,62.1"/>
<path class="st1" d="M36.5,62.6v10.2h-6.3c0-1,0.4-7.3,0.4-7.3l0.3-2.9H36.5z M29.9,61.6l-0.2,2.2l-0.2,1.7l-0.4,8.4h8.5V61.6
	L29.9,61.6z"/>
<path class="st2" d="M37,62.1V50.9h-3.8c-1.1,3.7-2.1,7.4-2.8,11.2L37,62.1"/>
<path class="st1" d="M36.5,51.4v10.2H31l2.6-10.2L36.5,51.4z M32.8,50.4l-3.1,12.3h0.7h7.2V50.3L32.8,50.4z"/>
<path class="st2" d="M37,50.9v-9.6c-1.4,3.1-2.7,6.3-3.8,9.6H37"/>
<path class="st1" d="M36.5,44v6.3H34L36.5,44z M32.5,51.4h5.1V41.3l-1-0.2L32.5,51.4z"/>
<path class="st2" d="M51.7,28.6v-7c-2.3,2.1-4.4,4.5-6.3,7H51.7"/>
<path class="st1" d="M51.2,22.9v5.1h-4.6C48,26.2,49.5,24.5,51.2,22.9z M51.3,21.2c-2.3,2.2-4.4,4.5-6.3,7.1l-0.6,0.8h7.8v-8.7
	L51.3,21.2L51.3,21.2z"/>
<path class="st2" d="M51.8,28.6h7V17.3h-2.7c-1.5,1.3-2.8,2.6-4.4,4L51.8,28.6"/>
<path class="st1" d="M56.5,17.7l1.8,0.1v10.2h-6v-6.7C52.4,21.5,56.5,17.7,56.5,17.7L56.5,17.7z M56.2,16.8
	c-0.3,0.1-4.7,4.2-4.7,4.2l-0.1,7.6v0.5h8.1V16.8H56.2z"/>
<path class="st2" d="M58.9,15.2c-0.9,0.6-1.8,1.4-2.7,2.1h2.7V15.2"/>
<path class="st1" d="M58.3,16.3v0.5h-0.7L58.3,16.3z M54.7,17.9h1.5h3.2v-3.7L54.7,17.9z"/>
<path class="st2" d="M59.1,15v2.3h7.2v-7C63.8,11.8,61.3,13.3,59.1,15"/>
<path class="st1" d="M65.8,11.3v5.5h-6.2v-1.5L65.8,11.3L65.8,11.3z M58.5,14.7V15v2.8h8.3V9.4L58.5,14.7L58.5,14.7z"/>
<path class="st2" d="M73.5,6.7c-2.4,1.1-4.7,2.3-7,3.6v7h7V6.7"/>
<path class="st1" d="M73,7.6v9.2h-6v-6.5C67,10.6,71.3,8.4,73,7.6z M66.2,9.9l-0.3,0.5v7.5H74v-12L66.2,9.9L66.2,9.9z"/>
<path class="st2" d="M73.7,17.3h7V6.1h-5.5c-0.5,0.2-1,0.4-1.5,0.6L73.7,17.3"/>
<path class="st1" d="M75.4,6.6h4.8v10.2h-6V7.1L75.4,6.6z M75.2,5.6c-0.2,0-1.8,0.7-1.8,0.7l-0.3,0.1v0.3v11.1h8.1V5.6H75.2z"/>
<path class="st2" d="M175.2,63.8c0-0.6,0-1.1-0.2-1.7h-6.9v11.2h7.8L175.2,63.8"/>
<path class="st1" d="M174.6,62.6c0.1,0.4,0.1,1.2,0.1,1.2s0.6,8,0.7,9h-6.7V62.6H174.6z M175.1,61.6h-7.4v12.3h8.9l-0.8-10.1l0,0
	l-0.3-2.3L175.1,61.6L175.1,61.6z"/>
<path class="st2" d="M168.2,84.4v11.2h4.4c1.2-3.7,2.1-7.4,2.6-11.2H168.2"/>
<path class="st1" d="M174.6,84.9c-0.6,3.5-1.4,6.9-2.5,10.2h-3.4V84.9H174.6z M167.7,83.9v12.3h5.3l0.1-0.4
	c1.2-3.7,2.1-7.5,2.7-11.3l0.1-0.6H167.7z"/>
<path class="st2" d="M168,95.6h-7v11.2h7V95.6"/>
<path class="st1" d="M167.5,96.2v10.2h-6V96.2H167.5z M160.5,95.2v12.3h8.1V95.1L160.5,95.2z"/>
<path class="st2" d="M37.4,106.9h7V95.6h-7.2v11C37.4,106.6,37.4,106.9,37.4,106.9"/>
<path class="st1" d="M43.9,96.2v10.2h-6.2V96.2H43.9z M36.7,95.2v12.1l0.7,0.2H45V95.1L36.7,95.2z"/>
<path class="st2" d="M30.2,84.4H37v-11h-7.4l0.4,8.7C30,83,30.2,83.8,30.2,84.4"/>
<path class="st1" d="M36.5,73.9v10h-5.8c0-0.3-0.1-1.8-0.1-1.8s-0.3-6.8-0.4-8.2H36.5z M29.1,72.9l0.4,9.2l0.1,1.4l0.1,1.4h0.5h7.4
	V72.8L29.1,72.9z"/>
<polyline class="st3" points="182.8,152.5 182.8,149.6 21.1,149.6 21.1,155.7 182.8,155.7 182.8,152.5 "/>
<path class="st3" d="M177.7,55.1c-15,0-26.4,7.8-26.4,21.4c0,11.5,10.4,19.5,24.3,19.5c10.6,0,19.6-7.6,22-12.5
	c0-1.5-1.5-2.1-2.9-2.1c-2.5,3.8-9.3,6.6-12.1,6.6c-16.9-0.6-19.8-7.4-19.9-14.7c-0.4-7.6,8-14.2,15.2-13.8c4,0.2,5.5,7,9.1,9.6
	c1.1,0.6,3.8,0.4,5.5,0.2c1.3-0.2,4.9-1.1,4.9-4c0-2.5-3.2-5.5-6.3-7.2C186.9,56.3,182.3,55.3,177.7,55.1"/>
<path class="st3" d="M77.7,84.6c0,6.4-1.7,9.6-6.8,10l0.2,1.1c8.5-0.2,17.1,0,25.4-0.2v-0.6c-3.8,0-6.7-4-6.7-9.1v-17
	c0-4,4.9-6.8,8.4-6.4c5.5,0.4,8.4,3.8,8.4,7v16.6c0,5.1-1.5,8.3-5.5,8.5v1.1h23.3v-0.9c-3.4-0.4-5.9-3.6-5.9-8.3V68.9
	c0-3.8,3.2-6.4,9.1-6.4c4.1-0.4,7.7,2.6,8.1,6.7c0,0.2,0,0.3,0,0.5v15.7c0,5.5-1.7,8.7-5.7,9.1v0.8H154v-0.6c-4.6,0-6.1-3-6.1-9.1
	V68.3c0-5.7-3-12.7-12-12.7c-5.9,0-10.3,3-12.7,3.8c-1.9,0.6-3,1.5-3.4,1.5c-1.1-0.1-2.2-0.8-2.8-1.7c-2.3-2.3-6.1-3.6-10.1-3.6
	c-5.1,0-10.4,3-12.7,3.8c-0.4,0-2.3,1-2.5,1c-0.4,0-1.9,0-1.9-0.2c0-4.9,0.2-2.6,0-6h-3.2c-1.1,0-2.8,1.9-4.9,2.6
	c-2.3,1.1-7.2,1.1-9.3,1.5v3.4l5.3,1.1V84.6"/>
<path class="st3" d="M54.7,95.4c8.9-0.4,17.7-2.3,17.7-11c0-6.2-7-10.2-14.2-13.4c-4.7-1.9-11.4-4.7-11.4-7c0-2.6,5.1-7.6,10.1-3.6
	l8.5,7.2l4-0.8l-2.1-10.7c-2.1,0-3.6,0.2-11-1c-9.1-1.3-19.9,3.2-19.9,11.7c0,5.7,8.2,9.8,14.8,12.3c3.4,1.5,9.7,3.8,9.7,7.2
	s-5.9,4.2-9.1,4.2c-5.7,0-12-7.6-12-7.6h-3.8l2.1,11.4c0.6-0.6,3.2-0.6,3.8-0.4C43.5,94.8,50.1,95.7,54.7,95.4"/>
<path class="st3" d="M33.2,61v-5.3h-11c-1.5,0-1.3-0.2-1.3-2.1l0.2-7.2h-5.7c-1.7,3.8-3.8,6.4-4.9,6.8L0,57.9V61l3.8,0.2
	c1.7,0,2.5-0.2,2.5,1.9v21.2C6.3,91,9.9,95.6,19,95.9c6.8,0.2,11-2.8,14-5.5l-1-2.8c-1,0.9-2.4,1.5-3.8,1.5c-7.8,0-7.6-6.1-7.6-11.5
	V63.2c0-2.1,0.2-2.1,1.5-2.1H33.2"/>
</svg>
